/* XPM */
static char *collectible[] = {
/* columns rows colors chars-per-pixel */
"32 32 197 2 ",
"   c #3F773F",
".  c gray32",
"X  c #437143",
"o  c #506A50",
"O  c #417F58",
"+  c #525268",
"@  c #56546F",
"#  c #5E5677",
"$  c #52527F",
"%  c #436671",
"&  c #398539",
"*  c #3B8E3B",
"=  c #3D903D",
"-  c #3F983F",
";  c #458945",
":  c #50984E",
">  c #589256",
",  c #41A041",
"<  c #49A647",
"1  c #4AB54A",
"2  c #62A05E",
"3  c #54C352",
"4  c #5ED25A",
"5  c #6DD46B",
"6  c #7FC27D",
"7  c #73EF6B",
"8  c #77E273",
"9  c #83C26F",
"0  c #85C271",
"q  c #49588E",
"w  c #565485",
"e  c #5A568C",
"r  c #625894",
"t  c #6B5A9C",
"y  c #546D85",
"u  c #4F4FA6",
"i  c #5252AD",
"p  c #5E58A9",
"a  c #5654B3",
"s  c #5A56B9",
"d  c #5E58BF",
"f  c #675AB1",
"g  c #6F5CB9",
"h  c #6B60B7",
"j  c #6258C1",
"k  c #675AC8",
"l  c #6B5ACA",
"z  c #6B5CCE",
"x  c #6F5CD0",
"c  c #735ED6",
"v  c #775ED8",
"b  c #7B64C7",
"n  c #6F60D0",
"m  c #7362D6",
"M  c #7366D6",
"N  c #7764DC",
"B  c #7B60DE",
"V  c #7B64DE",
"C  c #7F66E4",
"Z  c #8463E7",
"A  c #836CEA",
"S  c #8869ED",
"D  c #8C6FF3",
"F  c #8772F0",
"G  c #9075F9",
"H  c #947BFF",
"J  c #7CC28B",
"K  c #78C299",
"L  c #73C1A2",
"P  c #75C1A3",
"I  c #76C2A4",
"U  c #78C2A5",
"Y  c #79C3A6",
"T  c #7BC3A7",
"R  c #7DC4A9",
"E  c #7EC4A9",
"W  c #7FC5AA",
"Q  c #8AC580",
"!  c #8BC581",
"~  c #8BC686",
"^  c #8EC78A",
"/  c #8FC78D",
"(  c #8FC78F",
")  c #90C890",
"_  c #91C893",
"`  c #92C996",
"'  c #93C99B",
"]  c #93CA9D",
"[  c #94CA9E",
"{  c #91DB93",
"}  c #90DC90",
"|  c #ACEE8F",
" . c #AFF584",
".. c #AEF388",
"X. c #ADF08B",
"o. c #B0F880",
"O. c #A0E396",
"+. c #AAEA95",
"@. c #AAEA96",
"#. c #A0E199",
"$. c #A9E79A",
"%. c #A9E69C",
"&. c #A8E49F",
"*. c #A9E899",
"=. c #AAE998",
"-. c #83C6A4",
";. c #88CEA2",
":. c #8ACEA4",
">. c #80C5AB",
",. c #81C5AB",
"<. c #82C6AC",
"1. c #83C6AC",
"2. c #83C6AD",
"3. c #84C6AD",
"4. c #85C7AE",
"5. c #86C7AF",
"6. c #87C7AF",
"7. c #8FCAAF",
"8. c #97CBA5",
"9. c #97CBA7",
"0. c #99CCAB",
"q. c #99CCAD",
"w. c #89C8B0",
"e. c #89C8B1",
"r. c #8AC8B1",
"t. c #8BC9B2",
"y. c #8CC9B2",
"u. c #8CC9B3",
"i. c #8DC9B3",
"p. c #8ECAB4",
"a. c #8FCAB4",
"s. c #90CAB5",
"d. c #91CBB6",
"f. c #92CBB7",
"g. c #93CBB7",
"h. c #9BCDB1",
"j. c #9BCEB4",
"k. c #98CFB6",
"l. c #9BCEB6",
"z. c #9CCEB4",
"x. c #9CCEB6",
"c. c #9DCEB7",
"v. c #94CCB8",
"b. c #95CCB9",
"n. c #96CCB9",
"m. c #97CDBA",
"M. c #9ACEB8",
"N. c #9ACFB8",
"B. c #98CDBA",
"V. c #98CDBB",
"C. c #99CDBB",
"Z. c #9ACEBA",
"A. c #9ECFBA",
"S. c #9ACEBC",
"D. c #9BCEBD",
"F. c #9CCEBD",
"G. c #9ECFBC",
"H. c #9FCFBD",
"J. c #9DCFBE",
"K. c #9ECFBE",
"L. c #9ECFBF",
"P. c #9FCFBF",
"I. c #A6DFA7",
"U. c #A5DEA9",
"Y. c #A6DFA8",
"T. c #A5DDAB",
"R. c #A4DBAE",
"E. c #A4DAAF",
"W. c #A0D6B2",
"Q. c #A0D4B5",
"!. c #A3D7B4",
"~. c #A2D6B5",
"^. c #A2D5B7",
"/. c #A2D6B6",
"(. c #A3D8B2",
"). c #A1D3B9",
"_. c #A1D3BA",
"`. c #A1D2BB",
"'. c #A1D3BB",
"]. c #A1D4B8",
"[. c #A1D4B9",
"{. c #A2D5B8",
"}. c #A0D1BD",
"|. c #A0D2BC",
" X c #A1D2BC",
".X c #A0D0BE",
"XX c #A0D1BE",
"oX c #A0D0BF",
"OX c #A7E3A0",
"+X c #A7E2A2",
"@X c #A6E1A4",
"#X c #A7E1A4",
"$X c #A8E4A0",
"%X c #A089FF",
"&X c #AD98FF",
"*X c #C6B5FF",
"=X c #A0D0C0",
/* pixels */
"=X=X=X=X=X=X=X=X=X=X=X=X=X=X=X=X=X=X=X=X=X=X=X=X=X=X=X=X=X=X=X=X",
"o.=X=X=X=X=X=X=X=X=Xd.W =Xp.4.#X$X=X=X=X=X=X=X=X=X=XY m.=XI J. .",
"L =XJ.=X=X=X=X=X=X=X=X=X=X=X=Xy.e.L.L.=X=X=X=X=X=X=X=X=X=X=X=XP ",
"=X=XP =X=XP.J.=X=X=X=X=X=X.X}.=X=Xe.y.=X=XK.P.=X=X=X=X=X=X|.oX=X",
"{.=Xj.S.=XS.R L.D.=X=X=X=XT.OX|. XA.M.J.=X4.f.D.L.=X=X=X=X| |.].",
"..=X9 U P.S.=XB.>.=X=X=X=X=X=XI.#X` J i.F.J.=X1.b.=X=X=X=X=X=XX.",
"=Xm.=XP.g.R =X=X=X=X=XA.z.=X=X=XD.D.=XS.3.d.=X=X=X=X=Xh.H.=X=X=X",
"=XY =XJ.R =X=X=X=X=X=X9.( =X=X=Xu.u.=Xr.d.=X=X=X=X=X=XQ x.=X=X=X",
"=X=XP.v.=XL.n.}.!.X > 2 o X =X=X=X=XC.S.=XV.F.~. X=X=X=X=X=X=X=X",
"=X=XJ.E =XD.<.Q.O.X : 4 7 8 X =X=X=Xt.s.=Xe.v.#.W.=X=X=X=X=X=X=X",
"=X=X=X=X=X=X=XC.6.F.b.X   5 ; . e t @ u =X=X=Xw.m.v.J.=X=X=X=X=X",
"=X=X=X=X=X}.E.=X=Xm.w.# @ * , - y H Z $ u u ).=X=X6.C.=X=Xf.P.=X",
"p.=X=X=X=X'.&.`.R.c.u G < 7 7 3 = Z B s B g u E._.8.7.F.=X4.K.a.",
"<.=X=X=X=X=X=X].+Xu u m O 1 1 1 & d C D N B r @X/._ -.S.s.J.=X2.",
"=X=X=XH.' =X=X=Xu h S k q & = % a l &X&XH c r =Xs.S.=Xp.4.F.=X=X",
"=X=X=XG.) =X=X=Xu C S z i i n G H C F H H M + =Xt.C.=Xr.F.=X=X=X",
"$X=X=X=X=X=X=X=Xu r C D C m %X*X%XH C H G j u =X=X=Xu.D.=Xt.L.+X",
"} =X=X=X=X=X=X=Xu b &X&XH D %X*X%XH A x z x f u =X=Xu.D.=Xt.L.{ ",
"t.=X5.=X=X=X=X=Xu D H H H G H H H H A i c Z Z u =X=X=X=X=X=X=Xy.",
"=X=Xy.=X=XF.r.=Xu N H H H V S H H D k k k Z f u =X=X=X=X=XOX}.=X",
"=.=X~ 2.=XJ.d.S.e.u C D B j k x l s v Z c @ u t.V.=X=X=X=XT..X$.",
"Y.=X] a.F.4.=XF.f.=Xu w u z D Z B x H Z x u =Xg.D.=X=X=X=X=X=XU.",
"=XW =XJ.,.f.=X=X=X=X=X0.u f D Z B p c k u S.=X=X=X=X=X^ c.=X=X=X",
"=Xd.=XP.f.=X=X=X=X=X=Xx.q.u u e + u u u S.=X=X=X=X=X=X9.G.=X=X=X",
"=X=XJ.E =XD.<.^.%.=X=X=X=X=X=X=X=X=Xt.s.=Xe.v.&.!.=X=X=X=X=X=X=X",
"=X=XP.v.=XL.n.N.;.=X=X=X=X=X=X=X=X=XC.S.=XV.F.:.k.=X=X=X=X=X=X=X",
"=X=X=X=X=X=X=XK.C.n.4.=X=X=X=X=X=X=X=X=X=X=X=XC.J.<.V.=X=X=X=X=X",
"=X=X=X=X=X[.+.=X=XJ.C.=X=Xd.r.=X=X=X=X=X=X&.E.=X=XC.K.=X=XR J.=X",
"I =X=X=X=XoX[.~.@.0.6 1.=XJ.F.i.t.=X=X=X=X'.}.*.(.! K B.=XS.P.U ",
"S.=X=X=X=X=X=X.X_.H.l.D.s.4.=XJ.J.=X=X=X=X=X=X_.XXc.Z.L.T S.=XS.",
"=X=X=XA.0 =X=X=Xv.E =Xd.<.K.=X=X=X=X=X/ [ =X=X=XE v.=XT m.P.=X=X",
"=X=X=XP.A.=X=X=XP.J.=XP.K.=X=X=X=X=X=XG.H.=X=X=XJ.P.=XJ.P.=XP J."
};
