/* XPM */
static char *enemy[] = {
/* columns rows colors chars-per-pixel */
"32 32 121 2 ",
"   c #181818",
".  c #212021",
"X  c #2C2B2C",
"o  c #68330E",
"O  c #FF161A",
"+  c SaddleBrown",
"@  c #7FC27D",
"#  c #BFA100",
"$  c gold",
"%  c #83C26F",
"&  c #85C271",
"*  c SlateGray",
"=  c #78C299",
"-  c #73C1A2",
";  c #75C1A3",
":  c #76C2A4",
">  c #78C2A5",
",  c #79C3A6",
"<  c #7BC3A7",
"1  c #7DC4A9",
"2  c #7EC4A9",
"3  c #7FC5AA",
"4  c #8E8D8D",
"5  c #BEA289",
"6  c #BEBDBD",
"7  c #8AC580",
"8  c #8BC581",
"9  c #8BC686",
"0  c #8EC78A",
"q  c #8FC78D",
"w  c #91C893",
"e  c #93CA9D",
"r  c #94CA9E",
"t  c #91DB93",
"y  c #90DC90",
"u  c #ACEE8F",
"i  c #AFF584",
"p  c #AEF388",
"a  c #ADF08B",
"s  c #B0F880",
"d  c #AAEA95",
"f  c #AAEA96",
"g  c #A0E199",
"h  c #A9E79A",
"j  c #A8E49F",
"k  c #A9E899",
"l  c #AAE998",
"z  c #83C6A4",
"x  c #8ACEA4",
"c  c #81C5AB",
"v  c #82C6AC",
"b  c #83C6AC",
"n  c #83C6AD",
"m  c #85C7AE",
"M  c #86C7AF",
"N  c #87C7AF",
"B  c #8FCAAF",
"V  c #97CBA5",
"C  c #97CBA7",
"Z  c #99CCAB",
"A  c #89C8B1",
"S  c #8AC8B1",
"D  c #8BC9B2",
"F  c #8CC9B2",
"G  c #8ECAB4",
"H  c #8FCAB4",
"J  c #90CAB5",
"K  c #91CBB6",
"L  c #92CBB7",
"P  c #93CBB7",
"I  c #9BCDB1",
"U  c #9BCEB4",
"Y  c #98CFB6",
"T  c #9BCEB6",
"R  c #9CCEB6",
"E  c #9DCEB7",
"W  c #94CCB8",
"Q  c #95CCB9",
"!  c #97CDBA",
"~  c #98CDBA",
"^  c #98CDBB",
"/  c #99CDBB",
"(  c #9ACEBA",
")  c #9ECFBA",
"_  c #9ACEBC",
"`  c #9BCEBD",
"'  c #9CCEBD",
"]  c #9ECFBC",
"[  c #9FCFBD",
"{  c #9DCFBE",
"}  c #9ECFBE",
"|  c #9ECFBF",
" . c #9FCFBF",
".. c #A5DEA9",
"X. c #A6DFA8",
"o. c #A5DDAB",
"O. c #A4DAAF",
"+. c #A0D6B2",
"@. c #A3D7B4",
"#. c #A2D6B5",
"$. c #A2D6B6",
"%. c #A3D8B2",
"&. c #A1D3BA",
"*. c #A1D3BB",
"=. c #A1D4B8",
"-. c #A1D4B9",
";. c #A2D5B8",
":. c #A0D1BD",
">. c #A0D2BC",
",. c #A1D2BC",
"<. c #A0D0BE",
"1. c #A0D1BE",
"2. c #A0D0BF",
"3. c #A7E3A0",
"4. c #A7E2A2",
"5. c #A6E1A4",
"6. c #A7E1A4",
"7. c #A8E4A0",
"8. c #FED9B7",
"9. c #A0D0C0",
"0. c #FEFCFC",
/* pixels */
"9.9.9.9.9.9.9.9.9.9.9.9.9.9.9.9.9.9.9.9.9.9.9.9.9.9.9.9.9.9.9.9.",
"s 9.9.9.9.9.9.9.9.9.K 3 9.G m 6.7.9.9.9.9.9.9.9.9.9., ! 9.: { i ",
"- 9.{ 9.9.9.9.9.9.9.9.9.9.9.9.F A | | 9.9.9.9.9.9.9.9.9.9.9.9.; ",
"9.9.; 9.9.9.9.X 0.0.X X X 0.. X 9.A X X 9.9. .9.9.9.9.9.9.>.2.9.",
";.9.U _ 9.9.. X 0.0.X X X 0.. X ,.) X X X 9.L ` | 9.9.9.9.u >.=.",
"p 9.% >  .9.X O + + + * * 0.. X X X * * X 9.9.b Q 9.9.9.9.9.9.a ",
"9.! 9. .P 9.X O + + # * * 0.  . 8.8.O O X 9.9.9.9.9.9.I [ 9.9.9.",
"9., 9.{ 1 9.X O + + $ * * 0.. X 8.8.O O X 9.9.9.9.9.9.7 R 9.9.9.",
"9.9. .W 9.9.X 8.+ + $ * * 0.8.8.8.8.O O X 9.9.#.,.9.9.9.9.9.9.9.",
"9.9.{ 2 9.9.X 8.+ + $ * * 0.8.8.8.8.O O X 9.9.g +.9.9.9.9.9.9.9.",
"9.9.9.9.X X 8.X + + + * * 0.0.0.X X 8.8.8.. . 9.! W { 9.9.9.9.9.",
"9.9.9.9.9.9.X 0.X X 0.0.0.0.. X 0.0.X 8.X 9.M 9.9.N / 9.9.L  .9.",
"G 9.9.9.9.9.X 0.X X 0.0.0.0.. X 0.0.X 8.X 9.M O.&.V B ' 9.m } H ",
"v 9.9. .9.9.X 0.* * 0.0.0.0.* * 0.0.0.8.X 9.M 5.$.w z _ J { 9.n ",
"9.9.9. .. X 8.0.0.0.0.0.0.0.0.0.0.0.8.8.8.  9.9.9.9.9.G m ' 9.9.",
"9.9.9. .X X 8.0.0.0.0.0.0.0.0.0.0.0.8.8.8.  . X X 9.9.S ' 9.9.9.",
"7.9.9. .9.X . X 0.0.X X X X 0.0.X X 8.X X X o + + X 9.` 9.D | 4.",
"y 9.9.9.9.X . X 0.0.X X X X 0.0.X X 8.X X X o + + X 9.` 9.D | t ",
"D 9.M 9.9.9.. X X X 8.8.8.8.. X X X X 0.0.X o + 8.X 9.9.9.9.9.F ",
"9.9.F 9.9.X 8.8.X X X X X X 6 0.8.8.X X X X . X 8.X 9.9.9.3.:.9.",
"l 9.9 n 9.X 8.8.X X X X X X 6 0.8.8.X X X X . X 8.X 9.9.9.o.<.h ",
"X.9.e H ' m . X X X 8.8.8.8.. X X X X X X 8.5 8.X 9.9.9.9.9.9...",
"9.3 9.{ c L 9.0.. . . 0.0.0.4 0.0.0.o . . .   . 9.9.9.0 E 9.9.9.",
"9.K 9. .L 9.9.0.X X X 0.0.0.4 0.0.0.+ X 9.9.9.9.9.9.9.C ] 9.9.9.",
"9.9.{ 2 9.` 9.X X X + X X X o + X X X X 9.A W j @.9.9.9.9.9.9.9.",
"9.9. .W 9.| 9.X X X + X X X o + X X X 9.9.^ ' x Y 9.9.9.9.9.9.9.",
"9.9.9.9.9.9.9.X X X X X X 9.9.X + + X 9.9.9.9./ { v ^ 9.9.9.9.9.",
"9.9.9.9.9.-.d 9.9.{ / 9.9.K 9.X X X X 9.9.j O.9.9./ } 9.9.1 { 9.",
": 9.9.9.9.2.-.#.f Z @ b 9.{ 9.9.9.9.9.9.9.*.:.k %.8 = ~ 9._  .> ",
"_ 9.9.9.9.9.9.<.&.[ T ` J m 9.{ { 9.9.9.9.9.9.&.1.E ( | < _ 9._ ",
"9.9.9.) & 9.9.9.W 2 9.K v } 9.9.9.9.9.q r 9.9.9.2 W 9.< !  .9.9.",
"9.9.9. .) 9.9.9. .{ 9. .} 9.9.9.9.9.9.] [ 9.9.9.{  .9.{  .9.; { "
};
