/* XPM */
static char *floor[] = {
/* columns rows colors chars-per-pixel */
"32 32 149 2 ",
"   c #7FC27D",
".  c #83C26F",
"X  c #85C271",
"o  c #7CC28B",
"O  c #78C299",
"+  c #73C1A2",
"@  c #75C1A3",
"#  c #76C2A4",
"$  c #78C2A5",
"%  c #79C3A6",
"&  c #7BC3A7",
"*  c #7DC4A9",
"=  c #7EC4A9",
"-  c #7FC5AA",
";  c #8AC580",
":  c #8BC581",
">  c #8BC686",
",  c #8EC78A",
"<  c #8FC78D",
"1  c #8FC78F",
"2  c #88C690",
"3  c #86C69A",
"4  c #90C890",
"5  c #91C893",
"6  c #92C996",
"7  c #93C99B",
"8  c #93CA9D",
"9  c #94CA9E",
"0  c #91DB93",
"q  c #90DC90",
"w  c #ACEE8F",
"e  c #AFF584",
"r  c #AEF388",
"t  c #ADF08B",
"y  c #B0F880",
"u  c #A0E396",
"i  c #AAEA95",
"p  c #AAEA96",
"a  c #A0E199",
"s  c #A9E79A",
"d  c #A9E69C",
"f  c #A8E49F",
"g  c #A9E899",
"h  c #AAE998",
"j  c #83C6A4",
"k  c #88CEA2",
"l  c #8ACEA4",
"z  c #80C5AB",
"x  c #81C5AB",
"c  c #82C6AC",
"v  c #83C6AC",
"b  c #83C6AD",
"n  c #84C6AD",
"m  c #85C7AE",
"M  c #86C7AF",
"N  c #87C7AF",
"B  c #8FCAAF",
"V  c #92CAA3",
"C  c #95CAA1",
"Z  c #96CBA2",
"A  c #97CBA5",
"S  c #97CBA7",
"D  c #90CAA9",
"F  c #98CCA8",
"G  c #99CCAB",
"H  c #99CCAD",
"J  c #9ACDAE",
"K  c #98D6A8",
"L  c #99D5AB",
"P  c #88C8B0",
"I  c #89C8B0",
"U  c #89C8B1",
"Y  c #8AC8B1",
"T  c #8BC9B2",
"R  c #8CC9B2",
"E  c #8CC9B3",
"W  c #8DC9B3",
"Q  c #8ECAB4",
"!  c #8FCAB4",
"~  c #8FCAB5",
"^  c #90CAB5",
"/  c #91CBB6",
"(  c #92CBB7",
")  c #93CBB7",
"_  c #9ACDB0",
"`  c #9BCDB1",
"'  c #9BCEB4",
"]  c #98CFB6",
"[  c #9BCEB6",
"{  c #9CCEB4",
"}  c #9CCEB6",
"|  c #9DCEB7",
" . c #94CCB8",
".. c #95CCB9",
"X. c #96CCB9",
"o. c #97CDBA",
"O. c #9ACEB8",
"+. c #9ACFB8",
"@. c #98CDBA",
"#. c #98CDBB",
"$. c #99CDBB",
"%. c #9ACEBA",
"&. c #9ECFBA",
"*. c #9ACEBC",
"=. c #9BCEBD",
"-. c #9CCEBD",
";. c #9ECFBC",
":. c #9FCFBD",
">. c #9DCFBE",
",. c #9ECFBE",
"<. c #9ECFBF",
"1. c #9FCFBF",
"2. c #A6DFA7",
"3. c #A5DEA9",
"4. c #A6DFA8",
"5. c #A5DCAB",
"6. c #A5DDAB",
"7. c #A4DAAE",
"8. c #A4DBAE",
"9. c #A4DAAF",
"0. c #A5DCAC",
"q. c #A0D6B2",
"w. c #A3D7B3",
"e. c #A0D4B5",
"r. c #A3D7B4",
"t. c #A2D6B5",
"y. c #A2D5B7",
"u. c #A2D6B6",
"i. c #A3D8B2",
"p. c #A4DAB0",
"a. c #A1D3B9",
"s. c #A1D3BA",
"d. c #A1D2BB",
"f. c #A1D3BB",
"g. c #A1D4B8",
"h. c #A1D4B9",
"j. c #A2D5B8",
"k. c #A0D1BD",
"l. c #A0D2BC",
"z. c #A1D2BC",
"x. c #A0D0BE",
"c. c #A0D1BE",
"v. c #A0D0BF",
"b. c #A7E3A0",
"n. c #A7E2A2",
"m. c #A6E1A4",
"M. c #A7E1A4",
"N. c #A8E4A0",
"B. c #A0D0C0",
/* pixels */
"B.B.B.B.B.B.B.B.B.B.B.B.B.B.B.B.B.B.B.B.B.B.B.B.B.B.B.B.B.B.B.B.",
"y B.B.B.B.B.B.B.B.B./ - B.Q m M.N.B.B.B.B.B.B.B.B.B.% o.B.# >.e ",
"+ B.>.B.B.B.B.B.B.B.B.B.B.B.B.R U <.<.B.B.B.B.B.B.B.B.B.B.B.B.@ ",
"B.B.@ B.B.1.>.B.B.B.B.B.B.x.k.B.B.U R B.B.,.1.B.B.B.B.B.B.l.v.B.",
"j.B.' *.B.*.* <.=.B.B.B.B.6.b.l.z.&.O.>.B.m ( =.<.B.B.B.B.w l.g.",
"r B.. $ 1.*.B.@.z B.B.B.B.B.B.2.M.6 o W -.>.B.v ..B.B.B.B.B.B.t ",
"B.o.B.1.) * B.B.B.B.B.&.{ B.B.B.=.=.B.*.n / B.B.B.B.B.` :.B.B.B.",
"B.% B.>.* B.B.B.B.B.B.S 1 B.B.B.E E B.Y / B.B.B.B.B.B.; } B.B.B.",
"B.B.1. .B.<.X.k.r.B.B.B.B.B.B.B.B.B.$.*.B.#.-.t.z.B.B.B.B.B.B.B.",
"B.B.>.= B.=.c e.u B.B.B.B.B.B.B.B.B.T ^ B.U  .a q.B.B.B.B.B.B.B.",
"B.B.B.B.B.B.B.$.N -...B.B.B.B.B.B.B.B.B.B.B.B.I o. .>.B.B.B.B.B.",
"B.B.B.B.B.k.9.B.B.o.I B.B.*.o.B.B.B.B.B.B.w.a.B.B.N $.B.B.( 1.B.",
"Q B.B.B.B.f.f d.8.| V ) B. .! @.o.B.B.B.B.2.w.9.s.A B -.B.m ,.! ",
"c B.B.B.B.B.B.g.n.` 2 T $. .B.( / B.B.B.B.B.B.m.u.5 j *.^ >.B.b ",
"B.B.B.:.7 B.B.B.*.^ B.$.P ! B.B.B.B.B.F _ B.B.B.^ *.B.Q m -.B.B.",
"B.B.B.;.4 B.B.B.$.T B.o.! B.B.B.B.B.B.C G B.B.B.T $.B.Y -.B.B.B.",
"N.B.B.B.B.B.B.B.B.B.#.~ B.o.( i.p.B.B.B.B.B.B.B.B.B.E =.B.T <.n.",
"q B.B.B.B.B.B.B.B.B.#.~ B.o.( L K B.B.B.B.B.B.B.B.B.E =.B.T <.0 ",
"T B.M B.B.B.B.B.B.B.B.B.B.B.B.X...(  .B.B.B.B.B.B.B.B.B.B.B.B.R ",
"B.B.R B.B.-.Y B.B.B.B.B.B.i.5.B.B...X.B.B.! o.B.B.B.B.B.B.b.k.B.",
"h B.> b B.>./ *.U B.B.B.B.y.i.7.0.Z 3 ( B. .*.T #.B.B.B.B.6.x.s ",
"4.B.8 ! -.m B.-.( B.B.B.B.B.B.t.r.J D @.W  .B.) =.B.B.B.B.B.B.3.",
"B.- B.>.x ( B.B.B.B.B.G 6 B.B.B.~ ~ B.W Y *.B.B.B.B.B., | B.B.B.",
"B./ B.1.( B.B.B.B.B.B.} H B.B.B.#.#.B.o.*.B.B.B.B.B.B.S ;.B.B.B.",
"B.B.>.= B.=.c y.d B.B.B.B.B.B.B.B.B.T ^ B.U  .f r.B.B.B.B.B.B.B.",
"B.B.1. .B.<.X.+.k B.B.B.B.B.B.B.B.B.$.*.B.#.-.l ] B.B.B.B.B.B.B.",
"B.B.B.B.B.B.B.,.$.X.m B.B.B.B.B.B.B.B.B.B.B.B.$.>.c #.B.B.B.B.B.",
"B.B.B.B.B.h.i B.B.>.$.B.B./ Y B.B.B.B.B.B.f 9.B.B.$.,.B.B.* >.B.",
"# B.B.B.B.v.h.t.p G   v B.>.-.W T B.B.B.B.f.k.g i.: O @.B.*.1.$ ",
"*.B.B.B.B.B.B.x.s.:.[ =.^ m B.>.>.B.B.B.B.B.B.s.c.| %.<.& *.B.*.",
"B.B.B.&.X B.B.B. .= B./ c ,.B.B.B.B.B.< 9 B.B.B.=  .B.& o.1.B.B.",
"B.B.B.1.&.B.B.B.1.>.B.1.,.B.B.B.B.B.B.;.:.B.B.B.>.1.B.>.1.B.@ >."
};
