/* XPM */
static char *player_f[] = {
/* columns rows colors chars-per-pixel */
"32 32 127 2 ",
"   c black",
".  c #F11C05",
"X  c #FF6C02",
"o  c #7FC27D",
"O  c #FFDD0B",
"+  c #83C26F",
"@  c #85C271",
"#  c #7CC28B",
"$  c #78C299",
"%  c #73C1A2",
"&  c #75C1A3",
"*  c #76C2A4",
"=  c #78C2A5",
"-  c #79C3A6",
";  c #7BC3A7",
":  c #7DC4A9",
">  c #7EC4A9",
",  c #7FC5AA",
"<  c #8AC580",
"1  c #8BC581",
"2  c #8BC686",
"3  c #8EC78A",
"4  c #8FC78D",
"5  c #8FC78F",
"6  c #90C890",
"7  c #92C996",
"8  c #93C99B",
"9  c #93CA9D",
"0  c #94CA9E",
"q  c #91DB93",
"w  c #90DC90",
"e  c #ACEE8F",
"r  c #AFF584",
"t  c #AEF388",
"y  c #ADF08B",
"u  c #B0F880",
"i  c #A0E396",
"p  c #AAEA95",
"a  c #AAEA96",
"s  c #A9E79A",
"d  c #A9E69C",
"f  c #A8E49F",
"g  c #A9E899",
"h  c #AAE998",
"j  c #83C6A4",
"k  c #88CEA2",
"l  c #8ACEA4",
"z  c #80C5AB",
"x  c #81C5AB",
"c  c #82C6AC",
"v  c #83C6AC",
"b  c #83C6AD",
"n  c #84C6AD",
"m  c #85C7AE",
"M  c #86C7AF",
"N  c #87C7AF",
"B  c #97CBA7",
"V  c #99CCAB",
"C  c #89C8B1",
"Z  c #8AC8B1",
"A  c #8BC9B2",
"S  c #8CC9B2",
"D  c #8CC9B3",
"F  c #8DC9B3",
"G  c #8ECAB4",
"H  c #8FCAB4",
"J  c #90CAB5",
"K  c #91CBB6",
"L  c #92CBB7",
"P  c #93CBB7",
"I  c #9BCDB1",
"U  c #9BCEB4",
"Y  c #98CFB6",
"T  c #9BCEB6",
"R  c #9CCEB4",
"E  c #9CCEB6",
"W  c #9DCEB7",
"Q  c #94CCB8",
"!  c #95CCB9",
"~  c #96CCB9",
"^  c #97CDBA",
"/  c #9ACEB8",
"(  c #9ACFB8",
")  c #98CDBA",
"_  c #98CDBB",
"`  c #99CDBB",
"'  c #9ACEBA",
"]  c #9ECFBA",
"[  c #9ACEBC",
"{  c #9BCEBD",
"}  c #9CCEBD",
"|  c #9ECFBC",
" . c #9FCFBD",
".. c #9DCFBE",
"X. c #9ECFBE",
"o. c #9ECFBF",
"O. c #9FCFBF",
"+. c #A6DFA7",
"@. c #A5DEA9",
"#. c #A6DFA8",
"$. c #A5DDAB",
"%. c #A4DBAE",
"&. c #A4DAAF",
"*. c #A0D4B5",
"=. c #A3D7B4",
"-. c #A2D6B5",
";. c #A2D5B7",
":. c #A3D8B2",
">. c #A1D3BA",
",. c #A1D2BB",
"<. c #A1D3BB",
"1. c #A1D4B8",
"2. c #A1D4B9",
"3. c #A2D5B8",
"4. c #A0D1BD",
"5. c #A0D2BC",
"6. c #A1D2BC",
"7. c #A0D0BE",
"8. c #A0D1BE",
"9. c #A0D0BF",
"0. c #A7E3A0",
"q. c #A7E2A2",
"w. c #A7E1A4",
"e. c #A8E4A0",
"r. c #A0D0C0",
"t. c #A5DDE8",
"y. c white",
/* pixels */
"r.r.r.r.r.r.r.r.r.r.r.r.r.r.r.r.r.r.r.r.r.r.r.r.r.r.r.r.r.r.r.r.",
"u r.r.r.r.r.r.r.r.r.K , r.G m w.e.r.r.r.r.r.r.r.r.r.- ^ r.* ..r ",
"% r...r.r.r.r.r.r.r.r.r.r.r.r.S C o.o.r.r.r.r.r.r.r.r.r.r.r.r.& ",
"r.r.& r.r.O...r.r.r.r.r.r.7.4.r.r.C S r.r.X.O.r.r.r.r.r.r.5.9.r.",
"3.r.U [ r.[ : o.{ r.r.r.r.$.0.5.6.] / ..r.m L { o.r.r.r.r.e 5.1.",
"t r.+ = O.[ r.) z r.r.r.r.r.r.+.w.7 # F } ..r.v ! r.r.r.r.r.r.y ",
"r.^ r.O.P : r.r.r.r.r.] R r.r.r.{ { r.[ n K r.  r.r.r.I  .r.r.r.",
"r.- r...: r.r.r.r.r.r.B 5           r.Z K r.  .   r.r.< E r.r.r.",
"r.r.O.Q r.o.~ 4.=.r.r.r.  X X X X X   [ r._   . .   r.r.r.r.r.r.",
"r.r...> r.{ c *.i r.r.  X X X X X X X   r.C   . .   r.r.r.r.r.r.",
"r.r.r.r.r.r.r.` N } !   X X X X X X X   r.  . . .     r.r.r.r.r.",
"r.r.r.r.r.4.&.r.r.^   X X X X X X X X X     . . O .   r.r.L O.r.",
"G r.r.r.r.<.f ,.%.W   y.  X X X X X   y.    . O O .   } r.m X.H ",
"c r.r.r.r.r.r.1.q.I       X X X X X       r.  O     j [ J ..r.b ",
"r.r.r. .8 r.r.r.[ J   t.  X X X X X   t.  r.  X   [ r.G m } r.r.",
"r.r.r.| 6 r.r.r.`     X X X X X X X X X     X X   ` r.Z } r.r.r.",
"e.r.r.r.r.r.r.r.  X X   X X X X X X X   X X     r.r.D { r.A o.q.",
"w r.r.r.r.r.r.  X X X X   X X X X X   X X X X   r.r.D { r.A o.q ",
"A r.M r.r.r.r.  X X   X X           X X   X X   r.r.r.r.r.r.r.S ",
"r.r.S r.r.} Z r.      X O O O O O O O X       r.r.r.r.r.r.0.4.r.",
"h r.2 b r...K [ C   X X O O O O O O O X X   [ A _ r.r.r.r.$.7.s ",
"#.r.9 H } m r.} L   X X X O O O O O X X X   r.P { r.r.r.r.r.r.@.",
"r., r...x L r.r.r.r.  X X X O O O X X X   [ r.r.r.r.r.3 W r.r.r.",
"r.K r.O.L r.r.r.r.  X X X X       X X X X   r.r.r.r.r.B | r.r.r.",
"r.r...> r.{ c ;.d   y.  y.  r.r.r.  y.  y.  Q f =.r.r.r.r.r.r.r.",
"r.r.O.Q r.o.~ ( k r.      r.r.r.r.r.      _ } l Y r.r.r.r.r.r.r.",
"r.r.r.r.r.r.r.X.` ~ m r.r.r.r.r.r.r.r.r.r.r.r.` ..c _ r.r.r.r.r.",
"r.r.r.r.r.2.p r.r...` r.r.K Z r.r.r.r.r.r.f &.r.r.` X.r.r.: ..r.",
"* r.r.r.r.9.2.-.a V o v r...} F A r.r.r.r.<.4.g :.1 $ ) r.[ O.= ",
"[ r.r.r.r.r.r.7.>. .T { J m r.....r.r.r.r.r.r.>.8.W ' o.; [ r.[ ",
"r.r.r.] @ r.r.r.Q > r.K c X.r.r.r.r.r.4 0 r.r.r.> Q r.; ^ O.r.r.",
"r.r.r.O.] r.r.r.O...r.O.X.r.r.r.r.r.r.|  .r.r.r...O.r...O.r.& .."
};
