/* XPM */
static char *player_l[] = {
/* columns rows colors chars-per-pixel */
"32 32 125 2 ",
"   c black",
".  c #F11505",
"X  c #FF6C02",
"o  c #7FC27D",
"O  c #FFDD0B",
"+  c #83C26F",
"@  c #85C271",
"#  c #7CC28B",
"$  c #78C299",
"%  c #73C1A2",
"&  c #75C1A3",
"*  c #76C2A4",
"=  c #78C2A5",
"-  c #79C3A6",
";  c #7BC3A7",
":  c #7DC4A9",
">  c #7EC4A9",
",  c #7FC5AA",
"<  c #8AC580",
"1  c #8BC581",
"2  c #8BC686",
"3  c #8EC78A",
"4  c #8FC78D",
"5  c #90C890",
"6  c #92C996",
"7  c #93C99B",
"8  c #93CA9D",
"9  c #94CA9E",
"0  c #91DB93",
"q  c #90DC90",
"w  c #ACEE8F",
"e  c #AFF584",
"r  c #AEF388",
"t  c #ADF08B",
"y  c #B0F880",
"u  c #AAEA95",
"i  c #AAEA96",
"p  c #A9E79A",
"a  c #A9E69C",
"s  c #A8E49F",
"d  c #A9E899",
"f  c #AAE998",
"g  c #83C6A4",
"h  c #88CEA2",
"j  c #8ACEA4",
"k  c #80C5AB",
"l  c #81C5AB",
"z  c #82C6AC",
"x  c #83C6AC",
"c  c #83C6AD",
"v  c #84C6AD",
"b  c #85C7AE",
"n  c #86C7AF",
"m  c #8FCAAF",
"M  c #95CAA1",
"N  c #97CBA7",
"B  c #98CCA8",
"V  c #99CCAB",
"C  c #99CCAD",
"Z  c #89C8B1",
"A  c #8AC8B1",
"S  c #8BC9B2",
"D  c #8CC9B2",
"F  c #8CC9B3",
"G  c #8DC9B3",
"H  c #8ECAB4",
"J  c #8FCAB4",
"K  c #90CAB5",
"L  c #91CBB6",
"P  c #92CBB7",
"I  c #93CBB7",
"U  c #9ACDB0",
"Y  c #9BCDB1",
"T  c #9BCEB4",
"R  c #98CFB6",
"E  c #9BCEB6",
"W  c #9CCEB4",
"Q  c #9CCEB6",
"!  c #9DCEB7",
"~  c #94CCB8",
"^  c #95CCB9",
"/  c #96CCB9",
"(  c #97CDBA",
")  c #9ACEB8",
"_  c #9ACFB8",
"`  c #98CDBA",
"'  c #98CDBB",
"]  c #99CDBB",
"[  c #9ACEBA",
"{  c #9ECFBA",
"}  c #9ACEBC",
"|  c #9BCEBD",
" . c #9CCEBD",
".. c #9ECFBC",
"X. c #9FCFBD",
"o. c #9DCFBE",
"O. c #9ECFBE",
"+. c #9ECFBF",
"@. c #9FCFBF",
"#. c #A6DFA7",
"$. c #A5DEA9",
"%. c #A6DFA8",
"&. c #A5DDAB",
"*. c #A4DAAF",
"=. c #A3D7B4",
"-. c #A2D6B5",
";. c #A2D5B7",
":. c #A3D8B2",
">. c #A1D3BA",
",. c #A1D3BB",
"<. c #A1D4B8",
"1. c #A1D4B9",
"2. c #A2D5B8",
"3. c #A0D1BD",
"4. c #A0D2BC",
"5. c #A1D2BC",
"6. c #A0D0BE",
"7. c #A0D1BE",
"8. c #A0D0BF",
"9. c #A7E3A0",
"0. c #A7E2A2",
"q. c #A7E1A4",
"w. c #A8E4A0",
"e. c #A0D0C0",
"r. c white",
/* pixels */
"e.e.e.e.e.e.e.e.e.e.e.e.e.e.e.e.e.e.e.e.e.e.e.e.e.e.e.e.e.e.e.e.",
"y e.e.e.e.e.e.e.e.e.L , e.H b q.w.e.e.e.e.e.e.e.e.e.- ( e.* o.e ",
"% e.o.e.e.e.e.e.e.e.e.e.e.e.e.D Z +.+.e.e.e.e.e.e.e.e.e.e.e.e.& ",
"e.e.& e.e.@.o.e.e.e.e.e.e.6.3.e.e.Z D e.e.O.@.e.e.e.e.e.e.4.8.e.",
"2.e.T } e.} : +.| e.e.e.e.&.9.4.5.{ ) o.e.b P | +.e.e.e.e.w 4.<.",
"r e.+ = @.} e.` k e.e.e.e.e.e.#.q.6 # G  .o.e.x ^ e.e.e.e.e.e.t ",
"e.( e.@.I : e.e.e.e.e.{ W e.e.e.| | e.} v L e.e.e.e.e.Y X.e.e.e.",
"e.- e.o.: e.e.e.e.        e.e.e.F F e.A L e.  e.e.e.e.< Q e.e.e.",
"e.e.@.~ e.+./ 3.  X X X X   e.e.e.e.] } e.  .   5.e.e.e.e.e.e.e.",
"e.e.o.> e.| z   X X X X X X   e.e.e.S K e.  . .   e.e.e.e.e.e.e.",
"e.e.e.e.e.e.e.  X X X X X X   e.e.e.e.e.e.  . .   ~ o.e.e.e.e.e.",
"e.e.e.e.e.3.  X X X X X X X X   e.e.e.e.  . . . .   ] e.e.P @.e.",
"H e.e.e.e.  X X X X r.  X X X   ( e.e.e.  . . O .   m  .e.b O.J ",
"z e.e.e.e.  X X X X     X X X X   e.e.e.  . O O .   g } K o.e.c ",
"e.e.e.X.7   X X X X     X X X X   e.e.B U   O     } e.H b  .e.e.",
"e.e.e...5 e.  X X X X X X X X X X   e.M V   X   S ] e.A  .e.e.e.",
"w.e.e.e.e.e.e.    X X X X X X X X X   e.  X X   e.e.F | e.S +.0.",
"q e.e.e.e.e.e.e.e.      X X   X X X     X X   e.e.e.F | e.S +.0 ",
"S e.n e.e.e.e.e.e.e.  O O   X X X X X   X X   e.e.e.e.e.e.e.e.D ",
"e.e.D e.e. .A e.e.e.  O O O     X X X   X   ( e.e.e.e.e.e.9.3.e.",
"f e.2 c e.o.L } Z   r.  O O O X X X X     ~ } S ' e.e.e.e.&.6.p ",
"%.e.8 J  .b e. .P e.      O O X X X     G ~ e.I | e.e.e.e.e.e.$.",
"e., e.o.l P e.e.e.e.e.V 6       X     G A } e.e.e.e.e.3 ! e.e.e.",
"e.L e.@.P e.e.e.e.e.e.Q C e.  r.X r.  ( } e.e.e.e.e.e.N ..e.e.e.",
"e.e.o.> e.| z ;.a e.e.e.e.e.e.        K e.Z ~ s =.e.e.e.e.e.e.e.",
"e.e.@.~ e.+./ _ h e.e.e.e.e.e.e.e.e.] } e.'  .j R e.e.e.e.e.e.e.",
"e.e.e.e.e.e.e.O.] / b e.e.e.e.e.e.e.e.e.e.e.e.] o.z ' e.e.e.e.e.",
"e.e.e.e.e.1.u e.e.o.] e.e.L A e.e.e.e.e.e.s *.e.e.] O.e.e.: o.e.",
"* e.e.e.e.8.1.-.i V o x e.o. .G S e.e.e.e.,.3.d :.1 $ ` e.} @.= ",
"} e.e.e.e.e.e.6.>.X.E | K b e.o.o.e.e.e.e.e.e.>.7.! [ +.; } e.} ",
"e.e.e.{ @ e.e.e.~ > e.L z O.e.e.e.e.e.4 9 e.e.e.> ~ e.; ( @.e.e.",
"e.e.e.@.{ e.e.e.@.o.e.@.O.e.e.e.e.e.e...X.e.e.e.o.@.e.o.@.e.& o."
};
