/* XPM */
static char *wall[] = {
/* columns rows colors chars-per-pixel */
"32 32 115 2 ",
"   c #2E2C1A",
".  c #2D3114",
"X  c #4B3C3B",
"o  c #1F5A1F",
"O  c #284202",
"+  c #284907",
"@  c #2B4508",
"#  c #284C0A",
"$  c #304B09",
"%  c #29520E",
"&  c #35510E",
"*  c #2B4116",
"=  c #224F12",
"-  c #284F10",
";  c #2C431B",
":  c #295511",
">  c #295B15",
",  c #205318",
"<  c #255E1B",
"1  c #295E18",
"2  c #365510",
"3  c #385611",
"4  c #355B16",
"5  c #3B5B16",
"6  c #3E5E18",
"7  c #24601E",
"8  c #28631C",
"9  c #34631B",
"0  c #3E4024",
"q  c #325E28",
"w  c #3E4D31",
"e  c #1C6E32",
"r  c #1E7132",
"t  c #1D773B",
"y  c #216525",
"u  c #296921",
"i  c #206828",
"p  c #326D24",
"a  c #346029",
"s  c #347127",
"d  c #357328",
"f  c #3B762B",
"g  c #3E782D",
"h  c #257739",
"j  c #307732",
"k  c #41631C",
"l  c #4F403F",
"z  c #466A21",
"x  c #496E25",
"c  c #4B7226",
"v  c #4B742A",
"b  c #527A2D",
"n  c #447D31",
"m  c #547D31",
"M  c #504040",
"N  c #437148",
"B  c #448435",
"V  c #498034",
"C  c #4A8638",
"Z  c #4D8B3B",
"A  c #598635",
"S  c #5A8837",
"D  c #518639",
"F  c #5C873A",
"G  c #528C3C",
"H  c #5B8D3E",
"J  c #608D3F",
"K  c #5C8F40",
"L  c #569542",
"P  c #5D9242",
"I  c #5B9945",
"U  c #628F41",
"Y  c #639444",
"T  c #639946",
"R  c #639E49",
"E  c #699948",
"W  c #62A04A",
"Q  c #6EA24D",
"!  c #6AAA51",
"~  c #65A55E",
"^  c #71A550",
"/  c #73AC54",
"(  c #71B056",
")  c #76B359",
"_  c #7BB65B",
"`  c #7DB95E",
"'  c #85C465",
"]  c #88C868",
"[  c #85C271",
"{  c #75C1A3",
"}  c #79C3A6",
"|  c #7EC4A9",
" . c #8BC686",
".. c #8FC78C",
"X. c #93CA9E",
"o. c #91DC92",
"O. c #ACEE8F",
"+. c #AFF584",
"@. c #AEF28A",
"#. c #B0F880",
"$. c #A9E69C",
"%. c #AAE998",
"&. c #83C6AD",
"*. c #97CBA7",
"=. c #8DCAB3",
"-. c #92CBB7",
";. c #9CCEB5",
":. c #96CDB9",
">. c #9DCFBE",
",. c #A5DEA9",
"<. c #A3D6B6",
"1. c #A0D2BC",
"2. c #A7E2A2",
"3. c #A8E4A0",
"4. c #A0D0C0",
/* pixels */
"4.4.4.4.4.4.4.4.4.4.4.4.4.4.4.4.4.4.4.4.4.4.4.4.4.4.4.4.4.4.4.4.",
"#.4.4.4.4.4.4.4.4.4.-.| 4.=.&.2.2.4.4.4.4.4.4.4.4.4.} :.4.} >.+.",
"{ 4.4.4.4.4.4.4.4.4.-.| 4.=.L H u H 4.4.4.4.4.4.4.4.} :.4.{ >.{ ",
">.4.>.4.4.4.4.4.4.4.4.4.4.p ( ( L ) u 4.4.4.4.4.4.4.4.4.4.4.4.4.",
"<.4.{ 4.4.4.>.4.4.4.4.4.r ( r a q H ( r 4.>.>.4.4.4.4.4.4.1.4.<.",
"@.4.4.4.4.4.4.4.4.4.4.g r ( H a q K ( r t 4.4.4.4.4.4.4.4.4.4.@.",
"4.4.4.4.4.4.4.4.4.r u u u ) ' E 7 ' _ u p u t 4.4.4.{ :.4.{ 4.4.",
"4.4.>.4.4.4.4.4.~ I G V V Y I c A I ! V B D I ~ 4.4.4.4.4.4.4.4.",
"4.4.{ 4.>.>.>.>.L ] ' C 8 P s ` E u Y u B ' ] I t 4.4.4.4.>.>.4.",
"4.4.;.:.>.>.&.f s C ! Z T v f T A f c R C ! Z s g h 4.4.4.O.1.4.",
"4.4.[ { >.>.T ` ) T f I ' ] k > > 9 ] ' W d I ( ` T j 4.4.4.4.4.",
"4.:.4.4.-.3 Y ^ ' L I ] ' W d ' ] E s ' ' W Z ' / Y 6 ;.>.4.4.4.",
"=.} 4.>.v ^ 6 & v B V V s n L ] ] I n u p v V v 2 6 F v ;.4.4.-.",
"&.4.4.O u p 1 6 Q ' G V Y d 8 s d 8 s Y D G ' ^ k > p p @ 1.4.&.",
"4.4.>.f E F 2 E ] _ m Q ] 5 s Q ^ s & ' ^ b _ ] Q 3 m E n 4.4.4.",
"4.4.# E Y 5 > 9 z 2 F ] S J _ ] ] ` T b ' Y & z 6 > 4 J T # 4.4.",
"3.4.1.+ $ E G u u 8 % O 1 + / ] ] _ O 8 O - 8 u u C E & O -.4.2.",
"o.1.k J $ T n n n p 1 f p u % A J % 8 u g 1 9 B n n Y $ U z N o.",
"-.@ T s . 5 P E b x H Y P p # 1 8 + s H Y H x v E Y k O 9 T . =.",
"4.1.: + J 8 + + O k J E g + 8 s f 8 + d E Y k + # # 1 K % = >.<.",
"%.4.4.@ Y B u 1 + . & 9 : > V T E V > % k & O + 8 8 B J $ 1.4.$.",
"2.4.4.4.O + > O % u 8 # > + O Y E O O 1 # u 8 : O > # . 1.=.>.,.",
"4.4.4.4.4.o : > u 8 : 8 > O 8 > % u O > 8 : 8 u d 2 , >.>.=.4.4.",
"4.>.=.4.1.<.# 8 > : 8 8 # 8 8 8 8 8 1 + 8 8 : : > + 4.4.4.4.4.4.",
"4.4.=.4.4.>.< + O O % 1 # 8 8 8 8 8 8 = 8 > O O + 8 4.4.4.2.1.4.",
"4.4. .&.4.>.i + O O O . # % 7 + 0 8 % ; % + . O + y 4.4.4.,.4.4.",
"4.4.X.=.<.&.> . O O O .   l M M M M X   + O O O O > >.1.4.4.4.4.",
"4.| 4.>.| =.y + O . O O . w w M M w w * O O O . O y 1...;.4.4.4.",
"{ -.4.4.-.4.4.r 8 # O % L ( P a a L ! W : O # > e 4.4.*.>.4.4.} ",
">.4.>.} 4.>.| <.$.r u d u / ] E 8 ] _ u p p h $.<.4.4.4.4.4.4.:.",
"4.4.4.1.[ 4.4.4.-.| 4.-.&.>.4.4.4.4.4...X.4.4.4.&.-.4.} -.4.4.4.",
"4.4.4.>.>.4.4.4.4.>.4.4.>.4.4.4.4.4.4.>.>.4.4.>.>.>.4.4.4.4.{ 4."
};
