/* XPM */
static char *close_exit[] = {
/* columns rows colors chars-per-pixel */
"50 50 176 2 ",
"   c #0C0202",
".  c #090A09",
"X  c #130404",
"o  c #0F1111",
"O  c #131212",
"+  c #1D1B1B",
"@  c #2D0202",
"#  c #330203",
"$  c #380504",
"%  c #241A14",
"&  c #241C1A",
"*  c #1F2F27",
"=  c #222826",
"-  c #2B2D2D",
";  c #3C2D2A",
":  c #233C2D",
">  c #223A36",
",  c #293833",
"<  c #373636",
"1  c #363939",
"2  c #393939",
"3  c #410202",
"4  c #4C0102",
"5  c #4A0908",
"6  c #550202",
"7  c #5D0000",
"8  c #541B1B",
"9  c #6B0404",
"0  c #720000",
"q  c #7A0000",
"w  c #750909",
"e  c #6D1919",
"r  c #472D2A",
"t  c #533B3B",
"y  c #2D4239",
"u  c #31423C",
"i  c #36483C",
"p  c #314641",
"a  c #3A4441",
"s  c #454746",
"d  c #4F5955",
"f  c #555454",
"g  c #585A57",
"h  c #795858",
"j  c #4B6E62",
"k  c #576B64",
"l  c #4C7669",
"z  c #507266",
"x  c #56756C",
"c  c #5B776E",
"v  c #597B6F",
"b  c #5B7B71",
"n  c #6D6C6C",
"m  c #716E6F",
"M  c #757373",
"N  c #7A7474",
"B  c #7A7B7B",
"V  c #810101",
"C  c #890303",
"Z  c #930505",
"A  c #9C0505",
"S  c #A40606",
"D  c #AD0505",
"F  c #B30606",
"G  c #BA0202",
"H  c #A41616",
"J  c #C30404",
"K  c #CB0404",
"L  c #D10101",
"P  c #DD0404",
"I  c #D50F0F",
"U  c #E30404",
"Y  c #EB0303",
"T  c #EA0C0C",
"R  c #FA0303",
"E  c #EF1010",
"W  c #DF2222",
"Q  c #EC2C2C",
"!  c #F42828",
"~  c #EB3939",
"^  c #F03030",
"/  c #807F7F",
"(  c #EC4444",
")  c #F14343",
"_  c #ED5C5C",
"`  c #F36C6C",
"'  c #F17979",
"]  c #568171",
"[  c #638964",
"{  c #628076",
"}  c #61847A",
"|  c #678F78",
" . c #728F85",
".. c #739489",
"X. c #75A191",
"o. c #7BA395",
"O. c #7FC49F",
"+. c #7CC3A7",
"@. c #7CC3A8",
"#. c #828282",
"$. c #878989",
"%. c #888B8B",
"&. c #9B9A99",
"*. c #84BC8F",
"=. c #85B997",
"-. c #84B9A6",
";. c #89BCA9",
":. c #92BEAF",
">. c #92BEB0",
",. c #A5A4A4",
"<. c #ACAAAA",
"1. c #B5B5B5",
"2. c #BEBDBD",
"3. c #F58C8C",
"4. c #F79A9A",
"5. c #F9BEBE",
"6. c #84C48B",
"7. c #8EC78C",
"8. c #8DC79C",
"9. c #86C998",
"0. c #92C995",
"q. c #94CA9C",
"w. c #8FDA94",
"e. c #9DE197",
"r. c #A8EF88",
"t. c #ABF189",
"y. c #ACED90",
"u. c #A6E39E",
"i. c #A9E79B",
"p. c #89C6A6",
"a. c #84C6AE",
"s. c #8CCBAA",
"d. c #95CBA4",
"f. c #98CCA7",
"g. c #93CCAB",
"h. c #99CCAB",
"j. c #94D4A5",
"k. c #96D4AA",
"l. c #9CD3AB",
"z. c #9ED9A9",
"x. c #8CC6B1",
"c. c #8DC9B3",
"v. c #95C3B3",
"b. c #92CBB6",
"n. c #9CCEB4",
"m. c #95CCB9",
"M. c #9CCEBD",
"N. c #9CD1B4",
"B. c #95D0BB",
"V. c #9FD0BE",
"C. c #A4DFA6",
"Z. c #A0D5AD",
"A. c #A4DCAB",
"S. c #A2D6B5",
"D. c #A3D9B2",
"F. c #A1D2BD",
"G. c #A6E1A4",
"H. c #A8E3A4",
"J. c #A6E0A9",
"K. c #A8E0B4",
"L. c #9FCFC0",
"P. c #9FD0C0",
"I. c #A0CFC1",
"U. c #BFC2C2",
"Y. c #A0D0C0",
"T. c #A5D9C7",
"R. c #A8DCC4",
"E. c #A7D9C9",
"W. c #C9C7C7",
"Q. c #D4D4D4",
"!. c #DFDFDF",
"~. c #FACDCD",
"^. c #E4E4E4",
"/. c #EEEEEE",
"(. c #F3F3F3",
"). c #FEFDFD",
/* pixels */
"Y.I.P.P.P.P.Y.Y.I.Y.I.Y.Y.V.Y.Y.Y.L.Y.P.F.P.Y.Y.P.Y.Y.Y.Y.Y.Y.Y.Y.Y.V.Y.Y.F.Y.Y.Y.Y.Y.V.P.P.Y.Y.Y.I.",
"H.D.P.P.P.P.Y.Y.L.F.Y.Y.I.Y.Y.L.M.b.m.M.M.m.m.N.D.D.S.P.P.Y.P.Y.Y.I.Y.I.I.I.Y.Y.M.c.M.V.L.b.c.V.D.H.",
"t.u.V.P.P.Y.Y.P.I.Y.Y.P.Y.F.I.M.m.a.c.V.m.c.c.k.C.H.D.P.Y.Y.Y.Y.V.Y.Y.Y.I.V.Y.Y.b.a.c.M.M.c.a.M.G.r.",
"9.j.V.V.P.Y.Y.Y.Y.Y.Y.Y.Y.Y.I.M.M.m.M.Y.M.M.M.b.k.s.m.V.L.L.Y.I.Y.Y.Y.Y.Y.Y.I.Y.M.m.M.I.V.M.m.V.g.9.",
"a.b.M.b.m.P.Y.P.L.L.Y.Y.Y.Y.Y.Y.Y.Y.Y.Y.Y.Y.I.M.b.b.b.m.m.M.M.Y.L.P.L.Y.I.Y.Y.Y.P.Y.Y.Y.I.Y.Y.Y.B.@.",
"M.Y.M.a.a.V.Y.Y.L.M.M.P.Y.V.Y.Y.Y.Y.Y.Y.F.F.F.F.L.I.m.c.c.m.Y.Y.L.L.M.L.M.Y.P.P.Y.Y.Y.Y.F.F.F.M.V.V.",
"F.Y.M.b.b.M.P.P.M.c.c.M.L.M.Y.Y.Y.Y.Y.Y.S.D.A.S.I.F.M.m.b.M.M.Y.M.c.b.m.M.Y.L.P.I.F.L.I.F.A.H.S.V.V.",
"A.D.M.f.d.b.M.P.M.c.c.m.M.m.L.Y.Y.Y.Y.Y.S.A.A.A.S.S.S.h.g.g.M.I.M.c.b.m.b.M.M.P.Y.Y.I.I.Y.A.H.S.D.J.",
"y.H.N.7.O.O.b.V.M.M.M.M.c.c.m.Y.Y.I.Y.F.Y.Y.Y.D.A.C.Z.0.6.9.c.M.M.M.L.M.c.c.M.M.I.V.I.V.I.F.F.F.H.y.",
"H.D.M.d.d.c.b.b.x.m.Y.M.m.m.M.Y.I.F.M.V.F.Y.Y.Y.S.D.N.g.g.g.m.c.c.m.M.L.b.m.M.L.I.F.V.V.V.I.I.I.D.A.",
"L.M.b.M.Y.P.b.c.a.m.Y.Y.Y.Y.Y.Y.F.M.h.h.N.Y.P.Y.I.M.m.M.L.L.m.x.c.b.M.Y.Y.Y.Y.P.I.F.h.h.M.V.F.I.P.P.",
"P.c.a.m.P.M.x.a.M.M.Y.Y.Y.Y.Y.Y.V.n.d.q.n.Y.Y.Y.M.b.c.b.L.M.c.c.m.M.Y.M.Y.Y.Y.Y.I.V.0.0.n.V.Y.I.P.P.",
"P.m.c.M.L.M.b.b.M.L.M.P.F.F.Y.Y.V.n.h.h.V.P.P.P.P.L.m.m.M.M.b.m.M.M.L.M.F.F.F.I.I.V.f.f.M.V.F.I.P.P.",
"Y.Y.Y.L.m.b.M.P.M.M.m.V.S.D.Y.Y.V.V.I.I.P.P.P.P.P.Y.Y.P.m.m.m.L.L.m.M.M.D.S.F.F.F.I.I.F.Y.Y.I.V.Y.Y.",
"Y.Y.Y.L.m.a.m.Y.M.c.c.N.A.u.N.I.F.I.I.I.P.L.P.P.P.T.T.P.B.c.b.L.M.c.b.N.C.Z.S.V.I.I.I.I.Y.Y.Y.Y.Y.Y.",
"Y.Y.Y.L.m.c.M.P.M.b.b.N.k.j.N.L.V.V.Y.T.T.;. .x b b b ] ;.P.P.L.M.b.m.N.j.j.n.M.V.V.I.I.I.Y.Y.P.P.Y.",
"I.I.F.I.I.V.F.I.I.F.V.M.b.c.m.M.m.M.M.:.v. .& X X X   &  .v.>.m.F.F.I.V.g.b.m.m.m.M.P.P.P.P.L.P.Y.Y.",
"F.I.I.I.I.I.I.I.F.S.S.V.M.M.m.m.b.T.o.p > r Z C 0 0 w 9 ; > p o.T.S.F.V.M.M.M.c.v.M.P.P.L.M.M.M.I.Y.",
"M.V.I.I.I.F.I.F.F.D.A.F.V.F.N.m.p.X.g 5 $ w E I G D D A 4 @ $ g =.f.D.F.F.F.M.g.s.m.M.P.P.b.b.M.M.M.",
"v.m.F.I.I.I.V.F.F.A.C.F.S.A.N.N.=.y 4 L P W _ ~ P F S S A A Z $ i q.K.D.D.S.S.h.f.b.m.L.L.b.c.M.m.b.",
"a.c.Y.Y.F.I.I.V.F.S.S.S.D.H.N.l.*.: 4 P ! ` 5.3.~ I L K D D A # y g.R.S.A.D.S.q.8.a.b.M.M.b.m.M.b.a.",
"c.m.Y.Y.V.V.V.V.V.Y.Y.F.N.A.N.=.[ r 0 P ^ ' ~.4.) E Y U F S A 4 ;  .v.F.A.A.N.d.d.s.b.m.c.m.L.Y.b.c.",
"M.M.Y.Y.V.V.h.h.M.Y.Y.Y.V.N.B.] % Z P Y T Q ` ( T U Y P F S S A 9 & } T.F.M.m.m.m.M.b.c.x.b.M.I.L.M.",
"Y.Y.Y.P.V.M.q.q.F.Y.Y.Y.P.m.m.l X F R Y Y T ! H 7 9 Z J D S S F q X b Y.Y.m.c.m.M.I.b.x.b.M.L.Y.Y.I.",
"F.F.P.Y.Y.M.f.d.V.I.F.I.V.M.N.l X V L Y Y U J e - - 8 C A S S Z 7   b Y.Y.m.b.m.M.M.b.b.M.L.M.P.F.F.",
"H.D.Y.Y.P.M.F.n.I.I.I.I.V.V.Y.b   X 9 P R G 3 N Q.Q.N # V D A 4   . b T.Y.P.V.Y.m.b.m.M.L.m.b.L.S.H.",
"e.A.V.Y.Y.I.Y.Y.I.F.I.I.I.Y.T.c o d h w q 6 X %.).).%.X $ 6 6 t 1 o b P.Y.Y.Y.Y.m.c.m.L.L.b.c.M.z.e.",
"w.k.V.P.V.I.F.I.I.I.F.I.I.Y.Y.b - ,.,.- + + + $.^.^. .O O O + M M = b T.Y.Y.Y.Y.M.b.m.P.M.m.b.M.k.w.",
"s.m.M.b.m.M.I.Y.I.I.I.I.V.I.I.:...d n 1.W.U.2.M 2 r g / / #.B s a ..v.P.Y.Y.Y.Y.L.L.M.P.I.L.M.Y.m.s.",
"b.M.L.c.b.I.Y.I.M.M.M.M.I.I.V.E.m., s !.).).).,.f f / 1.1.2.<.< , v.T.V.Y.Y.I.Y.L.L.P.P.Y.S.S.Y.M.m.",
"V.V.M.b.b.M.Y.V.M.b.b.M.I.V.I.T.>.u 2 &.Q.(.(.(.(./.W.<.,.,.&.< y -.B.M.M.Y.P.Y.Y.I.P.L.Y.A.C.F.V.N.",
"H.D.M.q.8.c.M.Y.M.m.b.M.m.b.L.I.M.o.k 2 2 m U.Q.Q.Q.W.,.f - < k X.v.m.m.m.m.M.L.Y.Y.Y.Y.Y.A.A.F.D.J.",
"i.A.N.q.9.a.M.M.M.b.M.M.c.c.M.I.I.E.=.2 - a n N M N B n i * 1 X.P.m.B.m.c.m.M.L.P.P.I.I.Y.S.S.F.A.i.",
"H.D.V.d.d.c.b.m.c.m.V.M.m.m.M.I.I.I.>.>.v...= o O O o = | p.;.x.b.B.P.P.m.m.M.L.P.P.F.M.Y.F.Y.Y.D.A.",
"S.N.c.n.M.m.c.c.c.M.M.I.M.M.I.Y.V.n.n.l.Y.v.{ c x z j v ;.V.B.c.c.m.V.P.M.M.P.P.Y.F.h.f.M.I.Y.Y.F.S.",
"P.m.a.m.P.L.c.x.b.M.Y.I.I.Y.Y.Y.F.n.d.q.m.Y.Y.Y.Y.B.b.B.P.M.c.c.c.M.L.P.Y.Y.P.Y.Y.M.q.q.n.V.Y.Y.I.I.",
"P.m.b.M.P.L.b.b.M.L.P.F.Y.Y.Y.Y.V.V.h.h.M.Y.Y.Y.Y.V.m.M.P.V.m.m.M.P.P.P.P.P.Y.Y.I.F.h.h.V.V.F.V.Y.F.",
"P.L.M.M.M.c.m.M.M.m.m.V.D.D.F.Y.I.V.V.n.N.Y.Y.Y.V.V.M.M.m.m.m.M.M.m.m.N.D.S.F.P.I.I.n.n.V.V.F.I.Y.I.",
"Y.Y.P.L.b.a.m.P.M.c.s.N.A.C.S.I.Y.Y.Y.I.I.Y.Y.Y.P.P.P.V.c.c.m.M.M.c.c.N.C.z.S.P.I.I.I.I.I.I.I.I.Y.Y.",
"Y.Y.Y.L.m.b.M.L.L.m.m.m.k.k.N.I.Y.Y.Y.Y.Y.Y.Y.I.P.P.Y.P.m.m.M.L.L.m.m.M.j.k.N.P.I.I.I.F.I.I.F.I.Y.Y.",
"F.I.I.F.V.M.V.Y.L.L.M.M.b.s.M.m.m.M.Y.Y.Y.Y.P.P.Y.V.Y.I.M.V.V.V.L.L.M.M.s.b.M.b.M.M.I.Y.Y.Y.Y.Y.Y.I.",
"I.I.I.I.I.F.I.Y.F.V.F.M.M.M.m.b.a.M.Y.Y.I.L.L.L.I.Y.Y.Y.V.I.I.Y.P.F.F.P.M.M.M.x.x.M.V.Y.Y.M.V.Y.Y.Y.",
"Y.Y.I.I.I.I.Y.Y.F.A.J.V.L.L.M.M.m.L.Y.F.M.b.b.M.Y.Y.I.I.I.Y.Y.I.S.A.A.S.V.L.M.m.M.M.I.Y.I.c.c.M.Y.Y.",
"b.M.F.I.I.V.Y.Y.S.A.H.S.S.S.N.g.d.b.M.M.M.b.c.m.M.M.M.F.Y.I.Y.I.S.A.D.D.D.S.S.h.d.c.M.M.Y.c.c.M.m.b.",
"+.x.V.Y.I.I.Y.Y.F.F.S.S.A.H.l.q.O.9.x.M.M.M.M.m.b.c.M.M.I.I.I.I.Y.F.F.D.G.A.Z.0.6.O.b.M.M.M.M.M.c.+.",
"c.m.Y.Y.I.I.Y.Y.I.I.F.F.D.A.N.f.d.g.b.m.b.b.M.M.b.m.M.I.F.I.Y.Y.Y.Y.Y.F.A.D.S.f.d.s.M.m.c.b.M.L.m.c.",
"M.M.Y.Y.Y.F.h.n.V.I.V.F.F.M.M.m.M.M.m.c.c.c.M.Y.M.L.V.I.I.V.n.n.M.F.Y.Y.F.M.M.m.M.M.m.c.a.b.L.Y.Y.M.",
"Y.I.Y.Y.Y.n.7.7.V.I.V.V.M.b.a.c.M.m.c.x.b.M.I.Y.I.F.I.V.I.h.0.q.h.V.Y.Y.M.b.a.c.M.M.c.a.b.M.M.L.Y.M.",
"Y.Y.Y.Y.V.M.d.d.V.F.V.I.V.m.v.m.I.M.m.b.M.I.Y.Y.Y.I.F.Y.Y.n.f.h.n.V.I.I.Y.m.b.m.V.I.b.b.M.I.m.x.m.I.",
"Y.Y.Y.Y.I.V.V.V.F.V.I.F.I.I.V.V.I.I.V.M.I.V.F.I.I.I.I.I.Y.I.V.V.V.F.I.I.F.I.M.I.V.I.M.I.V.I.m.+.c.M."
};
