/* XPM */
static char *collect[] = {
/* columns rows colors chars-per-pixel */
"50 50 197 2 ",
"   c #3F7957",
".  c #545B5E",
"X  c #466F46",
"o  c #457A44",
"O  c #497C4C",
"+  c #4F5D60",
"@  c #515561",
"#  c #5A557E",
"$  c #486B79",
"%  c #4E7071",
"&  c #657C7B",
"*  c #3C9139",
"=  c #418B3F",
"-  c #3F9240",
";  c #488447",
":  c #449548",
">  c #50994D",
",  c #468354",
"<  c #568555",
"1  c #4B9855",
"2  c #5B9758",
"3  c #45A747",
"4  c #4AB546",
"5  c #4DB44A",
"6  c #51BA4F",
"7  c #5CA85B",
"8  c #57B655",
"9  c #4A8264",
"0  c #5B8C64",
"q  c #5C9263",
"w  c #61866A",
"e  c #6F966F",
"r  c #6B9A77",
"t  c #67B26D",
"y  c #74A77C",
"u  c #5AC556",
"i  c #5CD058",
"p  c #62C75F",
"a  c #68C865",
"s  c #6DD468",
"d  c #6EE867",
"f  c #485F86",
"g  c #575783",
"h  c #54528B",
"j  c #5B5696",
"k  c #55569B",
"l  c #615B86",
"z  c #64599C",
"x  c #4C6786",
"c  c #59758B",
"v  c #656988",
"b  c #696F9C",
"n  c #6D789B",
"m  c #707598",
"M  c #534EAB",
"N  c #4E54A0",
"B  c #5352A6",
"V  c #5958A7",
"C  c #5552AB",
"Z  c #5A53AB",
"A  c #5A5BAB",
"S  c #594EB5",
"D  c #5753B1",
"F  c #5C54B5",
"G  c #5C56B9",
"H  c #5F58BD",
"J  c #6558A8",
"K  c #6557B2",
"L  c #6B5ABC",
"P  c #5A64A6",
"I  c #5D60B2",
"U  c #616CA5",
"Y  c #6573AA",
"T  c #6877AB",
"R  c #7271A8",
"E  c #6666B5",
"W  c #7260BE",
"Q  c #6D76B3",
"!  c #6758C3",
"~  c #6559C5",
"^  c #675AC8",
"/  c #6C5CCC",
"(  c #725DC5",
")  c #715CCD",
"_  c #6F5ED1",
"`  c #725ED3",
"'  c #795FD7",
"]  c #755ED8",
"[  c #6D69C3",
"{  c #7361CD",
"}  c #7362D4",
"|  c #7862D3",
" . c #7664DA",
".. c #7A63DD",
"X. c #7D64E2",
"o. c #856DDE",
"O. c #8163E3",
"+. c #816AE5",
"@. c #8465E9",
"#. c #846BEB",
"$. c #8770EB",
"%. c #8A73EE",
"&. c #937BE8",
"*. c #8A6BF1",
"=. c #8C72F4",
"-. c #8F74F8",
";. c #9176F4",
":. c #937BF3",
">. c #9277FB",
",. c #947BFE",
"<. c #987FFF",
"1. c #78979A",
"2. c #79919F",
"3. c #78A889",
"4. c #7EAC93",
"5. c #6D87AD",
"6. c #6D8AAD",
"7. c #7193AE",
"8. c #7896AB",
"9. c #7999AF",
"0. c #768EB2",
"q. c #7780BA",
"w. c #7995B3",
"e. c #7C96B3",
"r. c #7FC49F",
"t. c #7CC3A7",
"y. c #7CC3A8",
"u. c #819B98",
"i. c #819FB6",
"p. c #87ADA7",
"a. c #8BB8A7",
"s. c #88ABB5",
"d. c #8ABBB5",
"f. c #8EB4B8",
"g. c #95BEB5",
"h. c #93BDBB",
"j. c #83C48A",
"k. c #8EC78C",
"l. c #93D08E",
"z. c #8DC79C",
"x. c #87CA98",
"c. c #92C995",
"v. c #93CA9C",
"b. c #8FDA94",
"n. c #90D996",
"m. c #9DE197",
"M. c #A8EF88",
"N. c #ABF189",
"B. c #A8E699",
"V. c #A9E79B",
"C. c #84C6AE",
"Z. c #89C5A8",
"A. c #8CCBAA",
"S. c #94CBA4",
"D. c #99CBA6",
"F. c #98C7AE",
"G. c #93CCAB",
"H. c #99CCAC",
"J. c #93D4A5",
"K. c #9FD9A6",
"L. c #96D4AA",
"P. c #9BD5AB",
"I. c #87C0B2",
"U. c #88C4B1",
"Y. c #8CC9B3",
"T. c #92CBB6",
"R. c #9BCEB4",
"E. c #96C2BB",
"W. c #95CCB9",
"Q. c #9CCEBD",
"!. c #9BD1B5",
"~. c #95D0B8",
"^. c #9FD0BE",
"/. c #A5DFA6",
"(. c #A0D5AA",
"). c #A5DDAB",
"_. c #A2D5B5",
"`. c #A4D9B2",
"'. c #A1D2BD",
"]. c #A5D9BA",
"[. c #A6E1A4",
"{. c #A8E3A4",
"}. c #A7E0AC",
"|. c #A7E0B1",
" X c #9884EF",
".X c #9B82FE",
"XX c #9F88FD",
"oX c #A48DFF",
"OX c #AB95FD",
"+X c #AA94FE",
"@X c #B39FFF",
"#X c #B9A5FF",
"$X c #BBA8FF",
"%X c #9FCFC0",
"&X c #9FD0C0",
"*X c #A0CFC1",
"=X c #A0D0C0",
/* pixels */
"=X*X&X&X&X&X&X&X=X&X=X=X=X&X=X=X=X&X&X&X=X=X=X&X=X&X=X=X=X=X=X&X&X=X=X&X=X=X=X=X=X=X=X=X&X=X=X&X&X&X",
"{.`.&X&X&X&X&X&X=X=X=X=X=X=X&XQ.Q.T.W.&XQ.W.W.!.`.`._.=X=X=X=X=X=X=X=X=X=X=X=X=XQ.Y.Q.Q.&XW.T.^.`.[.",
"N.B.^.&X&X=X&X&X&X=X&X&X=X=X=XQ.T.C.Y.&XQ.Y.Y.L.[.[.!.'.&X=X=X=X=X=X=X=X=X=X=X=XY.C.Y.Q.Q.C.C.Q.[.M.",
"x.J.&X&X&X=X&X&X=X=X&X&X=X=X=X&X&XW.Q.&XQ.Q.~.T.G.L.~.^.&X&X&X=X=X&X=X=X&X=X=X=X^.W.Q.&X&XQ.W.Q.G.x.",
"C.Y.^.T.W.&X&X&X&X&X&X&X=X=X=X=X&X&X=X=X=X=X=XQ.T.T.T.W.W.Q.&X&X&X&X&X=X=X=X=X=X=X=X=X=X=X=X=X=X~.y.",
"^.^.Q.C.C.&X=X&X&XQ.%X&X=X&X=X&X&X&X=X=X=X'.'.^.*XQ.W.Y.Y.W.&X=X&X%X%XQ.&X&X=X=X=X=X=X=X=X'.'.=X&X^.",
"'.=X^.T.T.&X=X&X%XY.Y.%X&X%X&X=X=X&X=X=X_.).)._.=X=XR.Q.T.Q.^.=XQ.Y.Y.Q.%X%X&X&X=X=X=X=X=X[.[._.&X^.",
").`.^.S.G.Y.&X&XW.Y.Y.W.Q.T.&X=X=X=X=X=X_.`.}.)._._._.H.G.T.W.&XQ.Y.T.W.T.W.Q.&X=X=X=X&X=X}.[._.`.}.",
"N.{.R.k.r.r.G.Q.Q.Q.Q.Q.Y.U.Q.=X^.^.^.^.=X'.].].).{.K.z.j.x.Y.W.%XQ.&XW.Y.Y.W.&X*X*X^.*X=X=X'.=X[.N.",
"}.`.Q.S.G.Y.W.T.U.Q.Q.Q.Q.W.R.=X*X^.'.'.^.*X*X=X_._.P.R.G.F.E.T.Y.W.Q.&XW.W.Q.&X*X^.'.^.'.&X=X=X`.}.",
"&XQ.T.^.&X%XT.Y.C.W.=X=X*X=X=X^.*X'.R.H.'.*X=X=X^.Q.W.W.&X&XW.Y.Y.T.Q.=X=X=X=X&X*X^.H.H.Q.^.=X=X%X%X",
"&XY.C.W.&X%XY.C.Q.Q.=X=X*X'.*X^.^.H.S.v.H.*X=X=X^.T.Y.T.%XW.Y.Y.T.Q.&X^.=X=X=X=X^.'.c.c.R.^.=X=X&X%X",
"&XW.Y.Q.&XQ.T.T.Q.%XQ.^.'.R.3.3.j.j.y e r 4.R.*X=X~.W.W.%XW.W.W.Q.Q.Q.^.'.'.'.=X*X^.D.D.R.=X=X=X&X&X",
"=X=X&X&XW.T.Q.=X%XW.W.^.].v.< = < 2 q O ; q a.R.=X=X=X&XW.W.^.&X^.W.Q.Q._._.'.*X*X*X*X^.&X=X=X=X=X&X",
"=X=X=X&XT.C.W.=XQ.Y.Y.!.).l.<   > 8 p s s t q u.=X=X=X=XT.Y.T.&XQ.T.T.!././._.'.*X=X*X*X=X=X&X&X=X&X",
"=X=X&X&XW.Y.Q.=XQ.W.T.!.P.v.y r t 7 8 p s a ; w u.p.9.s.1.1.9.E.'.~.T.W.J.J.!.Q.^.^.*X^.=X=X&X&X=X=X",
"=X=X=X=X=X=X=X=X=X=XR.Q.T.Y.W.Q.F.0 X o 8 p : X . g z R l g V i.Q.E.*XQ.T.T.W.W.W.Q.%X%X&X&X&X%X=X*X",
"=X=X=X=X=X=X=X=X=X_._.^.Q.Q.Q.~.Z.& @ + , - : ; O $ E o.) J h b Y T s.'.Q.Q.Q.Y.T.Q.%X*X&XQ.Q.%X*X*X",
"Q.Q.=X=X=X=X=X=X'.`.).'.'.'.'.d.9.R v % 1 4 u 4 3 9 Q ;.*.( k M S Z Q f.R.].Q.G.Y.W.Q.*X=XT.T.Q.Q.Q.",
"Y.W.=X=X=X=X=X=X_.)./.'._.).R.9.A ..q.2 i d d i 6 : c O.X.) G ) ` L J Y F.].'.H.G.G.Q.Q.%XY.Y.Q.Q.Y.",
"C.T.^.=X=X=X=X=X=X_._._.`.(.8.P B ] Q 1 6 i i u 5 - % / ] X.] X...` K b D.|._.v.z.Z.T.Q.Q.T.W.^.T.C.",
"Y.W.&X=X=X=XQ.R.=X=X=X'.H.p.U M G / I % - 3 3 1 1 - x ~ @.;.;.#.X.] K m D.).!.S.S.Z.T.T.Y.W.&X&XT.Y.",
"Q.%X=X=X=XQ.D.D.=X=X=X=X9.P K ) X._ G f   * - - $ N F {  X+X+X<.%. .K m g.'.T.W.W.Q.W.Y.U.T.&X&X%X%X",
"=X=X=X=X=XR.v.S.'.=X=X=X0.M ( o.#.} H N f x c U [  . ...:..XoX.X=.} z v g.^.Y.W.Q.'.T.Y.T.Q.&X=X&X%X",
"'.'.=X&X&XR.S.D.^.=X=X=Xw.C { +.X.X.^ G G I } %..X.X=.X.$.-..X,.=.} j v g.~.T.Q.%X%XT.T.Q.%XQ.&X'.'.",
"[.`.=X&X=X&X^.^.&X=X=X=X0.B z W X.#.X. ._  . XOX#XXX.X-.X.=.,.,.#.^ B U E.'.Q.*XW.T.T.Q.%XW.T.%X`.[.",
"m./.&X&X=X=X'.=X=X=X&X&X0.C J W  X.X.X%.X.%.XX$X$X+X.X,.X.X.X.X...^ S A 0.f.*X=XW.Y.W.&X&XT.Y.Q.P.m.",
"b.L.^.%XQ.*X=X=X=X=X=X&X0.C ( &.+XOXXX,.-.-..X@X$X+X.X,..XX._ _ _ ` ( K B w.*X=XW.T.W.%X&XT.T.Q.L.n.",
"A.~.Q.T.W.^.=X=X%X&X=X&X7.D  .,..X.X.X,.,.-..X.X.X.X.X>.X. .H ^ ] O.O.) D 0.=X=X%X%X%X&X*XQ.Q.=X~.A.",
"T.W.%XY.T.%X=X&X%XQ.^.&X0.D ..-.,.,.,.,.-.=.=.,..X,.>..XX.} G ~ ' O.O.( C 0.=X=X&X=X&X&X'.'._.=XQ.W.",
"'.=XQ.T.T.Q.=X%X%XY.T.%Xw.A _ X.>.,.,.>.X.X.X.=.-.>.>.X._ ^ ^ ^ ` O.( F C w.&X&X=X&X&X&X'.).)._.^.^.",
"{.`.Q.v.z.Y.Q.=X%XT.T.W.d.7.I _ #.-.=.#.} /  . . . ._ ^ _  . .} L z k P 7.d.%X&X=X&X&X&X%X).).'.`.[.",
"V.).^.c.x.Z.W.Q.Q.W.W.Q.~.I.5.E } | | / ^ ^ ` ' ` ` ! ~  .@.@.X.K h j 6.I.~.%X%X&X&X=X=X=X_._.'.).V.",
"}.`.^.S.S.Y.W.W.U.W.&XQ.W.T.%Xe.A j j C ! } $.@.O.' ` ` =.=.O.] ! C e.W.T.T.%X%X&X&X*X'.=X'.=X=X`.}.",
"_.~.Y.R.W.Q.T.Y.Y.W.=X=X%X%X=Xh.e.1.n B D ) =.*.@.X.` L ..X.` ~ E w.h.'.%X%X&X&X&X^.H.S.R.*X=X=X'._.",
"'.T.C.Q.*XQ.Y.C.T.^.=X=X%X*X*X*X'.!.p.Y V L ....' ) K Z ! ^ H I 5.Q.=X=X=X=X&X=X=X^.v.v.R.'.=X=X=X=X",
"'.W.T.Q.=X%XT.W.^.=X=X'.%X=X=X=X*X'.F.a.T M D V z # h M M M C e.E.%X^.=X=X=X&X=X*X^.H.H.Q.*X=X=X=X=X",
"=XQ.Q.Q.W.T.W.Q.Q.W.T.^.].`.'.%X'.^.'.R.s.0.0.8.2.1.2.0.6.5.7.h.&XT.W.^.`.`._.&X*X*XR.R.^.*X'.=X=X=X",
"=X=X=XQ.T.C.W.=XQ.Y.Y.!./.[._.*X*X*X*X*X^.^.=X=XR.^.*X^.T.Y.W.R.^.T.T.~./.).!.'.*X=X*X'.'.*X*X*X=X=X",
"=X=X=X*XQ.Y.Q.*X%XW.T.T.L.J.^.=X*X'.*X*X'.*X=X=X^.'.*X*X~.Q.W.'.Q.T.W.W.J.L.!.^.=X=X=X*X*X=X=X*X=X=X",
"*X*X*X*XQ.Q.^.=X%X%XQ.Q.T.G.~.Q.W.Q.=X=X=X=X=X=X'.=X=X*XQ.Q.^.*X%XQ.%XQ.A.T.Q.T.Q.Q.*X*X'.*X*X*X=X=X",
"*X'.*X*X=X*X*X=X'.^.'.^.^.T.W.T.U.Q.=X=X=X^.Q.%X*X=X=X=X=X=X*X=X=X'.^.^.Q.Q.Q.Y.Y.Q.^.*X*X^.^.*X=X=X",
"=X=X=X'.=X=X=X=X'.).).'.%XQ.Q.Q.W.Q.%X%XQ.T.T.Q.*X=X=X=X=X=X=X*X_.).`._.^.&X%XW.W.Q.^.*X%XT.T.R.=X=X",
"T.Q.=X=X=X=X=X=X_.).[._._.`.W.R.A.T.Q.%XQ.T.Y.W.Q.Q.Q.=X=X=X=X*X_.).).`.`._.R.H.G.T.W.^.%XY.Y.Q.W.T.",
"t.Y.Q.=X*X'.*X=X'.'._._.).V.P.z.j.x.Y.%XQ.Q.Q.W.Y.Y.W.=X=X'.*X*X=X_.=X_.{.}.(.l.j.t.Y.%X%XQ.Q.Q.Y.y.",
"Y.T.=X=X*X^.*X=X=X=X'.'.`.).R.H.S.Y.W.W.T.T.Q.Q.W.W.Q.=X=X*X*X=X=X=X=X'.`.`.'.D.G.A.Q.W.U.T.Q.&XT.Y.",
"Q.Q.=X=X*X^.H.R.Q.=X&X^.^.^.W.Q.R.%XW.Y.Y.Y.Q.=X%X^.Q.=X*X^.R.R.R.=X=X=X'.R.T.Q.R.R.W.Y.C.Y.&X&X^.Q.",
"=X=X=X=X^.'.k.k.^.=X&X^.Q.T.C.F.Q.Q.Y.C.T.Q.*X=X=X=X=X=X=XH.c.v.H.'.=X=X^.T.C.T.Q.%XY.C.T.Q.&X&X&X&X",
"=X=X=X=X=XR.D.D.^.=X=X=X%XQ.T.W.*XQ.W.W.Q.=X=X=X*X=X*X*X=XR.D.H.R.=X=X=X*XW.T.W.Q.^.T.T.Q.=XQ.U.T.&X",
"=X=X=X=X=X^.R.Q.=X=X=X=X*XQ.Q.%X=X%X^.Q.Q.*X*X=X*X'.'.*X=X*X^.^.'.=X=X=X=X%X%X%X*X=X%XQ.*X=XW.t.Y.^."
};
