/* XPM */
static char *enemy[] = {
/* columns rows colors chars-per-pixel */
"32 32 122 2 ",
"   c #181818",
".  c #212021",
"X  c #2C2B2C",
"o  c #68330E",
"O  c #BF1013",
"+  c #FF161A",
"@  c SaddleBrown",
"#  c #7FC27D",
"$  c #BFA100",
"%  c gold",
"&  c #83C26F",
"*  c #85C271",
"=  c SlateGray",
"-  c #78C299",
";  c #73C1A2",
":  c #75C1A3",
">  c #76C2A4",
",  c #78C2A5",
"<  c #79C3A6",
"1  c #7BC3A7",
"2  c #7DC4A9",
"3  c #7EC4A9",
"4  c #7FC5AA",
"5  c #8E8D8D",
"6  c #BEA289",
"7  c #BEBDBD",
"8  c #8AC580",
"9  c #8BC581",
"0  c #8BC686",
"q  c #8EC78A",
"w  c #8FC78D",
"e  c #91C893",
"r  c #93CA9D",
"t  c #94CA9E",
"y  c #91DB93",
"u  c #90DC90",
"i  c #ACEE8F",
"p  c #AFF584",
"a  c #AEF388",
"s  c #ADF08B",
"d  c #B0F880",
"f  c #AAEA95",
"g  c #AAEA96",
"h  c #A0E199",
"j  c #A9E79A",
"k  c #A8E49F",
"l  c #A9E899",
"z  c #AAE998",
"x  c #83C6A4",
"c  c #8ACEA4",
"v  c #81C5AB",
"b  c #82C6AC",
"n  c #83C6AC",
"m  c #83C6AD",
"M  c #85C7AE",
"N  c #86C7AF",
"B  c #87C7AF",
"V  c #8FCAAF",
"C  c #97CBA5",
"Z  c #97CBA7",
"A  c #99CCAB",
"S  c #89C8B1",
"D  c #8AC8B1",
"F  c #8BC9B2",
"G  c #8CC9B2",
"H  c #8ECAB4",
"J  c #8FCAB4",
"K  c #90CAB5",
"L  c #91CBB6",
"P  c #92CBB7",
"I  c #93CBB7",
"U  c #9BCDB1",
"Y  c #9BCEB4",
"T  c #98CFB6",
"R  c #9BCEB6",
"E  c #9CCEB6",
"W  c #9DCEB7",
"Q  c #94CCB8",
"!  c #95CCB9",
"~  c #97CDBA",
"^  c #98CDBA",
"/  c #98CDBB",
"(  c #99CDBB",
")  c #9ACEBA",
"_  c #9ECFBA",
"`  c #9ACEBC",
"'  c #9BCEBD",
"]  c #9CCEBD",
"[  c #9ECFBC",
"{  c #9FCFBD",
"}  c #9DCFBE",
"|  c #9ECFBE",
" . c #9ECFBF",
".. c #9FCFBF",
"X. c #A5DEA9",
"o. c #A6DFA8",
"O. c #A5DDAB",
"+. c #A4DAAF",
"@. c #A0D6B2",
"#. c #A3D7B4",
"$. c #A2D6B5",
"%. c #A2D6B6",
"&. c #A3D8B2",
"*. c #A1D3BA",
"=. c #A1D3BB",
"-. c #A1D4B8",
";. c #A1D4B9",
":. c #A2D5B8",
">. c #A0D1BD",
",. c #A0D2BC",
"<. c #A1D2BC",
"1. c #A0D0BE",
"2. c #A0D1BE",
"3. c #A0D0BF",
"4. c #A7E3A0",
"5. c #A7E2A2",
"6. c #A6E1A4",
"7. c #A7E1A4",
"8. c #A8E4A0",
"9. c #FED9B7",
"0. c #A0D0C0",
"q. c #FEFCFC",
/* pixels */
"0.0.0.0.0.0.0.0.0.0.0.0.0.0.0.0.0.0.0.0.0.0.0.0.0.0.0.0.0.0.0.0.",
"d 0.0.0.0.0.0.0.0.0.L 4 0.H M 7.8.0.0.0.0.0.0.0.0.0.< ~ 0.> } p ",
"; 0.} 0.0.0.0.0.X X 0.0.0.X 0.G S  . .0.0.0.0.0.0.0.0.0.0.0.0.: ",
"0.0.: 0.0.X . X q.q.X X X q.. X 0.S X X X X ..0.0.0.0.0.0.,.3.0.",
":.0.Y ` 0.X . X q.q.X X X q.. X <._ X X X X P '  .0.0.0.0.i ,.-.",
"a 0.& , ..X O + @ @ @ = = q.. X X X = = = X 0.n ! 0.0.0.0.0.0.s ",
"0.~ 0...I . O + @ @ $ = = q.  . 9.9.+ + + . 5 0.0.0.0.U { 0.0.0.",
"0.< 0.} 2 X O + @ @ % = = q.. X 9.9.+ + + X 7 0.0.0.0.8 E 0.0.0.",
"0.0...Q 0.X 6 9.@ @ % = = q.9.9.9.9.+ + + X 7 $.<.0.0.0.0.0.0.0.",
"0.0.} 3 0.X 6 9.@ @ % = = q.9.9.9.9.+ + + X 7 h @.0.0.0.0.0.0.0.",
"0.0.0.X X 9.. X @ @ @ = = q.q.q.X X 9.9.9.9.. X ~ Q } 0.0.0.0.0.",
"0.0.0.0.0.X q.q.X X q.q.q.q.. X q.q.X 9.9.X 7 0.0.B ( 0.0.P ..0.",
"H 0.0.0.0.X q.q.X X q.q.q.q.. X q.q.X 9.9.X 7 +.*.C V ] 0.M | J ",
"b 0.0.0.0.X q.q.= = q.q.q.q.= = q.q.q.9.9.X 7 6.%.e x ` K } 0.m ",
"0.0.0.. . 9.q.q.q.q.q.q.q.q.q.q.q.q.9.9.9.9.  . . . 0.H M ] 0.0.",
"0.0.0.X X 9.q.q.q.q.q.q.q.q.q.q.q.q.9.9.9.9.. X X X 0.D ] 0.0.0.",
"8.0.0.0.0.X . X q.q.X X X X q.q.X X 9.X X X o @ @ @ X ' 0.F  .5.",
"u 0.0.0.0.X . X q.q.X X X X q.q.X X 9.X X X o @ @ @ X ' 0.F  .y ",
"F 0.N 0.0.0.. X X X 9.9.9.9.. X X X X q.q.X o @ 9.9.X 0.0.0.0.G ",
"0.0.G 0.0.X 9.9.X X X X X X 7 q.9.9.X X X X . X 9.9.X 0.0.4.>.0.",
"z 0.0 m 0.X 9.9.X X X X X X 7 q.9.9.X X X X . X 9.9.X 0.0.O.1.j ",
"o.0.r J ] M . X X X 9.9.9.9.. X X X X X X 9.6 9.X X 0.0.0.0.0.X.",
"0.4 0.} v P 5 q.. . . q.q.q.5 q.q.q.o . . .   . 0.0.0.q W 0.0.0.",
"0.L 0...P 0.7 q.X X X q.q.q.5 q.q.q.@ X X X . X 0.0.0.Z [ 0.0.0.",
"0.0.} 3 0.' . X X X @ X X X o @ X X X X X S Q k #.0.0.0.0.0.0.0.",
"0.0...Q 0. .. X X X @ X X X o @ X X X X X / ] c T 0.0.0.0.0.0.0.",
"0.0.0.0.0.0.. X X X X X X 0.. X @ @ X 0.0.0.0.( } b / 0.0.0.0.0.",
"0.0.0.0.0.;.f 0.0.} ( 0.0.L . X X X X 0.0.k +.0.0.( | 0.0.2 } 0.",
"> 0.0.0.0.3.;.$.g A # n 0.} . X X X X 0.0.=.>.l &.9 - ^ 0.` .., ",
"` 0.0.0.0.0.0.1.*.{ R ' K M 0.} } 0.0.0.0.0.0.*.2.W )  .1 ` 0.` ",
"0.0.0._ * 0.0.0.Q 3 0.L b | 0.0.0.0.0.w t 0.0.0.3 Q 0.1 ~ ..0.0.",
"0.0.0..._ 0.0.0...} 0...| 0.0.0.0.0.0.[ { 0.0.0.} ..0.} ..0.: } "
};
