/* XPM */
static char *floor[] = {
/* columns rows colors chars-per-pixel */
"50 50 57 1 ",
"  c #7FC49F",
". c #7CC3A7",
"X c #81C386",
"o c #84C48B",
"O c #8EC78C",
"+ c #84C592",
"@ c #89C696",
"# c #81CF97",
"$ c #84C59D",
"% c #8DC79C",
"& c #8DC89C",
"* c #92C995",
"= c #93CA9C",
"- c #90D996",
"; c #9DE296",
": c #9DE099",
"> c #A9F184",
", c #ADF08D",
"< c #ACED90",
"1 c #A6E39E",
"2 c #A9E79B",
"3 c #84C6A0",
"4 c #8DC8A4",
"5 c #84C6AE",
"6 c #87C8AF",
"7 c #8DCAAB",
"8 c #95CBA4",
"9 c #98CCA7",
"0 c #93CCAB",
"q c #99CCAB",
"w c #94D4A5",
"e c #9FDCA2",
"r c #96D4AA",
"t c #9BD4AB",
"y c #9FD9AB",
"u c #88C7B0",
"i c #8DC9B3",
"p c #92CBB6",
"a c #9CCEB5",
"s c #95CCB9",
"d c #9CCEBD",
"f c #96D0B2",
"g c #9BD1B4",
"h c #9FD0BE",
"j c #A4DFA6",
"k c #A0D5AD",
"l c #A4DCAB",
"z c #A2D6B5",
"x c #A3D9B2",
"c c #A1D2BD",
"v c #A6E1A4",
"b c #A8E3A4",
"n c #A6E0A9",
"m c #9FCFC0",
"M c #9FD0C0",
"N c #A0CFC1",
"B c #A0D0C0",
/* pixels */
"BNBBBMBBBBBBBBMMMBBBMMMMMBMMMBBBBBBBBBBBBBBBMMMMMM",
"bxBMBBBBBBBMBBMMspsMMspgxxzMBBBMBBBMBBBBdisMMppMxn",
">1mMBBBBBMMMBBBdpuiMsiurnvxMBMBBMBBMBBBBp5phM55gv>",
"#wMmMBMBMMMMBBBMhshMMhsff7fMMMBBBBBMBMBBhpdMMmsh7#",
"5idppBBBMMMMBBMBMMBBBBBhpppsshMMMMMMBBMMMMBBBBcBp5",
"mMd56dBBmmdMBMBMMMBBcBchMBsiisMMMmmdMBMMMMBBBBhhMM",
"cBdppdBBdiidMMMMMMBBzlnxBBhssgMMmipsmMMMMMMBBnbxMh",
"nxd98pdMdiisdphBMMBBzxlxxxgq0psMsppspsdMMMBMBnbhxn",
",baO  pdddddiidBhhBhBccxlnk*+$idmdMsiisMBBBBBccBv<",
"nxd88ippisNdssdMNhhhhNBczxtp00piisdMsshMBBdaBmBBxl",
"MdpdBMpi6scNBBBBccqqaBBBMsssNdsiipdBMBBBBhqqaBBBMM",
"Mi5sMmuuddNNBBBBca8=aBBBmpppddiipdMMMBBBBh=*aBBBMM",
"MsidMdipddhhccBBhaqqaNNBddssdsssddmhcccBBh99aBBBMM",
"BBMMspmMddphzxcBhhNNcBBBNBBhdsddmssdzzccBBhNBBBBBM",
"BBBMpusMdiigjjgBNNNNBBBBBBBNpipddiifjeccNcBBBBBBBB",
"BBBMsidMdppdrwgMhhNhBBBBBBNmsssmmssgwtgddNBNBBBMBM",
"BBNcNcNhBcmapidasdhNmNmNNhBBNBBBBBBapppsddhBBMmMBB",
"BNNNNNNNczchdsdppdNhddddNNBBBBBBczccdddiidhBMdddBB",
"dhNNcNNhcxlcNcap7ahNdsssdddBBNBNclxccchp0pdBNppddd",
"idcNNNNhcljczlap8pshdppsddddBNcNcllxxxgq0pddmiidsp",
"6phNNNNNccxcxjg8%7pdssdsppdNBBBBcczzlxz=%3sdspsmp6",
"upcNhhcacBccxlt0%7pspsddspdNBhahhBBcllg847ppismmpi",
"dmNNhcqqhBcchgpsdssiismNmdcNNaqaahBBcdpsadsiipmmMd",
"NNcNhc==dBBBMsisNdpipdmNBBNBBa99aMBBBppsmNpipdmmMm",
"ccBBMa89MBBBMsisMsppdMmcBcBBBgqqgMMMBspssmppdMMMcc",
"bxBBBhhaMBBMMMhddspmdssgxxzBBBahMMMMBMMMspsmmpphxn",
";jdBBBBBBBBBBBBMspsMdppfzygBBBBBMMMMBBBBspsMMiiMy:",
"-rBmBBBBBBBBBBBMmppMmssftrgcBBBBMMMMBMBBspsMMpihr-",
"7pdpsmBBMMMMBBMMmmsMBmdgppsssdMMMMMMBBMMmmmMBhdMg7",
"pddipmBMMdsMBBBMmMMMBzchddspsdMMMsMMMMMMMMMMhczhsp",
"cBdppdBMmiiMBMMMMBMMzxlzccdppdMBmppmMMMMMMMMMlbcMh",
"bxh%&idBMppMspMBBBBBcxxxzxg947sMMpssssMMMMMMMllhxb",
"2lh=@6shspsdppmMNNNBczzzllk9&7psdsdsipmMMMBBBcxcl2",
"bxh88idsisMMspmMcNhhNBcczzzq00spisddpsdMMMhhBcBcxl",
"zgiqsspiisMMmdmMhaqqcNNchdpqpspiismmhdMcMhq9acBBcz",
"MpusMMuupMBMMMMMha98qNBBapppmdpipddNBBMBBM==ahBBBB",
"MsiMMMpsMMBhMMMMmaaqdBBBmsssMmssdmBBBBBBBhqqdhBBBB",
"MMhMsisMMpghxxhMchaahBBBMmddspssdssgxzcBBNaaNNBBBB",
"MBMMpusBsiugvvcMBBBBBBBBBBBhpipddipfjlgBNBBBBBBBBB",
"MBBMspsBMspsrwhBBBBBBBMBBBBMdsdmdssdwrgMBBBBBBBBBB",
"BBNcddBBMMggfigssdMBBBMBBBcNmdhNMddh7pdsddNNcNNBBB",
"BBNBBBBBMMhhMsspudBBMMmmBNNBNcNBhcccddduidhhNhhNBB",
"BBBBBBBBhnnhmhMspmBBdppsBBBBNNBNcllchddssddNNiidBB",
"pdBBBBBBhbvhzxhp8pdhdpppdddNNcBNznxxxzzq0pddciidsp",
".idMBBBBcczzl1t=X3pddddsiisBNcNBcccxblk*o pdmdddi.",
"ipMMBBBBBNccxlg94pssppddssdBNNNBBBccxxz987dsusddsi",
"dMBBBNqahBBhcadsadsiiidBBddBNhaaaBBBcadsddsi6pmNmd",
"MMBBBaO*aBNNdpuimsi6pdBBBBBBNq*=qhBBhi6idd66pddmBd",
"BBBBMd88hBBBddpsmdspdhNcBBBNNa9qaBBBBspsdBppdBdusd",
"BMBBMMacBBBBNhhdNNhdNNNNBNcNNchhBBBBBMdmBBmdNBs.im"
};
