/* XPM */
static char *open_exit[] = {
/* columns rows colors chars-per-pixel */
"50 50 186 2 ",
"   c #000000",
".  c #080606",
"X  c #0D0C0C",
"o  c #170909",
"O  c #141414",
"+  c #191718",
"@  c #1A1B1A",
"#  c #220F0F",
"$  c #390808",
"%  c #321112",
"&  c #16201C",
"*  c #242424",
"=  c #2F2626",
"-  c #262B29",
";  c #2C2B2B",
":  c #25342D",
">  c #283732",
",  c #2A3B35",
"<  c #333232",
"1  c #383837",
"2  c #353F3C",
"3  c #3C3939",
"4  c #440F0F",
"5  c #4E0A0A",
"6  c #5D0000",
"7  c #4B1615",
"8  c #521010",
"9  c #690202",
"0  c #620808",
"q  c #711111",
"w  c #4F2122",
"e  c #4E3E34",
"r  c #423D3C",
"t  c #543831",
"y  c #35413D",
"u  c #3A403E",
"i  c #374540",
"p  c #3D534C",
"a  c #434242",
"s  c #4B4545",
"d  c #454C4A",
"f  c #4B4C4B",
"g  c #524949",
"h  c #425650",
"j  c #465E57",
"k  c #565353",
"l  c #5B5454",
"z  c #5D5C5C",
"x  c #764646",
"c  c #6A5F54",
"v  c #625D5D",
"b  c #4A6159",
"n  c #605F60",
"m  c #576B64",
"M  c #546E65",
"N  c #537165",
"B  c #57736A",
"V  c #5C776F",
"C  c #5A796E",
"Z  c #666464",
"A  c #6D6666",
"S  c #6E6868",
"D  c #726B6B",
"F  c #747568",
"G  c #6E7170",
"H  c #757474",
"J  c #7A7576",
"K  c #747979",
"L  c #7B7979",
"P  c #8E0C0C",
"I  c #BF1715",
"U  c #83221F",
"Y  c #98201D",
"T  c #9B2522",
"R  c #AA2E2A",
"E  c #A53C37",
"W  c #C12E2B",
"Q  c #D73A36",
"!  c #9C443F",
"~  c #C5413B",
"^  c #8F514B",
"/  c #B3504A",
"(  c #866059",
")  c #9C786B",
"_  c #8E7979",
"`  c #9F7373",
"'  c #C6766D",
"]  c #63867A",
"[  c #8C8374",
"{  c #9A8776",
"}  c #A2836E",
"|  c #AD867B",
" . c #6B8B81",
".. c #659080",
"X. c #7AA797",
"o. c #7CC3A7",
"O. c #7CC3A8",
"+. c #858383",
"@. c #8A8687",
"#. c #878888",
"$. c #8D8A8A",
"%. c #928E8E",
"&. c #939392",
"*. c #989697",
"=. c #9D9B9B",
"-. c #A3978A",
";. c #BB978B",
":. c #A29E98",
">. c #B59E92",
",. c #83AA9D",
"<. c #84B096",
"1. c #84B4A3",
"2. c #88B4A3",
"3. c #89B9A8",
"4. c #8BBCAB",
"5. c #9CB4A3",
"6. c #91BDAE",
"7. c #9DBCAB",
"8. c #A4A2A2",
"9. c #A9A7A7",
"0. c #A6A8A8",
"q. c #ADABAB",
"w. c #B1AFAF",
"e. c #A9B9A7",
"r. c #B5B3B3",
"t. c #B8B6B6",
"y. c #BDBCBC",
"u. c #81C386",
"i. c #84C48B",
"p. c #8EC78C",
"a. c #8DC79C",
"s. c #86C998",
"d. c #92C995",
"f. c #93CA9C",
"g. c #8FDA94",
"h. c #9DE197",
"j. c #A8EF88",
"k. c #ABF189",
"l. c #ACED90",
"z. c #A6E39E",
"x. c #A9E79B",
"c. c #88C7A6",
"v. c #84C6AE",
"b. c #8CCBAA",
"n. c #94CBA4",
"m. c #98CCA7",
"M. c #96C6AA",
"N. c #93CCAB",
"B. c #99CCAC",
"V. c #94D4A5",
"C. c #9FD9A2",
"Z. c #96D3AA",
"A. c #9ED9A9",
"S. c #88C7B0",
"D. c #8CC9B3",
"F. c #93C3B2",
"G. c #9FC7B7",
"H. c #92CBB6",
"J. c #9BCEB4",
"K. c #95CCB9",
"L. c #9CCEBD",
"P. c #9BD1B5",
"I. c #95D3BD",
"U. c #9ED0BE",
"Y. c #A4DFA5",
"T. c #A0D5AD",
"R. c #A5DDAB",
"E. c #A2C7B7",
"W. c #A2D6B5",
"Q. c #A3D9B2",
"!. c #A1D2BD",
"~. c #A4D9BA",
"^. c #A6E1A4",
"/. c #A8E3A4",
"(. c #A6E0A9",
"). c #9FCFC0",
"_. c #97D3C1",
"`. c #9FD0C0",
"'. c #9AD8C4",
"]. c #A0CFC1",
"[. c #A0D0C0",
"{. c #A7DBC6",
"}. c #C5C4C5",
"|. c #CECDCD",
" X c #D7D6D6",
".X c #E4E4E4",
/* pixels */
"[.].`.`.`.[.[.[.[.[.[.].[.].[.[.[.[.[.[.).[.[.`.[.[.[.[.[.[.[.[.!.].].[.!.].!.].].[.[.[.`.[.[.`.].].",
"/.Q.`.`.[.[.[.`.].[.!.).[.[.[.L.L.H.K.).).K.K.P.W.Q.W.[.[.[.[.[.[.].].[.].].].[.L.D.L.L.U.K.H.L.Q./.",
"k.z.U.`.`.[.[.[.[.[.[.[.[.].].L.H.v.D.L.K.D.b.Z./.^.A.[.[.[.[.[.].].].[.[.].].[.H.v.D.L.U.S.v.L./.j.",
"s.V.U.U.L.].].!.].).!.[.[.!.].L.L.L.L.[.L.L.L.H.N.N.I.U.].L.[.`.!.[.[.[.].!.[.[.L.K.L.`.L.L.K.L.b.s.",
"v.H.L.H.K.).].].`.[.[.[.[.].[.].`.[.[.[.[.[.].L.H.H.H.K.K.L.].!.[.[.[.[.[.[.[.[.`.[.[.[.[.[.!.U.D.v.",
"L.[.L.v.v.!.[.].).).L.).].).!.[.[.[.[.[.!.!.!.!.).].K.D.D.K.).].).L.L.).[.).[.[.[.[.[.[.!.!.!.!.`.U.",
"!.[.L.H.H.L.[.!.L.D.S.L.).L.`.`.[.`.[.[.W.Q.R.W.].!.L.K.H.L.L.[.L.D.H.K.L.).).[.[.[.[.).!.R./.!.!.!.",
"(.W.L.m.n.H.L.).L.D.D.K.L.K.`.[.[.[.[.[.W.R.R.R.W.W.W.B.N.N.L.].L.D.H.K.K.K.L.`.[.].[.].[.R./.W.Q.R.",
"l./.J.p.u.O.K.L.L.L.).L.D.S.L.[.].].].[.[.!.U.Q.R.Y.Y.d.<.s.D.K.L.L.U.L.S.S.L.L.[.].!.!.[.!.!.[./.l.",
"/.Q.L.n.n.D.K.K.S.K.).L.K.K.U.[.].].!.J.U.[.`.{.W.W.P.N.N.N.K.D.D.K.L.).K.L.L.L.[.`.E.!.!.].].[.Q.R.",
"`.L.H.L.[.).K.S.v.K.[.[.[.[.[.[.!.J.J.B.P.[.[.[.[.U.K._.`.U.K.D.S.K.L.[.`.[.[.[.[.).B.B.J.].[.[.).`.",
"`.D.v.K.[.L.S.S.L.).[.[.[.[.[.[.!.J.f.f.J.[.[.[.!.H.D.K.L.U.D.D.K.L.`.`.`.[.[.[.[.L.a.d.J.].[.].[.`.",
"[.K.D.L.L.L.H.H.L.L.L.U.!.!.[.[.].J.J.Z.U.e.' ( j h c ) 7.'._.K.).L.).U.!.!.!.[.[.!.B.n.J.[.[.[.[.[.",
"[.[.[.].L.H.L.).).K.K.U.W.Q.[.[.].[.E.e.e.| I q * + 5 U { 5.5.G.`.K.K.U.W.W.!.[.[.[.[.].].).[.[.[.[.",
"[.[.[.).H.v.K.[.L.D.S.P.R.z.P.[.).`.>.Q W U 4 D }.&.g $ U R E =.'.D.D.P.C.Y.W.!.].].[.[.[.!.[.[.[.].",
"[.[.].`.K.D.L.).).K.H.P.Z.V.P.`.G.;./ P 9 8 r K &.H d = 5 6 0 ^ -.F.K.P.V.Z.P.L.L.!.].[.].[.[.[.[.`.",
"].[.!.].].!.].].[.[.J.L.H.D.I.'.7.~ P # X 1 &.z O X 3 v * . o 9 ! M.{.L.H.H.K.K.K.L.L.[.].].U.].].[.",
"[.].].].].].].!.!.!.W.!.L.K.L.I.3.t w D L #.9.&.S g l A g f s % e m.{.J.L.L.L.D.H.L.[.[.L.L.L.L.[.].",
"L.L.].].].!.].].!.Q.R.!.!.!.P.5.[ f z 0.t.w.q.w.q.$.J A D D A < e { e.~.!.!.U.H.D.K.L.[.].K.H.L.L.L.",
"D.L.!.].].].].!.W.R.Y.!.W.R.P.) T ` 0.q.q.q.q.q.q.0.$.D A S S Z x Y } Q.R.W.P.B.n.N.L.L.L.H.D.L.K.H.",
"v.H.).].].].].].[.W.W.W.Q.(.P.F 7 _ t.q.q.q.q.q.w.w.%.D A A A D g 4 J ~.R.Q.W.f.a.c.K.L.K.K.K.L.H.S.",
"b.H.[.].].].!.J.[.[.[.!.Q.R.P.N O J r.q.q.q.w.q.q.:.+.A A A S D f X V !.R.R.J.n.n.S.H.K.D.K.].].K.S.",
"L.).].[.].!.m.m.!.[.[.[.U.P.I.N + J w.q.q.q.q.w.:._ A A A D S D s X V {.[.P.H.K.L.L.K.D.S.H.L.!.).L.",
"[.].[.[.].J.f.n.L.[.[.[.L.K.D.X.B d S 0.t.9.$.@.+.S A A D D A r 1 m ,.[.].L.H.K.L.L.H.S.H.L.].].].].",
"!.!.[.`.[.L.m.n.L.[.[.[.L.L.H.U.F.p u +.%.@.D A A A D A v l k ; h F.{.].].K.H.K.).L.H.H.L.L.).).!.!.",
"/.Q.[.[.[.L.J.!.].).[.[.[.L.U.[.K.1.C * + < n D A S D n = . @ V 6.].].].].!.L.!.K.H.K.L.).K.H.L.W./.",
"h.A.!.[.[.].].[.].!.[.[.[.[.[.[.K.] M G ; X < 3 3 3 r < X @ f m  .).{.[.].].!.].K.D.K.`.).H.D.).A.h.",
"g.Z.!.).!.].!.[.[.[.[.).[.[.[.K.X.i Z }.l                 3 @.r 2 ,.L.[.].].].].K.H.K.).).H.H.L.Z.g.",
"b.H.).H.K.).].].`.`.[.`.[.[.'...i *.=.d +                 X < S S 2  .[.[.].].].).).).).].).).).K.b.",
"K.L.L.D.H.).].!.).L.L.).[.[.[.B @ q.0.O                     X +.+.O B '.[.[.[.!.).[.`.`.].W.W.!.L.K.",
"U.U.[.H.H.L.].].L.D.D.`.[.[.[.G * L J @                     O H H @ C `.`.!.`.].[.[.[.).!.R.Y.!.U.P.",
"/.Q.J.a.a.D.L.].).K.H.`.K.K.].3.] i Z =.a                 ; Z f p ] 1.K.K.K.L.).[.[.[.].[.R.R.!.Q.(.",
"x.R.U.f.s.c.K.).K.K.L.L.D.D.L.{.F., g  X&.f f 3 < < < < < S 8.1 > 4.'.L.D.H.L.).`.).].].[.W.W.!.R.x.",
"/.Q.P.n.n.H.K.K.S.K.].L.K.K.).{.M.y 1 9. X.X.Xy.=.=.=.=.*.8.=.< , 3.'.L.K.K.L.).[.[.L.!.].!.[.[.Q.Y.",
"Q.K.D.J.L.K.D.D.D.L.).L.L.L.).].E.] j a k #.|.|.t.t.y.0.Z 3 a b ..F.[.].).L.).).[.!.B.m.J.].[.[.!.W.",
"[.H.v.L.[.).D.S.K.L.].].].].].].{.~.] : @ 2 L #.+.+.@.L i & : ..I.L.!.].[.[.[.[.[.L.f.f.J.!.[.[.].].",
"[.K.H.L.).L.H.H.`.[.[.[.].!.[.[.!.!.6.<.2. .- O @ @ O ;  .2.1.F.L.).`.[.[.[.).[.].!.B.B.!.!.].].].].",
"[.).L.`.K.H.K.L.U.K.K.P.W.Q.!.[.].!.!.W.{.4.M b b b j N 2.'._.L.L.K.K.P.Q.~.W.!.].].J.J.].].!.].!.].",
"[.[.[.L.H.S.K.).L.D.S.P.R.Y.W.].[.!.[.].].].[.[.[.).].`.H.D.H.L.L.D.H.P.Y.T.W.U.].].].].].].].].[.[.",
"`.[.[.).L.D.L.).).K.H.J.Z.V.U.[.[.[.[.[.[.[.[.[.[.{.[.[.L.K.L.).L.K.K.K.V.Z.P.U.].].!.].].!.].].[.[.",
"!.].].!.L.L.!.[.).L.L.L.H.b.L.L.K.L.[.[.[.[.`.].].].[.].L.L.L.].).).).L.b.H.L.K.K.L.].].].].].].].[.",
"].].].].].].].[.[.U.U.U.P.L.K.D.S.L.[.[.[.L.).).[.!.[.[.[.[.[.[.L.!.!.[.L.L.L.D.D.L.!.].!.).L.!.[.[.",
"[.[.].].].!.[.[.W.R.(.U.].L.L.L.K.L.[.).L.H.H.L.[.[.[.[.[.[.[.].W.R.R.W.U.L.L.K.K.L.).].].D.D.L.].[.",
"H.L.!.].].].[.[.!.R./.W.W.Q.P.H.N.H.L.).L.H.D.K.L.L.L.[.[.[.[.].W.R.R.Q.W.W.P.B.m.H.K.].].H.S.L.K.H.",
"o.S.[.[.].].[.[.!.!.W.W.R.z.T.a.u.c.D.).L.L.L.K.D.D.K.].].!.].].[.!.!.W./.(.T.d.i.c.H.L.).L.L.L.D.O.",
"S.K.[.[.].].[.[.].].!.!.Q.R.!.B.n.N.H.H.D.H.L.L.K.K.L.!.].].].].[.[.!.!.Q.W.W.m.c.b.K.K.S.K.L.L.K.D.",
"L.L.[.[.].!.B.J.L.].].!.].J.J.J.L.L.K.D.S.H.).).].L.).].[.!.J.J.J.[.[.[.!.J.L.K.J.L.L.D.v.H.).[.).L.",
"[.[.[.[.].J.p.p.!.].].].L.H.v.D.L.K.D.S.H.).!.[.].].!.].].B.d.f.B.!.[.[.!.H.v.H.L.L.S.v.H.L.L.].).!.",
"[.[.[.[.].J.n.m.!.].].!.L.K.H.K.].L.K.H.K.].].].].!.].].].!.B.B.J.[.[.[.[.L.D.K.L.].H.H.L.].L.S.K.L.",
"[.[.[.[.].!.L.!.!.].].].].].L.].].!.].L.].].!.].].].].].!.!.L.E.].[.[.[.[.].L.!.].].).L.].].K.o.D.L."
};
