/* XPM */
static char *player_l[] = {
/* columns rows colors chars-per-pixel */
"50 50 206 2 ",
"   c #040301",
".  c #090705",
"X  c #120500",
"o  c #190B01",
"O  c #161504",
"+  c #151512",
"@  c #151814",
"#  c #151C1B",
"$  c #1A1E1D",
"%  c #280B00",
"&  c #320000",
"*  c #241001",
"=  c #2B1504",
"-  c #391901",
";  c #2A1B15",
":  c #1E221C",
">  c #362805",
",  c #272411",
"<  c #3B2816",
"1  c #151B20",
"2  c #1B2927",
"3  c #303025",
"4  c #323335",
"5  c #430200",
"6  c #471E01",
"7  c #7B0400",
"8  c #691611",
"9  c #542200",
"0  c #582100",
"q  c #4F3902",
"w  c #492916",
"e  c #652600",
"r  c #6F2D00",
"t  c #742D00",
"y  c #7B2E00",
"u  c #6D3A09",
"i  c #7B3102",
"p  c #6A3B17",
"a  c #793D14",
"s  c #462B25",
"d  c #4B3A26",
"f  c #642622",
"g  c #2D443F",
"h  c #33443D",
"j  c #6F440B",
"k  c #675802",
"l  c #5C4127",
"z  c #52532C",
"x  c #574734",
"c  c #634325",
"v  c #6D6539",
"b  c #314E43",
"n  c #36534A",
"m  c #3B5655",
"M  c #3F625B",
"N  c #4C574D",
"B  c #53544E",
"V  c #425C55",
"C  c #4F5B51",
"Z  c #49675A",
"A  c #53675E",
"S  c #4C6963",
"D  c #4F6D68",
"F  c #546E66",
"G  c #4A7264",
"H  c #56766A",
"J  c #5A7A73",
"K  c #666C6C",
"L  c #627B68",
"P  c #657873",
"I  c #717274",
"U  c #8A0600",
"Y  c #910700",
"T  c #9B1309",
"R  c #A61608",
"E  c #863600",
"W  c #8C3A01",
"Q  c #923D01",
"!  c #9C3E00",
"~  c #C70F02",
"^  c #D00F03",
"/  c #D71204",
"(  c #E61504",
")  c #F21305",
"_  c #F91405",
"`  c #F82D06",
"'  c #9B4301",
"]  c #984305",
"[  c #8D5105",
"{  c #A54502",
"}  c #AA4902",
"|  c #B34C02",
" . c #BC5202",
".. c #AC591B",
"X. c #9F6404",
"o. c #857502",
"O. c #82563B",
"+. c #C35201",
"@. c #CE5601",
"#. c #D45A01",
"$. c #DA5B01",
"%. c #F54A07",
"&. c #E35F01",
"*. c #FF5D07",
"=. c #DE6307",
"-. c #E56202",
";. c #EE6501",
":. c #EF6802",
">. c #F76502",
",. c #F66902",
"<. c #FF6D02",
"1. c #EF7203",
"2. c #FF7102",
"3. c #FF7908",
"4. c #C06B2E",
"5. c #82726A",
"6. c #5E837C",
"7. c #678678",
"8. c #928507",
"9. c #A68402",
"0. c #AB9408",
"q. c #B8A306",
"w. c #F58F07",
"e. c #C9B009",
"r. c #D8B709",
"t. c #FDA908",
"y. c #F7B609",
"u. c #FD8329",
"i. c #E8CD0A",
"p. c #F6DA0B",
"a. c #FDDC0B",
"s. c #FFE70C",
"d. c #FFF30C",
"f. c #F79951",
"g. c #FAA465",
"h. c #6B8C81",
"j. c #6C9286",
"k. c #719689",
"l. c #7D9F91",
"z. c #77A78D",
"x. c #74A294",
"c. c #7AA194",
"v. c #7AA799",
"b. c #7CB39F",
"n. c #7FC49F",
"m. c #7CC3A7",
"M. c #84B19C",
"N. c #84ADA0",
"B. c #83B4A4",
"V. c #8BB5A6",
"C. c #8CB6A8",
"Z. c #8DBDAC",
"A. c #90BDAD",
"S. c #91BFB0",
"D. c #A6A5A2",
"F. c #BFBEBD",
"G. c #83C48A",
"H. c #8EC78C",
"J. c #87C999",
"K. c #92C995",
"L. c #91C699",
"P. c #92C99B",
"I. c #90DA95",
"U. c #9DE197",
"Y. c #A8EF88",
"T. c #ABF189",
"R. c #A8E69A",
"E. c #85C5A7",
"W. c #84C6AE",
"Q. c #8AC4AC",
"!. c #8DCDAA",
"~. c #95CBA4",
"^. c #98CDA7",
"/. c #92CCAC",
"(. c #99CCAB",
"). c #96D4AA",
"_. c #9BD5A8",
"`. c #8DC4B0",
"'. c #8CC9B3",
"]. c #95C3B3",
"[. c #92CBB6",
"{. c #9BCEB5",
"}. c #99C7B8",
"|. c #95CCB9",
" X c #9CCEBD",
".X c #9CD1B5",
"XX c #94D0BA",
"oX c #9ED0BE",
"OX c #A5DFA6",
"+X c #A0D5AD",
"@X c #A5DDAB",
"#X c #A0CFBF",
"$X c #A2D6B5",
"%X c #A4D9B2",
"&X c #A1D2BD",
"*X c #A6E1A4",
"=X c #A8E2A5",
"-X c #E1C7B3",
";X c #9FCFC0",
":X c #9FD1C0",
">X c #A0CFC1",
",X c #A0D0C0",
"<X c #A6D8C6",
"1X c #A6D9C8",
"2X c #ABDECD",
"3X c #DFD2C8",
/* pixels */
",X>X:X,X,X,X,X:X>X>X>X&X>X>X,X,X,X,X,X>X,X,X,X,X:X,X:X:X,X:X,X,X&X>X>X,X#X,X,X>X,X,X,X>X;X,X,X,X,X,X",
"=X%X&X:X,X:X,X,X&X,X,X>X>X,X,X X X[.|. X X|.|..X%X%X$X:X,X,X;X,X>X,X>X,X,X#X,X>X|.[.|.#X:X[.'. X%X=X",
"T.R.oXoX,X,X&X:X,X#X>X,X&X,X>X X|.W.'.oX|.'.'.).OX*X.XoX,X,X,X,X>X>X,X>X&X>X,X>X[.W.[. X X'.W.|.*XY.",
"J.!.oXoX;X;X,X,X#X,X,X,X;X>X,X X X|. X,X:X X|.{./.)..XoX>X X,X>X&X>X,X,X>X>X>X&X X|. X&XoX X X X).J.",
"W.[. X[.[.,X,X>X;X:X;X>X,X,X:X,X,X,X,X,X>X&X>X|.|.[.|.}.|. X#X,X,X:X>X,X,X,X>X:X;X,X>X,X>X,X&X>X[.m.",
" X,X XW.W.:X,X#X;X X X:X,X;X,X:X,X,X;X,X#X&X&X&XoXoX|.'.'.|. X,X;X X X X X>X,X,X,X,X;X&X&X&X&XoX:XoX",
"&X,XoX[.[. X&X>X X'.'. X;X X:X:X,X>X>X>X$X%X@X$XoX&X X[.{. X#X,X X'.|.|. X>X:X;X;X,X>X>X&X@X=X$X:X&X",
"@X%X X~.~.[. X;X X'.'.|. X|.:X,X,X,X,X&X$X@X@X@X$X$X$X(./.[.|. X X'.[.|.|.|. X;X,X,X,X>X,X@X=X$X$X@X",
"T.=X.XH.n.n./. X X X X X'.`. X,X X&X,X&X&X&X&X%X@X=X_.K.G.J.[.|. X X:X|.'.'. X X#X#X#X#X>X&X&X&X=XT.",
"=X$X X~.~.[.[.[.`.|.,X X}.}.:X1X<X<X<X,X,X;X,X&X$X$X.X/././.|.[.'.|.:X<X|.|. X;X#X#X&X&X#X>X>X#X%X@X",
">X|.[. X,X>X|.'.W.|.,X,X>X#XN.c.c.c.l.z.].,X,X>XoX|.|. X;X;X|.`.`.|.B.N. X,X:X>X#X#X(.(. X#X,X,X,X;X",
",X[.W.|.,X XW.W. X;X,X,X<XV.b + $ $ + 2 h.<X,X>XoX[.'.|. X;X'.'. X XV h C.<X,X:X#X&XK.K.{.#X>X>X>X;X",
",X|.'. X#X X[.[. X XoX1Xx.Z p y y y y i x h.|.<X;X|.|.|.|.|.|.;XN.F f 8 C c.<X,X#X#X^.^. X#X#X>X,X,X",
">X,X,X,X|.[. X>X;X|.'.B.C 6 @.2.<.<.<.,.t 4 c.}.,X,X,X:X X|.XX:Xk.@ Y ~ 5 C V. X#X#X#X#X&X,X#X&X,X>X",
",X,X,X X|.W.|.,X XXXx.g u @.,.<.<.<.<.<.&.] 3 7.,X,X:X;X[.'.|.<Xj.@ Y ( ~ 8 h N.<X>X#X>X,X>X>X,X,X:X",
",X>X>X#X|.'. X>X;X:Xx.# i 2.<.<.<.<.<.<.2. .* D <X<X;X:X|.|.|.1Xk.+ U _ _ 7 $ v.1X&X#X#X>X>X&X,X>X,X",
",X#X#X,X,X;X;X;X;X;Xk.: E <.<.<.<.<.<.<.2.+.- S ].;X X>X,X#X X}.7.; Y _ ) U : j.|.oX:X:X,X>X#X,X>X>X",
",X,X,X#X,X,X>X<X:XJ d { &.<.<.<.<.<.<.<.<.;. .p m C.<X,X,X<X}.F s R / ) ) ^ T s J |.:X:X,X|.|.#X,X>X",
" X X,X,X,X;X,XS.h.x t -.<.<.<.u.f...+.>.<.<.<.r 2 N.<X,X:X:X].b 5 ( _ ( %.` / & n [.:X:X;X|.|. X X X",
"'.|.#X,X,X,X<Xk.$ W ,.<.<.<.<.g.3XB 0 ;.<.<.<.t : c. X;X:X1X].4 5 / _ %.y.2.^ & b Q.oX:X;X'.'. X|.[.",
"W.[.:X,X#X#X<Xk.@ W <.<.<.<.<.4.B $ 9 ;.<.<.<.@.[ x h. X<X<X].b 5 ( *.t.a.w./ & b E.XX X{.|.|.&X[.W.",
"'.[.:X,X#X&X&Xh.@ Q <.<.<.<.<.Q .   9 ;.<.<.<.2.@.= m >X,X<XS.Z w R w.p.e. .T s G W.XX|.'.|. X#X|.`.",
" X;X>X,X#X&X_.7.@ Q <.<.<.<.<.] X   9 ;.2.<.<.<.@.% V  X,X&X/.Z.L ; 9.r.q X : j.[.|.|.'.'.|. X>X;X:X",
">X>X&X>X&X$XK.M.H l W ;.2.2.<.@.W E | ,.<.<.<.<.-.{ c S Z.&X^.%Xj.; X.9.* 2 H Q.,X,X[.'.[.|.>X,X:X:X",
"&X&X,X:X,X X~.^. XS <  .#.$.,.2.<.<.<.<.<.<.<.<.<.<.! < P Q.~.M.L < } @.% M |.oX;X X|.'. X X X:XoX$X",
"=X%X,X:X:XoX.X&X,XS.7.< % 6 #.2.<.<.<.<.<.<.<.<.<.<.;. .w S A.Z w +.<.+.% Z ,X,X|.'.|. X;X|.|. X$X@X",
"U._.&X,X>X>X,X>X,X1XS.D m N p W W E } >.<.=.Q +.<.<.2.-.- 2 A c ! :.@.j N k.>X,X|.'.|.:X X[.'. X_.U.",
"I._.&X:X#X&X>X,X>X,X;X;X<XV.4 .   O u 1.<.} - Q <.<.<.-.0   X } 2.>.e 2 B.<X,X,X|.|.|.;X;X|.|. X_.I.",
"!.[. X[.|. X,X,X;X;X,X,X<X}.N.m O k i.y.k e | -.<.<.<.,.#.r o } 2.<.e 2 V.<X,X>X;X X;X;X,X:X;X:X.X!.",
"|. X;X'.[.#X,X>X;X X X;X>X<X2XJ O q.d.p.8.j ! ! } ;.<.<.2.' o } ;.{ l Z A.<X,X,X:X:X>X:X,X$X$XoX|.|.",
"oXoX X[.[. X,X>X X'.'. X>X;X{.H , 0.a.a.s.q.> X 6 #.2.<.2.' o { | ; H |. X>X,X,X>X,X,X;X&X@X*X&X:XoX",
"=X%X|.~.L.'. X&X X|.|. X XB.V K D.v o.p.d.i.0.X.| ;.<.<.2.' X = d 6.B.oX|.|. X X,X,X,X>X&X%X%X.X%X=X",
"R.@X.XP.J.W.|.oX|.|.|. XXXb.n K D.4 > 0.i.s.s.t.<.<.<.,.@.r . 1 Z `.:XXX[.[. X X>X>X#X>X&X%X$X#X@XR.",
"=X%X.X^.~.[.}.|.'.|.:X X|.[.].P : . . , 0.p.p.t.>.<.2.$.6   + H W.[.;X:X|.|. X;X,X,X#X#X>X&X&X>X%XOX",
"$X[.'.{.{.|.'.'.'.|.,X;X XoX<XN.H H H A z k k q y &.+.0 X 2 H b.XX|. X:X X X X#X,X&X(.^. X#X>X>X&X$X",
",X|.W. X,X X'.W.|. X,X,X,X>X,X,X&X+X_.L.C @ . # x =...4 . b W.XX[. X;X:X,X,X,X,X>X XP.P.{.#X>X,X,X>X",
",X|.[. X,X X|.|. X;X,X:X,X,X>X,X,X.X{.(.].P # I -X3.g.F.4 4 `.:X|.:X,X,X,X,X,X,X,X#X(.(.&X#X#X#X>X,X",
",XoX X X|.[.|. X;X|.|..X%X%X&X>X,XoX X{.<XZ.H I 5.a O.I : b `.:X;X|.|.XX%X%X&X&X>X>X{.{.&X#X#X#X,X>X",
",X,X:X,X|.W.|.>X X'.'..X@XOX$X>X,X,X,X,X:X,X XF 2 1 1 1 # V `.:X X'.[..XOX@X.X&X>X&X>X,X>X>X#X#X&X;X",
",X,X>X X|.[. X;X;X|.[.{.).)..X,X,X,X:X,X:X,X,XC.c.v.c.c.c.N.}.:X X|.|.|.).)..X X>X>X>X&X>X&X#X#X>X,X",
",X>X&X>X X X#X>X;X X X X[./.XX X|. X:X,X,X>X,X<X<X<X<X<X<X,X#X#X:X X;X X/.[.|.|.|.#X#X#X&X,X,X>X>X,X",
",X>X>X>X,X#X,X>X,XoX&XoX|. X|.[.'.|.,X;X:X;X X;X,X>X;X&X;X&X#X,X,XoXoX:XoXoX|.`.[.|.#X#X>X X#X>X,X,X",
",X,X&X>X,X>X,X&X$X@X*XoX;X;X X X|.;X,X&X X[.[.|.,X,X,X>X:X,X,X>X$X@X@X$XoX:X X|.|. X#X#X X[.'. X,X,X",
"[.|.>X>X>X&X>X,X&X@X=X$X&X%X.X/.~.[. XoX|.|.[.|. X X X,X>X,X>X>X$X@X@X$X%X$X$X(./.[. X#X,X[.'.|.|.|.",
"m.'. X,X>X>X#X,X&X&X$X$X@XR.(.P.G.E.[.oX X X X|.'.'.|.>X>X>X>X,X,X$X&X$X=X@X+XK.G.m.'.oX X X X X'.m.",
"'.|.,X,X&X#X,X,X>X;X&X&X%X@X$X(.P.[.[.|.[.[. X X|.|. X>X&X>X,X,X,X,X,X&X@X%X$X^.~./.|.|.'.[. X;X|.'.",
" X X,X,X,X#X(.{. X,X,X&X,X.X|.}. X|.|.'.'.'. X,X:X X X,X,X#X{.{. X,X,X,X&X&X|.|. X X|.'.W.[. X,X X X",
",X#X,X>X&X XH.H.#X,X,X,X X|.W.'. X|.'.W.|. X>X,X>X,X,X,X>X(.K.L.(. X>X,X&X[.W.[.|.oX`.W.[. X;X,XoX;X",
",X,X>X>X>X X~.P.&X>X#X,X#X|.[.|.#X X[.[. X>X,X>X>X,X>X>X,X{.^.(.{.&X>X>X>X|.[.}. X;X|.|. X;X X'.[.;X",
",X,X&X>X#X#X#X&X#X#X#X#X#X#X#X#X>X X#X#X&X>X>X,X>X&X&X>X,X>X&X#X#X#X&X#X&X>XoX:X:X:X X X X,X|.m.'. X"
};
