/* XPM */
static char *player_b[] = {
/* columns rows colors chars-per-pixel */
"50 50 196 2 ",
"   c #040201",
".  c #0C0401",
"X  c #0C0A09",
"o  c #160901",
"O  c #1B0B01",
"+  c #1B1006",
"@  c #15120C",
"#  c #0D191A",
"$  c #161816",
"%  c #161D1B",
"&  c #240D00",
"*  c #310200",
"=  c #261000",
"-  c #2B1100",
";  c #2A1A0C",
":  c #351601",
">  c #3A1900",
",  c #351C09",
"<  c #3D1A15",
"1  c #19201D",
"2  c #372800",
"3  c #2E271B",
"4  c #332A1C",
"5  c #162323",
"6  c #1C2C26",
"7  c #1B2D2B",
"8  c #28332F",
"9  c #3E3121",
"0  c #283936",
"q  c #323B34",
"w  c #450C01",
"e  c #5D0000",
"r  c #431C00",
"t  c #4C1E00",
"y  c #521800",
"u  c #71140B",
"i  c #462105",
"p  c #4D2101",
"a  c #542401",
"s  c #5C2500",
"d  c #5E2801",
"f  c #4C3319",
"g  c #652A01",
"h  c #6B2D01",
"j  c #7A2E00",
"k  c #66320A",
"l  c #743101",
"z  c #7C3200",
"x  c #763708",
"c  c #653C1B",
"v  c #473B29",
"b  c #5A362D",
"n  c #5A3533",
"m  c #2C403E",
"M  c #384437",
"N  c #68411F",
"B  c #4E4532",
"V  c #5D4A33",
"C  c #6D4B28",
"Z  c #364B47",
"A  c #3C534E",
"S  c #3A5651",
"D  c #3E5854",
"F  c #3D6459",
"G  c #524C45",
"H  c #43554E",
"J  c #565749",
"K  c #455C56",
"L  c #48635A",
"P  c #5C6859",
"I  c #466562",
"U  c #4A6863",
"Y  c #506E64",
"T  c #53736D",
"R  c #59786C",
"E  c #567771",
"W  c #5B7B73",
"Q  c #627E75",
"!  c #6C7E74",
"~  c #880C02",
"^  c #910901",
"/  c #B21706",
"(  c #833601",
")  c #853901",
"_  c #8B3B01",
"`  c #923D01",
"'  c #CD1603",
"]  c #D81804",
"[  c #F11A05",
"{  c #FD1C05",
"}  c #C92E05",
"|  c #FA2706",
" . c #8A440F",
".. c #964001",
"X. c #9E4302",
"o. c #A44401",
"O. c #A94601",
"+. c #A54903",
"@. c #AB4A02",
"#. c #B14700",
"$. c #B24B01",
"%. c #BA4F01",
"&. c #BB5201",
"*. c #876503",
"=. c #C35301",
"-. c #CA5501",
";. c #CE5902",
":. c #D15700",
">. c #D35B01",
",. c #DA5C01",
"<. c #EE4206",
"1. c #FB4F07",
"2. c #E15F02",
"3. c #DA6402",
"4. c #E46101",
"5. c #EB6402",
"6. c #ED6902",
"7. c #F26702",
"8. c #F86207",
"9. c #F46A02",
"0. c #FF6C02",
"q. c #FF7102",
"w. c #64857A",
"e. c #B5A608",
"r. c #F09008",
"t. c #D9A306",
"y. c #FAAB09",
"u. c #F7B70A",
"i. c #F5CF0A",
"p. c #678E82",
"a. c #6C9287",
"s. c #6E9489",
"d. c #75978B",
"f. c #789F96",
"g. c #77A195",
"h. c #7AA197",
"j. c #7CA498",
"k. c #7EAA9C",
"l. c #7BB19E",
"z. c #7DB0A1",
"x. c #7FC49F",
"c. c #7CC3A7",
"v. c #7CC3A8",
"b. c #83AC9D",
"n. c #8CBA96",
"m. c #84B3A4",
"M. c #89B3A5",
"N. c #88B7A8",
"B. c #8EBCAD",
"V. c #93BFB0",
"C. c #83C48A",
"Z. c #8EC68C",
"A. c #8DC79C",
"S. c #86C998",
"D. c #92C995",
"F. c #93CA9C",
"G. c #90DA95",
"H. c #A8EF88",
"J. c #ABF189",
"K. c #A8E69A",
"L. c #85C6AE",
"P. c #8AC6A8",
"I. c #8CCBAA",
"U. c #94CBA4",
"Y. c #98CCA7",
"T. c #92CCAB",
"R. c #99CCAB",
"E. c #9BD7A6",
"W. c #96D4AA",
"Q. c #89C7B0",
"!. c #8CC9B3",
"~. c #94C3B4",
"^. c #92CBB5",
"/. c #9BCEB5",
"(. c #98C6B8",
"). c #95CCB9",
"_. c #9CCEBD",
"`. c #9CD2B4",
"'. c #9FD0BE",
"]. c #A6DFA7",
"[. c #A5DDAB",
"{. c #A2D5B5",
"}. c #A4D9B2",
"|. c #A1D2BD",
" X c #A5DABB",
".X c #A9DFBB",
"XX c #A6E1A4",
"oX c #A8E3A4",
"OX c #A7E1AB",
"+X c #A8E1AE",
"@X c #9FCFC0",
"#X c #9FD1C0",
"$X c #A0CFC1",
"%X c #A0D0C0",
"&X c #A5D9C4",
"*X c #A8DBCA",
/* pixels */
"%X$X#X#X@X|.@X$X|.$X$X|.@X$X%X%X%X@X%X%X%X%X%X%X%X#X#X%X#X%X%X%X$X%X%X%X%X$X%X'.%X_.$X%X#X$X%X@X%X@X",
"oX}.#X#X#X$X%X%X$X%X%X$X%X%X%X'._.^.)._._.).).`.}.}.{.'.%X%X$X#X$X$X'.$X$X|.%X%X_.^._._.#X).^._.}.oX",
"H.K.'.#X%X$X$X%X%X%X$X%X$X'.%X_.^.Q.!.#X).!.Q.W.].XX`.'.$X%X%X%X%X|.%X%X$X|.$X%X!.L.^._._.Q.L._.XXH.",
"S.W.'.'._.$X$X|.@X%X%X%X%X%X$X_._.)._.$X'._._.^.T.W.`.'._.$X'.%X$X%X%X%X%X$X$X$X'.)._.@X#X_.)._.W.x.",
"L.!._.^.).%X%X%X#X@X#X#X%X%X#X#X%X%X%X%X$X%X'._.).^.^.)._._.#X%X#X@X$X%X%X%X@X%X#X%X%X%X$X%X|.'.!.L.",
"#X%X_.L.L.'.%X$X@X#X_.@X$X$X$X#X#X%X$X%X|.|.|.|._.$X).Q.Q.)._.%X@X_._._._.%X%X%X%X%X$X$X|.|.|.|.'.'.",
"|.%X_.^.^._.|.@X).!.!.#X@X@X#X#X%X%X$X@X{.}.[.{.$X|._._.^./.%X%X_.!.!.)._.%X@X#X%X$X$X$X|.].oX|.'.{.",
"[.}._.Y.U.^._.@X@X!.!.).).@X#X#X%X%X%X|.{.[.[.[.{.{.{.R.T.^._._._.!.).).)._._.@X%X#X|.$X%X[.XX{.}.[.",
"J.oX/.Z.x.x.^.'./._._._.Q.B.@X#X'.'.$X'.%X'.|.}.[.oXE.F.C.S.!.'._._.#X_.Q.!._._.'.$X$X$X$X|.|.|.oXJ.",
"OX}./.U.U.!.^.^.!.).%X%Xp.F z.*X$X'.|.|.'.$X&X&X.X.X{.`.`.^.).!.!.)._._.).)._.#X$X'.|.'.'.$X$X%X{.[.",
"%X).).@X%X@X).!.L._.@Xb.G i ! B.'.|./.R.|.(.k.f.h.g.g.h.g.m.).!.Q.)._.%X%X%X%X%X$X'.R.R./.$X$X%X%X$X",
"%X!.L.).#X@XL.L.).%Xb.0 u / < U (./.F.D./.b.8 $ % % % % $ L L.^.)._.%X%X%X%X%X%X$X|.D.D./.$X%X%X$X@X",
"%X).!._.@X_.^.).@Xd.G u / ] * S /.|./.Y.p.H x j j j j z j c L z.&X_.@X_.|.'.|.$X$X'.Y.Y./.$X$X$X%X%X",
"%X%X%X%X).^._.%X).S * ' { ' * S _.&X/.b.B s 2.0.0.0.0.0.0.O., W Q.^.)._.{.}.|.'.'.$X$X'.|.$X%X%X$X%X",
"%X%X%X@X).L.).&X_.S * ' { ' * S $X*Xd.q  .>.9.0.0.0.0.0.0.5.&.f S N.).`.].E.{.|.%X$X$X$X%X%X|.$X%X%X",
"%X%X$X$X).!.'.B.W 7 * ' { ] ~ b ! V.a.@ X.q.0.0.0.0.0.0.0.q.7.a 0 L.#X^.E.E./.|.'.'.$X'.$X$X$X#X%X$X",
"|.%X'.$X$X@X&Xs.%   w } | [ [ ~ $ p.w.; O.0.0.0.0.0.0.0.0.0.7.s q b.'.'.!.^.).).)._.#X#X@X'.#X@X$X%X",
"$X$X$X$X$X$X*Xs.# e } r.8.[ | ^ . 7 n $.4.0.0.0.0.0.0.0.0.0.8.:. .B a.'._.'.#X!.^._.@X%X@X_._._.%X%X",
"_.'.$X'.$X$X&Xs.$ ^ 1.i.y.1.| ^     s 6.0.0.0.0.0.0.0.0.0.0.0.q.$.+ R |.'. X'.I.T.^._.%X#X).^._._._.",
"^.).$X'.$X$X&Xd.$ ~ | i.i.u.<.~ X   a 7.0.0.0.0.0.0.0.0.0.0.0.q.$.+ R }.OX`.'.Y.T.^.).@X@X!.!._.).^.",
"L.^.@X%X$X%X%XB.! n y k e.i.l n R 5 a 5.q.0.0.0.0.0.0.0.0.0.0.0.#.+ E  X[.}.{.F.A.P.)._.).)._._.^.L.",
"Q.).'.%X%X$X|.|.$XE 5   *.t.2 D V.m y 5.0.0.0.0.0.0.0.0.0.0.0.q.$.+ W &X[.[.`.U.U.P.^.).!.)._.#X).Q.",
"_._.$X%X%X'.Y.Y.'.).a.% ( 3.> D M.0 y 5.q.0.0.0.0.0.0.0.0.0.0.0.$.+ E %X|./.^.)._._.^.!.Q.)._.@X#X_.",
"%X%X$X%X%X/.F.U./.*Xk.1 ( 5.+.C H # a 6.q.0.0.0.0.0.0.0.0.0.0.q.$.O 7 E ).#X!.)._.@X^.Q.^._.#X#X$X%X",
"|.|.$X$X%X/.Y.U.%X&Xb.q x >.0.... O g -.7.0.0.0.0.0.0.0.0.0.0.4.X.> & 9 d.Q.^._._._.!.)._._._.@X|.|.",
"oX}.|.#X$X'.'./.%X%X_.M.K t >...O ..X.> @.q.0.0.0.0.0.0.0.0.7.h a =.,.@.4 E @X$X).).)._.@X).).@X}.[.",
"K.E.'.%X%X$X%X%X%X%X%X&XU = -.;.z ) ) l l +.7.q.0.0.q.0.q.;.) h X.9.q.3.( V Q V.).!.).#X'.^.!._.E.K.",
"G.W.'.'.'.%X%X%X%X%X%X#XT , $.0.4.t a ,.l p ;.4.2.2.2.2.4...> $.9.4.7.0.0.j % j.#X).)._.@X).^._.W.G.",
"I.^._.^.).@X%X$X#X#X%X%Xm.w.f ` 3.t p 5.4.X.t : > > > > > g %.7.-.s @.q.0.z % j.&X@X@X@X$X@X_.#X^.I.",
")._._.!.^.@X$X|.'._._._.#Xz.7 g 5.` h ..o.` g a s s a a p ..9.q.$.O a O.X.N L M.&X@X#X#X%X{.{.%X).).",
"'.|._.^.^._.$X$X'.^.!.'.&XN.0 g 5.0.@.- . a ;.4.4.6.9.7.9.9.q.q.%.=   . @ Y ).$X%X%X@X@X%X[.].|.|.'.",
"oX}.'.A.A.!._.%X'.^.!.'.).Q.d.J k ;.6.@.O.` d i h 4.q.q.0.0.0.0.4.@.r # Y b.#X%X$X#X@X#X_.[.[.|.}.oX",
"K.[.'.D.S.L.).$X_.^._._.!.!.&XW o z %.&.5.>.d > a X.>.0.0.0.0.0.q.9.g 6 l.#X).#X#X#X%X%X%X{.{.|.[.K.",
"oX}.'.Y.U.^.).).Q.).@X_.).).#XQ X . o = @.9.4.5.=.r z 0.0.0.0.0.0.7.g 7 k.#X#X#X#X#X%X%X%X%X|.%X}.[.",
"{.`.!././.).!.Q.!.).%X$X_._.#XN.W 5 - ( l g g &.6.@.=.q.0.0.0.0.-.l J d.~.#X#X%X#X'.Y.Y./.%X%X%X|.{.",
"#X!.Q.).%X@X!.L.)._.%X%X$X$X$X(.f.v z 6.) - : ) -.-.-.-.7.0.0.q.=.i P M._.%X%X#X#X'.F.D./._.%X%X$X@X",
"#X).^._.%X@X).)._.%X%X|.$X%X&Xw.3 X.5.8.4.,.>.z & & & > -.0.0.0.9.,.k Z M.&X%X%X$X'.R.R.'.'.$X%X%X|.",
"%X#X_._._.!.)._.@X).^.|.}.}.%XE + %.3.` >.4.` V I I U K c #.7.+.O.6.g 6 n..X{.'.%X$X/./.'.$X%X$X$X%X",
"%X%X@X%X^.L.).#X_.!.!.`.].XX Xp.3 +.` O _ @.4 W %X%X*XB.Z k =.r > &.k M Z.+X`.'.$X%X$X%X|.$X%X$X$X%X",
"%X%X%X_.).^._.@X@X).^.^.W.T._.V.d.v &   O v s.V.%X%X&X_.b.P , . . : P b.A.W.'.'.%X%X%X$X$X$X$X|.@X|.",
"$X$X$X$X_._.'.$X#X_._._.^.I._.#X~.E A H A T ).*X$X$X$X$X*Xj.H H A S g.#X^.T._.^._._.'.$X%X%X%X%X%X$X",
"%X$X|.$X%X%X$X$X%X|.|.'._./._.!.Q.).).(.(._._.@X'.'.$X$X$X$X(.(./.'.'.'.'._._.!.!._.$X$X$X'.'.'.%X@X",
"%X%X$X|.%X%X$X|.|.].].'.@X@X'.).).%X&X%X#X).^._.$X$X$X$X$X$X&X&X X+X}.{.'.'._.).)./.$X$X@X!.!._.@X%X",
")./.%X%X$X'.%X%X|.[.oX{.{.}.`.^.U.^._.'._.).!.)._./._.$X$X$X%X$X{.[.[.}.}.{.|.Y.T.^.).$X'.^.!._._.^.",
"v.Q.%X%X'.%X$X%X|.|.{.{.[.K.R.F.x.S.Q.'._._._.).^.!._.@X|.$X$X%X%X|.|.}.oXOXE.D.C.c.^._._._._._.!.v.",
"Q.).%X%X$X$X%X%X$X|.'.|.}.[.`.R.U.^.^.^.^.^._._.).)._.@X$X'.%X%X$X%X|.|.}.}.|.Y.U.I._.).!.)._._.).!.",
"_._.%X%X'.'.R./._.%X$X|.'.'._.)./._.).!.Q.!._.%X%X_._.$X|.|././.|.'.$X'.|./.)._./._.).!.L.^.@X@X#X_.",
"%X$X#X%X'.|.Z.Z.'.%X|.'.'.^.L.!.'.).!.L.).#X@X%X%X$X%X%X'./.D.F.R.'.%X$X_.^.L.^._._.Q.L.^._.@X#X%X%X",
"%X%X%X%X$X/.Y.U.'.$X$X$X'.).^.).$X_.).^._.$X$X$X$X$X'.%X%X/.Y.R./.'.$X$X$X/.).)._.$X^.^._.$X_.Q.)._.",
"%X%X%X$X'.'.|.'.'.'.'.$X$X'.'.'.$X'.'.'.$X'.$X'.'.$X$X$X$X'.'.'.'.'.'.$X'.'._.$X$X$X@X_.$X$X).c.Q._."
};
