/* XPM */
static char *player_f[] = {
/* columns rows colors chars-per-pixel */
"50 50 214 2 ",
"   c #040202",
".  c #0C0601",
"X  c #0B0B0B",
"o  c #150B03",
"O  c #1A140A",
"+  c #0A1517",
"@  c #141514",
"#  c #161815",
"$  c #161D1B",
"%  c #1A1C1B",
"&  c #250D00",
"*  c #320200",
"=  c #261000",
"-  c #2B1607",
";  c #351703",
":  c #3B1600",
">  c #3C1900",
",  c #3D1A15",
"<  c #19201E",
"1  c #232002",
"2  c #3B2801",
"3  c #302A1E",
"4  c #1F1E20",
"5  c #192827",
"6  c #1E2D31",
"7  c #323228",
"8  c #2C3935",
"9  c #333834",
"0  c #520900",
"q  c #461B00",
"w  c #71140B",
"e  c #4B2002",
"r  c #552300",
"t  c #5A2300",
"y  c #533317",
"u  c #622700",
"i  c #6B2C01",
"p  c #722E00",
"a  c #7A2E00",
"s  c #683108",
"d  c #733101",
"f  c #793504",
"g  c #663B16",
"h  c #463928",
"j  c #553724",
"k  c #5B3836",
"l  c #354237",
"z  c #5D4603",
"x  c #544D04",
"c  c #695704",
"v  c #5A432B",
"b  c #45493C",
"n  c #5B4831",
"m  c #6C4624",
"M  c #674D37",
"N  c #2E3D41",
"B  c #3C3E42",
"V  c #354A44",
"C  c #34544C",
"Z  c #3C524C",
"A  c #3C5752",
"S  c #3F6559",
"D  c #4F4B48",
"F  c #44564D",
"G  c #565748",
"H  c #485755",
"J  c #4E6454",
"K  c #476261",
"L  c #4D6B62",
"P  c #566E64",
"I  c #4D7368",
"U  c #57756A",
"Y  c #587B73",
"T  c #656767",
"R  c #627A6D",
"E  c #637C73",
"W  c #870C02",
"Q  c #910901",
"!  c #B21706",
"~  c #863A03",
"^  c #943E01",
"/  c #9B3F00",
"(  c #C01000",
")  c #CD1603",
"_  c #D81804",
"`  c #F11A05",
"'  c #FD1C05",
"]  c #C92E05",
"[  c #FA2706",
"{  c #884109",
"}  c #964305",
"|  c #9E4201",
" . c #8B4311",
".. c #A34300",
"X. c #A94803",
"o. c #AD4901",
"O. c #B14B02",
"+. c #BB4D01",
"@. c #B95105",
"#. c #8E6804",
"$. c #A65E27",
"%. c #AB642D",
"&. c #B16633",
"*. c #C45301",
"=. c #CA5401",
"-. c #CB5A02",
";. c #D15600",
":. c #D45B02",
">. c #DC5C01",
",. c #EE4206",
"<. c #FB4F07",
"1. c #E15F02",
"2. c #D96602",
"3. c #E56101",
"4. c #ED6402",
"5. c #EF6902",
"6. c #F16602",
"7. c #F86207",
"8. c #F36902",
"9. c #FF6D02",
"0. c #FF7102",
"q. c #F87B03",
"w. c #CE6E25",
"e. c #AC784A",
"r. c #65857C",
"t. c #B5A608",
"y. c #D58805",
"u. c #E08E04",
"i. c #FF8804",
"p. c #FB9506",
"a. c #C8AA06",
"s. c #D9A306",
"d. c #FDAD08",
"f. c #FCB608",
"g. c #E7C509",
"h. c #FFC90A",
"j. c #F3D30A",
"k. c #FFD20A",
"l. c #FEDD0B",
"z. c #FFE40B",
"x. c #B68A62",
"c. c #D29058",
"v. c #EA9149",
"b. c #D19A66",
"n. c #E29D69",
"m. c #EEAF7A",
"M. c #668D85",
"N. c #6D9388",
"B. c #719589",
"V. c #739A8D",
"C. c #6F9593",
"Z. c #7BA297",
"A. c #7CA999",
"S. c #79B09D",
"D. c #7FC49F",
"F. c #7CC3A7",
"G. c #8E8E8E",
"H. c #82AB9D",
"J. c #87B49A",
"K. c #ABA49F",
"L. c #86B1A3",
"P. c #89B6A7",
"I. c #8DBBAC",
"U. c #89B4B1",
"Y. c #93BFB1",
"T. c #ABA9A7",
"R. c #83C48A",
"E. c #8EC68B",
"W. c #88C899",
"Q. c #92C995",
"!. c #93C99C",
"~. c #90DA95",
"^. c #9DE197",
"/. c #A8EF88",
"(. c #ABF189",
"). c #A8E69A",
"_. c #85C7A8",
"`. c #85C6AE",
"'. c #8DCCAB",
"]. c #94CAA4",
"[. c #98CDA6",
"{. c #93CCAB",
"}. c #99CCAB",
"|. c #9AD6A7",
" X c #96D4AA",
".X c #8BC7B1",
"XX c #8CC9B3",
"oX c #93C3B3",
"OX c #92CBB6",
"+X c #9CCEB5",
"@X c #98C7B8",
"#X c #95CCB9",
"$X c #9CCEBD",
"%X c #9CD2B5",
"&X c #97D0BA",
"*X c #9ED0BE",
"=X c #A4DFA5",
"-X c #A0D5AD",
";X c #A5DDAB",
":X c #A2D5B6",
">X c #A3D9B2",
",X c #A1D2BD",
"<X c #A8DEBB",
"1X c #A6E1A4",
"2X c #A8E2A7",
"3X c #9FCFC0",
"4X c #9FD1C0",
"5X c #A0CFC1",
"6X c #A0D0C0",
"7X c #A5D9C6",
"8X c #A6D7C8",
"9X c #A7DAC9",
"0X c #C1C1C1",
"qX c #D9D0C9",
/* pixels */
"6X5X6X6X4X6X6X,X6X5X,X5X6X,X6X6X6X6X6X6X4X4X5X4X5X5X4X6X6X6X6X5X5X6X6X5X5X6X6X5X,X5X5X6X6X6X6X4X5X5X",
"1X>X6X6X6X6X6X4X5X5X5X5X5X5X6X$X$XOX#X3X*X#X#X%X>X>X:X4X6X5X3X,X*X6X5X,X,X5X6X5X$XXX#X$X4XOXOX$X>X2X",
"(.^.*X4X5X6X6X6X,X5X6X5X5X*X5X$XOX.X.X*X#XXX.X X=X1X%X*X6X6X5X6X5X6X,X6X5X6X6X6XOX`.OX$X$X.X`.$X1X/.",
"W. X*X*X$X6X6X4X6X6X5X4X6X6X6X$X*X#X$X6X*X*X#X+X{. X%X*X5X$X5X6X6X5X5X6X5X5X*X6X$X#X$X6X*X$X#X$X XD.",
"`.XX$XOX#X6X6X6X4X3X4X6X6X6X6X6X4X4X6X6X5X6X5X#XOXOXOX#X#X$X6X6X4X3X4X3X5X5X5X6X6X6X6X6X6X6X,X*XXX`.",
"3X6X$X`.`.*X6X5X3X3X$X3X,X6X3X6X6X4X6X5X,X,X,X,X3X6X#X.X.X#X6X6X3X4X$X3X,X5X,X6X6X6X5X6X,X,X,X,X4X%X",
",X6X$XOXOX$X,X3X$XXXXX$X3X3X6X6X3X6X5X5X:X>X;X:X6X6X$X+X+X$X*X6X$XXXOX#X$X3X5X6X6X6X4X5X,X=X2X,X,X,X",
"2X>X$X[.].OX$X5X$XXX.X#X$XOX$X6X6X6X6X,X:X;X;X;X:X:X%X}.{.OX#X$X3XXXOX#X#X$X$X6X6X6X5X5X6X;X1X:X:X;X",
"(.2X$XE.D.D.OX*X$X$X$X$X.X.X$X6X*X*X6X6X4X,X,X:X2X;X|.Q.R.W.XX#X3X#X3X#X`..X#X$X5X$X5X*X5X,X,X,X1X(.",
";X>X+X].].XXOXOX.XOX6X$X#X#X*X4X5X*X*X%X6X8X8X7X<X<X%X%X XOX#XXXOX#X8XI.S M.8X6X5X,X*X*X*X5X5X5X>X;X",
"4X$XOX3X3X3XOXXX.X#X6X6X6X6X6X6X*X*X%X}.L.Z.Z.Z.Z.Z.V.Z.@X8X#X.XXXOXU.r., D H.#X8X*X}.}.*X*X,X5X5X5X",
"6XXX`.#X4X3XXX`.#X*X*X6X6X5X6X6X,X}.[.E.F $ < < $ $ $ 8 Z.4XXXXX#X@XL q ! w 9 A.8X$XQ.Q.+X*X6X5X6X6X",
"6X#XXX$X$X$XOXOX*X*X$X,X,X,X$X5X5X,XJ.J g a a a a a a f G M.#X4X4X#XC * _ ( w D B.$X[.[.$X,X*X5X6X5X",
"6X6X6X6X$XOX$X3X5X#X#X$X:X>X,X3X*XY.R ; X.9.9.9.9.9.0.3.r l H.#X8XoXC * ) ' ) * Z $X8X5X6X5X5X*X6X6X",
"6X5X5X$XOX`.#X6X$XXX.X%X;X^.,X8XoXH y @.4.9.9.9.9.9.9.8.:.~ 9 V.7X.XC * ) ' ) * F *X8X$X5X5X6X6X5X5X",
"6X4X6X5X#XXX$X6X$X#XOX%X X|.%X8XoX8 q 5.0.9.9.9.9.9.9.9.0.| O N..XY j W _ ' ) * 6 E I.5X,X5X6X5X6X6X",
",X5X5X,X,X*X5X5X4X4X*X*XOX.X&X&XS.9 u 6.9.9.9.9.9.9.9.9.9...- r.M.# W ` ` [ ] q   @ B.8X5X3X4X5X5X6X",
"5X5X5X5X5X5X5X5X*X:X:X*X*X#X*XM.l { ;.9.9.9.9.9.9.9.9.9.9.3.O.v 5 . Q ' ` 7.u.] 0 @ N.8X4X$X$X$X6X5X",
"$X*X5X5X5X5X5X,X,X;X;X,X*X:X*XU - e.v.O.1.9.9.9.9.9.9.7.*.w.v.j     Q [ <.d.h.<.Q @ N.8X6XOXOX$X$X$X",
"oX#X5X,X5X5X,X,X,X;X2X:X:X:X:XP % T.K.- / 9.9.9.9.9.9.1.q T qXG   X W ,.f.z.f.,.W % N.5X3XXXXX$X#XOX",
"`.OX4X6X,X5X5X*X,X:X:X:X;X;X:XU X B B X / 9.9.9.0.7.0.>.: < H % 5 U k f g.t.z 0 j U P.4X&XOX#X4XOX`.",
".X#X6X6X*X*X*X*X5X5X6X,X>X;X:XU X 5 5 . / 9.9.9.9.9.0.3.q + 6 X l oXH 2 s.#.  5 L .X&XOXXX#X3X3XOXXX",
"$X$X6X6X5X*X[.}.$X6X6X6X$X#X+XP @ C.M.@ / 9.9.9.9.9.9.3.q N U.N 8 P.A > 2.f $ M.oX*X#X.X.X#X4X3X3X3X",
"6X5X6X4X*X*X!.!.*X6X6X5X8X.XI 5 O e.x.^ ;.9.9.9.9.9.7.7.| %.b.h + A m O.6.f < Z.9X6XOX.XOX&X4X4X4X5X",
",X,X6X6X6X$X].].$X6X6X6XoXN.7 & > ..3.9.9.9.9.9.9.9.9.9.9.8.=.u = ; ~ :.:.f 9 A.4X$XOXOX$X3X$X3X,X,X",
"2X>X6X6X6X,X+X,X,X$X8X5XY 3 X.>.*.r i 6.9.9.9.9.9.9.9.9.0.X.q ^ :.=.d = ; J L.$X3XOX#X$X3X#XOX3X>X;X",
"^.|.,X6X5X5X6X6X6X8XI.E n ~ 1.0.5.} i ~ :.0.9.0.9.0.0.8...d d -.0.0.o.e . L 8X8XOXXX#X4X4XOXXX$X|.).",
"~.|.6X*X*X,X5X6X6X7XZ.< a 9.9.6.3.9.O.; ^ 3.3.3.1.1.3.=.e i 8.4.4.9.0.*.& K *X6X#XOX#X3X3XOXOX$X X~.",
"'.+X$X+X#X$X6X5X4X8XZ.$ a 0.0.o.r =.6.+.i ; : : : : : q } >.8.f p 5.0.*.= K 6X6X4X$X3X3X5X$X3X4XOX'.",
"OX#X$X.XOX5X6X6X4X4XL.K m | ..t o O.i.p.#.x x x x x x c y.i.6.e = ^ ..{ b N.6X6X4X8X3X3X5X:X:X*X$XOX",
"4X4X$XOXOX*X5X5X$XOXXXoXP o .   & *.p.h.j.j.j.j.j.j.j.j.l.f.8.t . . . 9 H.6X*X5X*X6X3X3X6X;X;X:X*X*X",
"1X>X$X].W..X$X6X4X#XOX4XS.I + q o.1.p.l.z.l.z.z.z.l.z.z.z.f.0.-.d X V V.OX*X$X5X6X5X5X3X4X;X;X,X>X1X",
").2X*X!.W.`.$X$X#X#X#X$X4XS.5 u 9.9.i.f.k.l.l.l.l.l.z.l.h.p.0.0.O.O Y 4XOXOX$X3X4X4X5X5X6X:X:X,X;X).",
"2X:X%X].].XX#X#X.X#X3X$X4XS.6 u 6.9.9.q.f.l.l.l.l.l.l.h.i.9.0.0.o.- Y 4X#X#X$X3X4X3X*X*X6X,X,X6X>X=X",
":X&XXX+X+X#XOXXXXX#X6X6X,XoXB.G s ;.9.9.i.d.l.z.z.z.h.p.0.9.7.^ v R L.4X3X$X4X4X6X*X}.[.*X*X5X5X,X:X",
"6XOX`.#X3X3XXX`.#X$X6X6X6X,XP.J q *.9.9.9.q.a.a.a.a.u.9.9.9.6.p h V.oX4X6X6X5X6X6X$X!.!.+X*X6X6X5X6X",
"6X$XOX$X6X$XOX#X*X6X4X4X7XP.l s :.7.9.9.9.-.2 O 1 1 { 9.9.9.9.4.} 3 r.4X4X4X4X6X5X,X}.}.*X*X,X5X5X5X",
"5X$X$X$X#XOX#X$X$X&XOX*X<XJ.6 M m.$.%.m.&.g H K K K v  .n.c. .n.x.# U *X>X:X:X6X5X5X+X+X*X,X5X*X5X,X",
"6X5X*X3XOX`.#X6X$XXX.X%X2XE.l T 0X9 D 0XT l I.8X6X6XY 9 T.G.@ G.K.8 Y %X1X1X%X,X5X5X5X5X,X5X5X,X6X5X",
"6X6X6X*X$XXX$X5X4X#X&X&X X!.J.R 9 X X 9 E L.$X8X6X8XoXB.F %   4 H V.I.%X X'.%X*X5X5X5X5X5X5X5X5X6X5X",
",X5X5X*X$X$X*X6X3X3X$X#XOX%X*XV.V Z Z F Z.8X8X$X5X,X8X@XP F F V U OX8X$XXX+X#X#X$X*X5X,X5X5X5X5X6X6X",
"5X6X6X5X5X*X5X6X*X*X*X*X*X#X&XXX`.OX@X$X$X3X3X4X5X5X5X5X@X@X$X@X$X*X*X,X#X3X%X.X.X$X*X5X5X*X5X,X5X4X",
"6X6X5X5X6X6X6X6X:X;X2X,X5X$X*X&X#X4X8X8X$XOXOX$X5X5X5X5X5X8X8X8X,X;X>X:X,X4X$X#X#X$X5X5X$XOX.X$X4X6X",
"OX$X,X6X5X6X5X6X,X;X=X:X:X>X%XOX].OX#X4X$XOXoXOX$X$X$X,X5X*X6X5X:X;X;X:X>X:X%X}.].OX#X5X6XOX.X$X$XOX",
"F..X4X6X6X6X,X6X,X,X:X:X;X).}.!.R._..X3X3X$X$X#XoX.X&X6X5X,X5X5X,X,X,X>X1X;X-XQ.R.F.XX$X$X$X$X3X.XF.",
".X#X6X6X5X*X5X5X6X6X*X,X>X;X:X}.].'.+XOXOXOX$X$X#X#X$X,X5X5X5X5X6X,X6X,X;X>X:X[.].'.$X#X.XOX$X4X#XXX",
"$X$X6X6X5X*X}.+X*X6X6X,X*X*X#X#X$X$XOXXX.XXX$X6X3X$X3X6X5X*X+X+X*X5X6X,X,X$X#X+X$X$X$XXX`.OX$X6X*X$X",
"6X5X*X6X,X*XE.E.$X6X6X4X#X+X`.oX4X#XXX.XOX$X*X6X6X4X6X6X5X}.Q.!.}.,X5X6X5XOX`.OX$X$X`.`.OX$X3X4X4X6X",
"6X6X5X,X5X$X].].*X,X,X5X$X$XoX#X6X$X#XOX$X5X6X,X5X,X5X5X6X+X[.}.+X*X5X,X5X$XoX#X$X5X#X#X$X5X#X.X#X6X",
"6X6X6X6X5X*X*X*X*X,X5X5X5X$X$X*X6X5X5X*X*X5X5X5X6X5X5X6X6X*X*X*X*X,X5X5X5X*X$X*X6X6X$X$X*X6X#XF..X$X"
};
