/* XPM */
static char *player_r[] = {
/* columns rows colors chars-per-pixel */
"50 50 203 2 ",
"   c #040301",
".  c #090705",
"X  c #120500",
"o  c #190B01",
"O  c #161504",
"+  c #0E1817",
"@  c #151512",
"#  c #151814",
"$  c #151C1B",
"%  c #1A1E1D",
"&  c #320000",
"*  c #241001",
"=  c #2B1504",
"-  c #391901",
";  c #2A1B15",
":  c #1E221C",
">  c #362805",
",  c #272411",
"<  c #3B2816",
"1  c #151B20",
"2  c #1B2927",
"3  c #303025",
"4  c #323335",
"5  c #430200",
"6  c #471E01",
"7  c #7B0400",
"8  c #691611",
"9  c #542200",
"0  c #582100",
"q  c #4F3902",
"w  c #492916",
"e  c #652600",
"r  c #6F2D00",
"t  c #742D00",
"y  c #7B2E00",
"u  c #6D3A09",
"i  c #7B3102",
"p  c #6A3B17",
"a  c #793D14",
"s  c #462B25",
"d  c #4B3A26",
"f  c #642622",
"g  c #2D443F",
"h  c #33443D",
"j  c #6F440B",
"k  c #675802",
"l  c #5C4127",
"z  c #52532C",
"x  c #574734",
"c  c #634325",
"v  c #6D6539",
"b  c #314E43",
"n  c #36534A",
"m  c #3B5655",
"M  c #3F625B",
"N  c #4C574D",
"B  c #53544E",
"V  c #415A55",
"C  c #425C55",
"Z  c #4F5B51",
"A  c #49675A",
"S  c #53675E",
"D  c #4C6963",
"F  c #4F6D68",
"G  c #546E66",
"H  c #4A7264",
"J  c #56766A",
"K  c #5A7A73",
"L  c #666C6C",
"P  c #627B68",
"I  c #657873",
"U  c #717274",
"Y  c #8A0600",
"T  c #910700",
"R  c #9B1309",
"E  c #A61608",
"W  c #863600",
"Q  c #8C3A01",
"!  c #923D01",
"~  c #9C3E00",
"^  c #C70F02",
"/  c #D00F03",
"(  c #D71204",
")  c #E61504",
"_  c #F21305",
"`  c #F91405",
"'  c #F82D06",
"]  c #9B4301",
"[  c #984305",
"{  c #A54502",
"}  c #AA4902",
"|  c #B34C02",
" . c #BF4F01",
".. c #BC5202",
"X. c #AC591B",
"o. c #9F6404",
"O. c #857502",
"+. c #82563B",
"@. c #C35201",
"#. c #CE5601",
"$. c #D45A01",
"%. c #DA5B01",
"&. c #F54A07",
"*. c #E35F01",
"=. c #FF5D07",
"-. c #DE6307",
";. c #E56202",
":. c #EE6501",
">. c #EF6802",
",. c #F76502",
"<. c #F66902",
"1. c #FF6D02",
"2. c #EF7203",
"3. c #FF7102",
"4. c #FF7908",
"5. c #C06B2E",
"6. c #678678",
"7. c #928507",
"8. c #AB9408",
"9. c #B8A306",
"0. c #F58F07",
"q. c #C9B009",
"w. c #D8B709",
"e. c #FDA908",
"r. c #F7B609",
"t. c #FD8329",
"y. c #E8CD0A",
"u. c #F6DA0B",
"i. c #FDDC0B",
"p. c #FFE70C",
"a. c #FFF30C",
"s. c #F79951",
"d. c #FAA465",
"f. c #6B8C81",
"g. c #6C9286",
"h. c #719689",
"j. c #7D9F91",
"k. c #77A78D",
"l. c #74A294",
"z. c #7AA194",
"x. c #7AA799",
"c. c #7CB39F",
"v. c #7FC49F",
"b. c #7CC3A7",
"n. c #84B19C",
"m. c #84ADA0",
"M. c #83B4A4",
"N. c #8BB5A6",
"B. c #8CB6A8",
"V. c #90BDAD",
"C. c #91BFB0",
"Z. c #A6A5A2",
"A. c #BFBEBD",
"S. c #83C48A",
"D. c #8EC78C",
"F. c #87C999",
"G. c #92C995",
"H. c #92C99B",
"J. c #90DA95",
"K. c #9DE197",
"L. c #A8EF88",
"P. c #ABF189",
"I. c #A8E69A",
"U. c #85C5A7",
"Y. c #84C6AE",
"T. c #8AC4AC",
"R. c #8DCDAA",
"E. c #95CBA4",
"W. c #98CDA7",
"Q. c #92C1AB",
"!. c #92CCAC",
"~. c #99CCAB",
"^. c #96D4AA",
"/. c #9BD5A8",
"(. c #8DC4B0",
"). c #8CC9B3",
"_. c #95C3B3",
"`. c #92CBB6",
"'. c #9BCEB5",
"]. c #99C7B8",
"[. c #95CCB9",
"{. c #9CCEBD",
"}. c #9CD1B5",
"|. c #94D0BA",
" X c #9ED0BE",
".X c #A5DFA6",
"XX c #A0D5AD",
"oX c #A5DDAB",
"OX c #A0CFBF",
"+X c #A2D6B5",
"@X c #A4D9B2",
"#X c #A1D2BD",
"$X c #A6E1A4",
"%X c #A8E2A5",
"&X c #E1C7B3",
"*X c #9FCFC0",
"=X c #9FD1C0",
"-X c #A0CFC1",
";X c #A0D0C0",
":X c #A6D8C6",
">X c #A6D9C8",
",X c #ABDECD",
"<X c #DFD2C8",
/* pixels */
";X-X=X=X-X-X;X;X;X;X;X;XOX;X-X-X-X-X;X-X-X#X*X-X-X-X=X;X;X=X=X;X;X;X;X=X-X;X;X#X-X;XOX;XOX;XOX-X-X-X",
"%X@X*X`.`.=X*X[.`.[.;XOX-X#X#X-X#X-XOX;X;X;X;X+X@X@X}.[.[. X X[.`.[.*X;X;X-X-X-X-X-XOX;X;X;X-X#XoX%X",
"L.I.|.Y.).=X{.`.Y.`.;X-X-X-X#X;X-X;X;X#X;X-X;XXX$X.X^.).).[.{.).Y.'.{.;X;X;X*X-X;X-X;XOX;XOX*X;X$XL.",
"F.R.=X[.[.;X;X[.[.{.-X-X-X;X-X-X#X-X-X-X=X=X X}.!.^.`.[.{.;X;X[.[.{.OX-X-X;X;X#X-X*X#X;X-X=X;X=XR.F.",
"Y.`.#X;X;X-X-X;X;X;X-X#X;X;X=X=X-X-X;X#X[.[.[.[.`.[.[.#X;X;X;X;X-X-X;X;X-X-X-X-X-X#X;X;X;X[.`.*X).Y.",
"*X*X#X#X#X#X-X;X;X;X;X-X=X*X*X*X{.{.;X-X[.`.T.[.*X-X#X#X#X;X;X;X#X-X;X-X;X#XOX{.{.*X;X;X-XY.U.{.;X}.",
"{.#X+X$XoX#X-X;X;X;X-X*X{.{.[.`.`.{.;X;X[.[.[.{.OX#X@XoX@X+X;X-X;X;X;X;X{.-X{.).).{.-X;X{.`.`.{.;X#X",
"oX+X+X%XoX#X-X;X;X;X{.*X[.[.[.`.).[.;X[.`.~.~.+X+X+X@XoXoX+X#X;X-X;X;X{.[.[.[.).).{.*X[.`.E.W.{.@X%X",
"P.%X;X#X#XOXOXOXOXOXOX].).).[.=X{.{.].).F.F.G./.oXoX@X#X#X#X;X;X-X;X;X XY.).{.{.{.[. X[.U.k.D.+X%XP.",
"oX+X-X-XOXOX#X#XOXOX X{.].[.:X;X[.).`.[.T.E.~.+X@X@X#X-X-X;X:X;X:X:X:X;X[.[.{.OX[.).[.|.R.E.E.[.@X%X",
"-X-X;X-XOX{.~.~.{.;X#X;X;X{.m.M.[.).).[.*X*X[.[.[.-X-X;X;XQ.k.j.z.z.z.m.{.:X-X-X[.Y.).`. X:X{.[.*X=X",
"#X-X;X;XOX'.G.G.OX;X-X;X:XN.h A ].|.).`.[.{.`.).`.{.;X;X:Xf.2 # % % # h B.:XOX-X;X[.Y.Y. X#X[.Y.`.=X",
"-X-X-X#X-X{.W.W.OX#X;X:Xz.Z 8 f G M.[.[.{.{.[.[.[.*X>X{.6.x a y y i y p A l.:X=X=X=X`.`.[.OX{.).[.=X",
"#X-X;X-X#XOX-X;X-X;X{.B.Z 5 ^ T @ h.:X[.[.[.-X-X;X;X].z.3 t ,.1.1.1.1.#.6 Z M.`.[.-X;X[.[.[.OXOX=X=X",
"-X-X#X;X-X#X-X;X;X:Xm.h 8 ^ ) T # h.;X[.).[.{.-X;X;X6.3 [ *.1.1.1.1.1.<.#.u g l.`.{.;X[.Y.`.OX;X*X*X",
"-X;X-X-XOX-X-X-XOX>Xx.$ 7 ` ` Y # h.>X[.[.[.-X-X:X>XF * ..3.1.1.1.1.1.1.3.i $ l.=X*X;X{.`.[.OX-X=X=X",
"-X;X;X;X=X;X;X;X X`.g.: Y _ ` T ; I OX-X=X=X*X*X*X_.D = @.1.1.1.1.1.1.1.1.W : h.OX-X-X-XOXOX;X-X;X;X",
";X;X-X[.[.=X;X;X[.K s R / _ _ ( R s G ].;X*X;X:XB.V p  .:.1.1.1.1.=.,.1.1.*.[ d K #X;X;X;X;X#X-X;X;X",
"{.{.{.`.[.;X;X=X`.n & ( ' &.) ` ) 5 g C.:X*X=X>Xm.2 r 1.1.1.,.@.5.s.t.1.1.1.*.t x g._.;X;XOX-X-X X|.",
"`.[.[.).`.*X#X XT.b & / 4.r.&._ ( 5 b _.:X=X*X*Xl.: t 1.1.1.>.0 B <Xd.1.1.1.1.,.Q : h.:X;X-X;X#X[.`.",
"Y.`.{.[.[.[.[.|.U.b & ( 0.i.e.=.) 5 g _.:X;X*Xf.x [ #.1.1.3.:.9 1 Z 5.1.1.1.1.3.! @ h.:X;X;X-XOX`.Y.",
").[.;X*X[.).[.[.U.H s R | q.u.0.E w S _.;X;X;XC O $.3.1.1.1.:.9     ~ 1.1.1.1.1.! @ f.+XOX;X-X#X'.Y.",
"{.{.OX{.[.).).[.[.`.f.; X q w.o.; P Q.W.#X;X{.V = #.3.1.1.3.:.9   . [ 1.1.1.1.1.Q @ 6.oX#XOXOXOX*X*X",
";X;X;X-X[.`.).`.;X:XT.K 2 - 9.o.@ h.@XW.+XV.D c ] :.1.1.1.1.<.| W Q #.1.1.3.:.! d P n.G.{.OXOXOX=X;X",
"#X#X*X*X[.*X`.).{.{. X`.M * #.} > P n.E.B.6.< ~ 1.1.1.1.1.1.1.1.1.1.1.<.%.$...< D {.W.E.{.-X*X#X#X#X",
".X@X*X`.[.=X*X[.[.[.;X=XD * @.1.@.w A V.A w ..:.1.1.1.1.1.1.1.1.1.1.3.$.6 o < 6.C.#X#X{.#X;X-X;X@X$X",
"I./.{.`.`.*X*X[.).[.;X;Xh.Z a @.>.~ c S 2 - ;.3.1.1.@.! -.3.,.} W W W a N m F V.>X;X;X;X-X-X;X;X/.K.",
"J.^.{.`.`.*X*X[.`.[.;X-X:Xm.2 e ,.3.{ o . 9 ;.3.1.1.! - } ,.2.u O   . h N.;XOX-X-X;X;X;X;X{.*X;X/.J.",
"R.'. X{.*X=X*X*X{.{.;X;X>XN.2 e <.3.{ o r $.<.1.1.1.;.} 0 k r.w.O.O m m.{.:X;X;X;XOX#X-XOX`.`.{.|.R.",
"`.[.#X+X+X;X=X;X;X;X;X;X;XV.D l { :.} o ] 3.3.1.:.} ] ] j 7.i.a.9.O K ,X;X;X;X[.{.OX-X-X-X`.).*X|.`.",
" X=X#X.XoX;X-X;X;X*X=X=X;X=X`.J ; ..{ o ] 1.1.1.%.6 X > 9.i.i.i.8., J ].-X-X{.`.[.{.OX;X{.`.`. X#X#X",
"$X@X#XoX@X#X-X-X;X=X=X=X[.`. Xn.6.d = X ] 3.1.1.:.| o.9.y.p.u.O.v Z.L V M. X[.`.[.{.-X{.).F.H.#X@X%X",
"I.oX#X+X+XOXOXOXOX#XOX[.[.`.[.;X(.A 1   r #.<.1.1.3.e.p.p.y.8.> 4 Z.L n c.[.[.[.[.[.*X[.T.F.H.{.@XI.",
"oX@X;X;XOXOXOXOX-X-XOX{.[.[. X X`.).J +   6 %.1.1.,.0.u.p.8.=   . 2 P _.[.[.;X;X[.).[.[.).E.E.{.@X$X",
"+X#X;X;XOX#XW.W.OX-XOXOX*X[. X{.[.|.c.J 2 X 0 @.*.t u k k z S J J K M.;X=X[.{.=X[.).).`.].+X~.).'.+X",
";X*X;X;XOX'.H.H.#XOXOX;X;X;X;X=X[.).|.T.b . 4 X.-.l 2   # A G./.+X;X;X;X;X;X;X=X=X[.Y.).=X;X[.Y.[.;X",
"#X-X-X-X{.{.~.W. X;X;X;X;X;X-X;X=X[.=X_.g 4 A.d.t.&XU + I T.~.~.'.#X;X-X#X-X=X=X;X{.[.[.{.;X=X`.[.;X",
"-X;X#X;X-X#X{.'.#X;X;X#X@X@X X[.[.{.=X).h % U +.W U U K V.:X{. XOX;X-X#X@X+X X'.[.-X[.[.).[.;X[.{.;X",
";X#X*X-X-X-X-XOX;X*X;X+X.X.X}.).).{.;XT.C # % % 2 $ G -X;X;X;X;X#X#X-X+X$X.X}.Y.).{.;X[.Y.[.;X;X-X-X",
";X-X-X;X#X-X;X;X;X;X[.'.^.^.'.[.[.{.{.[.M.z.z.z.z.z.B.;X;X;X;X;X-X-X-X X^.^.'.`.[.*X;X[.`.[.*X-X-X#X",
"-X;X;X;X-X-X;X-X{.[.[.[.`.!. X{.-XOXOXOX;X;X:X:X:X:X:X-X-X;X-X;X{.[.{.[.!.`.{.{.*X*X-X{.[.#X-X-X-X;X",
";X;X;X;XOX#X-X#X[.).).[. X|.#X#X;X;X;XOX;X;X;X=X-X-X*X*X-X-X;X;X[.).`.[.[.{.{.#X#XOX;X-X;X;X-X;X;X-X",
";X;X[.).`.{.;X;X-X[.[.{.-X#X+X@XoX+X-X-X;X;X;X;X-X;X[.`.[.[.;X;X{.[.[.{.#X-X#X.XoX+X;X-X;XOX;X;X#X-X",
"[.[.{.).).-X;X[.[.E.~. X+X@X+XoXoX+X-X;X;X;X;X X{.[.[.).'.{.;X[.[.E.'.}.+X+X+X.XoX#X#X-X-X;X;XOX[.`.",
"b.).{.[.]. X{.`.F.S.G.XX.X%X+X#X#X#X;X;X;X;X;X[.).`.[.[.{.{.*X).U.v.D./.I.oX+X+X#X#X#XOX#X;X;XOX).b.",
").[.OXOX`.).[.[.).E.W.+X@X@X#X#X#X;X;X;X;X;X;X[.[.[.{.OX`.).[.[.!.E.~.~.oXoXOXOX#X-X-X-X-X-X;X-X[.).",
"{.OX-X{.[.Y.).[.[.{.[.[.{.#X;X;XOX'.'.'.#X-XOXOXOX{.-X{.`.).).[.{.{.{.'.{. XOX-X-XOX'.'.OX-X#X-XOX{.",
";XOX;XOX[.[.Y.).{.{.`.Y.`.#X;X;XOX~.H.H.~.-X;X;X;X;X-X;X{.`.Y.).[.{.).Y.[.{.OXOX-X#XD.D.'.#X-X-X-XOX",
"{.[.).[.-X{.`.`.*X{.[.`.[.;X;X-XOX'.~.W.'.OXOXOX;X-X#X;X-X{.[.[.{.OX[.`.[.{.-X-X-XOXE.H.#XOXOX-XOX-X",
"{.).b.[.;XOX-X{.#X-X-X{.-X-X;X;XOXOX#X{.OXOX-X#X-X-X-X-X#XOX{.OXOXOX#X{.-X-X-X;X-X#X#X#XOXOXOX-XOXOX"
};
