/* XPM */
static char *wall[] = {
/* columns rows colors chars-per-pixel */
"50 50 213 2 ",
"   c #283E02",
".  c #2A380B",
"X  c #2F2E1B",
"o  c #2D3719",
"O  c #373F1F",
"+  c #3B3D2B",
"@  c #473F33",
"#  c #1F5916",
"$  c #274504",
"%  c #284201",
"&  c #274807",
"*  c #2A4807",
"=  c #2A460C",
"-  c #264C0A",
";  c #294D0B",
":  c #314D0B",
">  c #25510D",
",  c #29510E",
"<  c #34520E",
"1  c #2A4E12",
"2  c #2A4815",
"3  c #36461C",
"4  c #255512",
"5  c #295511",
"6  c #265915",
"7  c #2A5A15",
"8  c #245C1A",
"9  c #295E19",
"0  c #325513",
"q  c #395511",
"w  c #345B15",
"e  c #3A5A15",
"r  c #345E19",
"t  c #3B5E18",
"y  c #2B6017",
"u  c #27631B",
"i  c #29631C",
"p  c #33641C",
"a  c #3C641C",
"s  c #33681E",
"d  c #374823",
"f  c #355A27",
"g  c #276A26",
"h  c #2D6A22",
"j  c #336C23",
"k  c #3B6C24",
"l  c #396629",
"z  c #27722B",
"x  c #337127",
"c  c #3A7126",
"v  c #35732A",
"b  c #3C752B",
"n  c #3D7A2E",
"m  c #247535",
"M  c #20763B",
"N  c #387A35",
"B  c #42651E",
"V  c #41691F",
"C  c #444737",
"Z  c #4D413E",
"A  c #445134",
"S  c #456720",
"D  c #446C23",
"F  c #496F26",
"G  c #446D2C",
"H  c #417127",
"J  c #4A7027",
"K  c #43752C",
"L  c #4C742A",
"P  c #427A2F",
"I  c #4D792D",
"U  c #50752A",
"Y  c #517B2E",
"T  c #496A39",
"R  c #437333",
"E  c #4C7734",
"W  c #437D32",
"Q  c #4B7D32",
"!  c #527C30",
"~  c #513F41",
"^  c #347D47",
"/  c #447948",
"(  c #537442",
")  c #537A4B",
"_  c #597F4C",
"`  c #557C50",
"'  c #39843B",
"]  c #468234",
"[  c #4B8235",
"{  c #43843C",
"}  c #4D8539",
"|  c #4E8A3A",
" . c #548334",
".. c #598435",
"X. c #588837",
"o. c #538639",
"O. c #5A863A",
"+. c #538B3C",
"@. c #5B8B3C",
"#. c #53913F",
"$. c #58903F",
"%. c #608E3E",
"&. c #63923F",
"*. c #3A844A",
"=. c #3E8C52",
"-. c #498549",
";. c #598E41",
":. c #568648",
">. c #4F9345",
",. c #569442",
"<. c #5B9342",
"1. c #529946",
"2. c #5C9A45",
"3. c #53964A",
"4. c #4D8B59",
"5. c #598759",
"6. c #4E9258",
"7. c #57915D",
"8. c #618F41",
"9. c #639443",
"0. c #629A46",
"q. c #689B47",
"w. c #649C49",
"e. c #6A9D4A",
"r. c #638B57",
"t. c #679A59",
"y. c #60A047",
"u. c #64A34D",
"i. c #6BA44D",
"p. c #71A74F",
"a. c #64A355",
"s. c #6AA550",
"d. c #6DAB52",
"f. c #72AD54",
"g. c #75B256",
"h. c #78B157",
"j. c #76B359",
"k. c #7AB55A",
"l. c #7DBA5E",
"z. c #558F61",
"x. c #4C9866",
"c. c #539365",
"v. c #569A68",
"b. c #5A9C73",
"n. c #669565",
"m. c #6D986C",
"M. c #6C9A73",
"N. c #6AA564",
"B. c #6DA772",
"V. c #75AF74",
"C. c #74A47A",
"Z. c #80BE60",
"A. c #84BC74",
"S. c #84C264",
"D. c #89CA69",
"F. c #8AC67B",
"G. c #67A784",
"H. c #77A987",
"J. c #7AB68C",
"K. c #7BB799",
"L. c #7DBEA2",
"P. c #7CC3A7",
"I. c #7DC4A9",
"U. c #81AA8E",
"Y. c #85BE87",
"T. c #83AE92",
"R. c #86B799",
"E. c #84BA9D",
"W. c #84BDA4",
"Q. c #8DBDA6",
"!. c #8AC68A",
"~. c #88C799",
"^. c #92CA9B",
"/. c #98CF9F",
"(. c #97D798",
"). c #9EE198",
"_. c #A8EF88",
"`. c #ABF189",
"'. c #A9E799",
"]. c #85C4A8",
"[. c #84C6AD",
"{. c #89C5AB",
"}. c #8CCDAB",
"|. c #95CBA3",
" X c #93C4AD",
".X c #93C9A8",
"XX c #9ACDAD",
"oX c #93D1A2",
"OX c #8BC9B3",
"+X c #8CC9B3",
"@X c #94C6B1",
"#X c #98C7B4",
"$X c #92CBB5",
"%X c #9BCDB4",
"&X c #95CCB9",
"*X c #9DCFBD",
"=X c #9DD4B6",
"-X c #9FD0BE",
";X c #A6DFA7",
":X c #A5DDAA",
">X c #A0CFBF",
",X c #A2D6B6",
"<X c #A5DAB3",
"1X c #A1D1BD",
"2X c #A5D8BC",
"3X c #A7E1A5",
"4X c #A9E3A3",
"5X c #ABE0B5",
"6X c #9ECFC0",
"7X c #9FD0C0",
"8X c #A0CFC1",
"9X c #A0D0C1",
"0X c #A5D5C8",
/* pixels */
"9X8X9X7X9X7X9X9X9X9X>X8X8X8X6X9X9X9X1X8X7X7X9X0X6X6X8X8X>X8X>X8X>X9X1X8X9X9X8X8X9X9X9X9X7X9X9X7X9X6X",
"4X<X9X9X9X9X7X9X8X8X9X1X9X9X6X*X&X&X&X*X7X&X&X=X2X<X2X0X8X8X8X>X9X9X8X8X9X>X8X1X&X$X&X>X-X&X$X*X<X4X",
"_.).7X7X7X9X9X9X1X8X8X1X>X8X8X*X+X[.+X*X&XOX].^.(.(./.%X>X>X>X9X8X8X9X9X1X8X9X9X+XI.$X*X-X[.[.&X3X_.",
"~.oX7X9X9X1X9X7X9X8X8X9X9X1X9X*X+X[.OX*X&XE.N.a.s.:.<.N. X0X9X>X8X1X8X8X8X8X9X9X+XP.+X*X-X[.I.&X}.~.",
"[.+X7X9X9X7X9X7X8X1X8X8X1X8X8X*X&X$X&X-XK.B.w.w.,.P ] w.B.E.9X9X>X9X9X8X>X9X9X8X&X+X&X*X6X+X+X*X+X[.",
"6X-X7X*X-X-X9X9X9X9X8X9X8X>X8X>X7X7X-X X7.n a.d.u.;.0.u.W 7.#X9X9X8X>X1X9X9X8X8X-X9X1X>X9X8X*X>X-X-X",
"1X9X*X[.+X*X9X1X8X*X*X8X8X9X>X8X9X9XW.x.3.#.' N E b :.<.2.>.c.W.0X8X*X8X>X9X9X1X9X9X9X9X9X1X1X9X1X1X",
";X<X*XOXOX7X9X7X>X6X6X1X8X9X8X0X9X XM.M 1.a.' g f f b ;.d.1.m b.W.*X0X9X8X1X8X9X9X9X9X9X8X1X1X8X<X3X",
"`.3X8X6X*X9X9X1X8X8X1X8X*X8X*X*X@Xt.N m 1.d.<.R f g R ,.d.1.m M x.+X6X6X6X6X8X9X7X*X7X7X9X9X*X-X3X`.",
";X<X8X8X9X9X9X8X8X9X8X8X0X&XG.c.5.N h z 1.j.h.w.E l } g.k.1.z g N 7.v.G.$X0X9X9X&XOX&X7X7X+XOX*X,X:X",
"8X8X9X8X9X9X8X1X1X9X9X9X*XK.=.z x x x x ,.h.l.f.;.k #.l.l.2.x j x x m =.R.=X8X9X$X[.$X*X*XOX{.*X8X8X",
"9X8X9X8X*X8X8X9X8X9X9X>X~.N.1.| ] W W W ;.0.y.X.L E @.u.d.0.] W ] ] | 1.N.E.8X9X-X*X*X-X9X*X>X>X8X6X",
"9X9X*X+X+X8X9X8X8X*X9X0XY.2.d.g.s.,.n n o.@.] #.9.9.o.] 2.;.b n #.i.g.f.a.v.G.$X0X9X8X9X8X8X8X8X0X6X",
"8X9X*X[.[.6X9X6X6X*X&X{.C.3.j.S.l.2.n v [ [ b $.h.e.] x o.o.v n 1.l.S.j.1.' *.J.&X>X9X8X8X,X,X1X6X6X",
"1X8X>X%X&X*X6X6X*X+XK.7.W n | u.d.,.| ;. .U b +.e.%.I b L  .<.| ,.d.u.#.n v N *.G.7X9X9X>X;X4X,X8X>X",
"8X9X1X^.^.+X*X6X-X~.B.3.| | +.,.>.;.2.d.i.@.K K I D k H @.i.f.2.#.#.#.| | #.#.{ 6.H. X0X8X:X;X,X8X8X",
"9X8X%X!.!.I.$X*X XC.e.h.k.g.y.+.] ,.d.Z.S.f.L a s s a J d.S.S.f.2.P | 2.g.j.h.e.| *.T.0X>X>X>X>X8X8X",
"9X*X*XXX}.$X7XR._ O.q.f.l.l.y.#.#.f.S.S.l.w.K | u.s.0.@.| y.S.S.d.2.#.2.l.l.h.e.E G U.1X>X>X>X>X8X6X",
"*X$X+X*X0X*XQ.m.J U ..O.q.s.#.+.,.d.f.u.w.+.] u.D.D.l.2.n ] y.u.y.@.o.#.i.q.@...U U N.R.1X>X8X>X*X*X",
"$X[.[.&X>X Xr...q.Y t e S Q } ] ] ] ] n n ] #.d.S.S.g.#.] n x x c I [ [ [ D e e F %.! t..X>X8X8X&X+X",
"[.OX$X7XT.) l c W c w q J &.i.w.| ] [ [ P b n ] #.#.{ n n n W W P | 0.i.9.J q w a K c c ) T.0X8X$X[.",
"OX&X7X0XC.0 p W c p r D %.h.S.f.+.o.@.q.Q j i x n ' v i s Q e.9.X.+.d.S.l.&.F p p k b a 0 H.0X8X&XOX",
"*X6X7X7XH.b o.8.X.B B X.h.S.Z.i.X.&.f.Z. .e k o.y.i.o.k w Y l.h.&...q.Z.S.h.@.B a ! ;.o.K H.8X8X*X6X",
"6X9X#XM.:.;.9.%.F r r L X.&.....%.f.Z.p.X. .$.d.Z.Z.f.9.Y ..i.l.h.%.Y ..&.@.I t r D %.8.;.:.M.#X0X8X",
"1X0X X` G O.O.! S p i r p B e a ..i.i. . .&.h.S.S.D.S.k.&. .U y.p.@.B w a a p 9 j S U O.:.G ` Q.9X1X",
"3X:X>XQ.m.e : S @.O.W j i h i 9 w q e p < V p.S.S.D.S.f.F w p w e w y i h i j P o.O.S q q m.Q.#X<X4X",
").:X-XT.r.S : B 9.<.Q b x x j 9 4 , 5 u 6 y [ q.h.h.q. .y 6 y 7 5 4 u h x x x [ ;.8.S < S r.C.H.~.).",
"(.oXR.:.U %.t e O.+.[ ] W P k j s v n v h i 5 D ....D 5 u s x n c j p k P ] ] [ O...t t ..Y G / B.(.",
"XXM.T ! O.b 0 : S  .;.<.O.L F L [ o.@.o.P i , 7 s k 7 > u n o.+.O.! L G L O.9.<.o.D : 0 c o.Y 0 n.}.",
"&XH.) E D r r t w D I ! J S S U &.q.9.+.c 7 5 7 i i 7 , 7 k o.9.q.8.! D B F ! Y D r t t r D E ( H.&X",
"-X9XQ./ 1 ; U o.i 7 ; , = ; e U %.9.;.b 0 , u x b b x i , 5 x +.9.%.U t ; = ; ; 5 i [ I q 1 / Q.*X*X",
"4X<X6XT.` : ! <.P j 7 5 ; $ * q B J D p 5 7 b } @.+.o.K 7 , w D U B q * $ ; 4 6 j K ;.! < ` T.>X<X;X",
"'.:X0X0XT.T ! U G j u 5 , & ; , 0 w w 0 , 7 V X.q.e.O.D 7 , , w e 0 , - ; ; 6 u h c U E ( T.0X*X:X'.",
"3X<X6X6X>XQ.( * ; 5 6 & & , u i i , , 7 , * * F 9.9.U * $ > y 5 , i i u 5 ; & , 5 , = ( Q.#X$X*X<X;X",
",X1X8X8X0X*XT.` 4 > 4 ; , u u u 8 6 5 8 - * > p D D a ; $ = 7 6 8 7 u i u y w 7 , 1 ) H.6X&X+X6X1X,X",
"1X8X6X*X*X*X0XE./ f > 8 u i u 5 6 y y 5 - , y 8 4 4 8 u , ; 4 9 y 5 7 7 u h k 0 r / K.0X6X&X$X*X8X8X",
"8X9X-X+X$X7X9X*XQ.) > u u 7 6 7 u h 8 , > 6 u u h u h u 8 > ; 8 i u 8 5 5 y 7 ; ( Q.*X8X6X6X*X9X8X9X",
"9X9X-X+X$X9X-X0X7X5.4 4 , = & > 7 u 8 ; 5 u g h h u u h i 4 ; 9 i u , & - ; ; ; 5.>X0X8X9X,X<X1X8X8X",
">X9X*X@X$X-X7X9X&Xc.8 & %   % $ , 7 4 ; 7 u h 8 6 8 u u u 7 ; 8 u 5 &   % % & 4 z.>X0X>X6X:X:X1X8X1X",
"9X9X*X^.~.{.&X0X&Xc.# ; % % % % $ $ = 2 1 6 u 4 = 3 f u 6 5 2 1 4 , * % % % ; 8 c.*X9X8X8X:X:X1X8X8X",
"1X9X*X^.~.{.&X7X@Xz.8 & %   %     . . o O d f d 3 @ C f d O o = & $ % % % % & 6 z.>X0X>X>X,X,X>X8X1X",
"9X-X*X|.}.$X&X*X{.4.4 &   % % %   . X X @ @ Z ~ @ ~ Z Z @ @ o . % %   %     $ 4 5.*X>X>X>X>X1X>X6X9X",
"9X&XOX%X*X&X+X+X{.4.6 & % %     %   . o + d Z Z ~ ~ Z C C + o .   %       % $ 4 z.%XXX|.,X>X8X8X6X9X",
"$XOX{.*X>X1X+X+X$XG./ 8 - $ $ %   % ; l T T T A C Z A T T T l , %   % $ $ - 7 ^ H.&X^.^.1X>X9X>X*X$X",
"P.[.$X*X9X*X&X&X*X*XK.*.g u , & $ ; p +.u.i.;.E l f R ;.i.s.,.k - $ $ , i h ^ R.>X1XXXXX%X>X>X>X+XP.",
"OX$X*X7X&X+X&X6X6X&X[.J.V.N.N # 7 7 s n 2.g.h.q.Q i ] h.k.y.P j y 6 # v N.V.J.&X9X>X*X*X>X>X8X>X&X+X",
"*X6X7X7X&X{.}.%X*X+X+X1X5X(.x.*.-.-.-.-.a.A.F.A.N.:.t.!.A.N.] -.-.-.=.v./.5X=X*X>X>X&X*X>X>X>X8X*X*X",
"7X7X7X7X>X%X!.!.*X6X-X-X-X}.L.L. X{.L.L.{.%X%X%X#X X X,X%X^.Y.Y.~. X@X@X=X$X[.$X*X*XOX{.&X>X>X>X9X>X",
"9X9X9X9X8X*X|.|.1X>X>X8X>X*X&X*X0X6X*X&X7X7X7X0X0X0X8X0X8X*XXXXX1X9X0X9X8X&X$X&X>X>X$X$X*X6X&X+X$X8X",
"*X9X9X9X>X>X*X1X>X>X>X1X8X*X*X*X6X6X6X*X7X7X6X6X9X8X*X8X>X>X1X*X>X>X8X1X9X>X>X8X>X>X*X*X8X8X&XP.+X*X"
};
