/* XPM */
static char *close_exit[] = {
/* columns rows colors chars-per-pixel */
"32 32 142 2 ",
"   c black",
".  c #A40606",
"X  c #E90303",
"o  c #EF6969",
"O  c #7FC27D",
"+  c #83C26F",
"@  c #85C271",
"#  c #7CC28B",
"$  c #78C299",
"%  c #73C1A2",
"&  c #75C1A3",
"*  c #76C2A4",
"=  c #78C2A5",
"-  c #79C3A6",
";  c #7BC3A7",
":  c #7DC4A9",
">  c #7EC4A9",
",  c #7FC5AA",
"<  c #ADABAB",
"1  c #8AC580",
"2  c #8BC581",
"3  c #8BC686",
"4  c #8EC78A",
"5  c #8FC78D",
"6  c #8FC78F",
"7  c #88C690",
"8  c #90C890",
"9  c #91C893",
"0  c #92C996",
"q  c #93C99B",
"w  c #93CA9D",
"e  c #94CA9E",
"r  c #91DB93",
"t  c #90DC90",
"y  c #ACEE8F",
"u  c #AFF584",
"i  c #AEF388",
"p  c #ADF08B",
"a  c #B0F880",
"s  c #A0E396",
"d  c #AAEA95",
"f  c #AAEA96",
"g  c #A0E199",
"h  c #A9E79A",
"j  c #A9E69C",
"k  c #A8E49F",
"l  c #A9E899",
"z  c #AAE998",
"x  c #83C6A4",
"c  c #88CEA2",
"v  c #8ACEA4",
"b  c #80C5AB",
"n  c #81C5AB",
"m  c #82C6AC",
"M  c #83C6AC",
"N  c #83C6AD",
"B  c #84C6AD",
"V  c #85C7AE",
"C  c #86C7AF",
"Z  c #87C7AF",
"A  c #8FCAAF",
"S  c #92CAA3",
"D  c #97CBA5",
"F  c #97CBA7",
"G  c #90CAA9",
"H  c #99CCAB",
"J  c #99CCAD",
"K  c #89C8B0",
"L  c #89C8B1",
"P  c #8AC8B1",
"I  c #8BC9B2",
"U  c #8CC9B2",
"Y  c #8CC9B3",
"T  c #8DC9B3",
"R  c #8ECAB4",
"E  c #8FCAB4",
"W  c #8FCAB5",
"Q  c #90CAB5",
"!  c #91CBB6",
"~  c #92CBB7",
"^  c #93CBB7",
"/  c #9BCDB1",
"(  c #9BCEB4",
")  c #98CFB6",
"_  c #9BCEB6",
"`  c #9CCEB4",
"'  c #9CCEB6",
"]  c #9DCEB7",
"[  c #94CCB8",
"{  c #95CCB9",
"}  c #96CCB9",
"|  c #97CDBA",
" . c #9ACEB8",
".. c #9ACFB8",
"X. c #98CDBA",
"o. c #98CDBB",
"O. c #99CDBB",
"+. c #9ACEBA",
"@. c #9ECFBA",
"#. c #9ACEBC",
"$. c #9BCEBD",
"%. c #9CCEBD",
"&. c #9ECFBC",
"*. c #9FCFBD",
"=. c #9DCFBE",
"-. c #9ECFBE",
";. c #9ECFBF",
":. c #9FCFBF",
">. c #A6DFA7",
",. c #A5DEA9",
"<. c #A6DFA8",
"1. c #A5DDAB",
"2. c #A4DBAE",
"3. c #A4DAAF",
"4. c #A0D6B2",
"5. c #A3D7B3",
"6. c #A0D4B5",
"7. c #A3D7B4",
"8. c #A2D6B5",
"9. c #A2D5B7",
"0. c #A2D6B6",
"q. c #A3D8B2",
"w. c #A1D3B9",
"e. c #A1D3BA",
"r. c #A1D2BB",
"t. c #A1D3BB",
"y. c #A1D4B8",
"u. c #A1D4B9",
"i. c #A2D5B8",
"p. c #A0D1BD",
"a. c #A0D2BC",
"s. c #A1D2BC",
"d. c #A0D0BE",
"f. c #A0D1BE",
"g. c #A0D0BF",
"h. c #A7E3A0",
"j. c #A7E2A2",
"k. c #A6E1A4",
"l. c #A7E1A4",
"z. c #A8E4A0",
"x. c #A0D0C0",
"c. c white",
/* pixels */
"x.x.x.x.x.x.x.x.x.x.x.x.x.x.x.x.x.x.x.x.x.x.x.x.x.x.x.x.x.x.x.x.",
"a x.x.x.x.x.x.x.x.x.! , x.R V l.z.x.x.x.x.x.x.x.x.x.- | x.* =.u ",
"% x.=.x.x.x.x.x.x.x.x.x.x.x.x.U L ;.;.x.x.x.x.x.x.x.x.x.x.x.x.& ",
"x.x.& x.x.:.=.x.x.x.x.x.x.d.p.x.x.L U x.x.-.:.x.x.x.x.x.x.a.g.x.",
"i.x.( #.x.#.: ;.$.x.x.x.x.1.h.a.s.@. .=.x.V ~ $.;.x.x.x.x.y a.y.",
"i x.+ = :.#.x.X.b x.x.x.x.x.x.>.l.0 # T %.=.x.M { x.x.x.x.x.x.p ",
"x.| x.:.^ : x.x.x.x.x.@.` x.x.x.$.$.x.#.B ! x.x.x.x.x./ *.x.x.x.",
"x.- x.=.: x.x.x.x.x.x.F 6 x.x.x.Y Y x.P ! x.x.x.x.x.x.1 ' x.x.x.",
"x.x.:.[ x.;.} p.7.x.x.x.x.x.x.x.x.x.O.#.x.o.%.8.s.x.x.x.x.x.x.x.",
"x.x.=.> x.$.m 6.s x.x.x.x.x.x.x.x.x.I Q x.L [ g 4.x.x.x.x.x.x.x.",
"x.x.x.x.x.x.x.O.Z %.{ x.x.x.        x.x.x.x.x.K | [ =.x.x.x.x.x.",
"x.x.x.x.x.p.3.x.x.| K x.    X . . .     x.5.w.x.x.Z O.x.x.~ :.x.",
"R x.x.x.x.t.k r.2.] S   X X o X . . . .   >.5.3.e.D A %.x.V -.E ",
"m x.x.x.x.x.x.y.j./ 7   X o c.o X X . .   x.x.k.0.9 x #.Q =.x.N ",
"x.x.x.*.q x.x.x.#.Q   X X X o X X X . . .   x.x.Q #.x.R V %.x.x.",
"x.x.x.&.8 x.x.x.O.I   X X X X     . . . .   x.x.I O.x.P %.x.x.x.",
"z.x.x.x.x.x.x.x.x.x.    X X   c.c.  . .     x.x.x.x.Y $.x.I ;.j.",
"t x.x.x.x.x.x.x.x.x.  c.      c.c.      <   x.x.x.x.Y $.x.I ;.r ",
"I x.C x.x.x.x.x.x.x.x.  c.c.c.    < < <   x.x.x.x.x.x.x.x.x.x.U ",
"x.x.U x.x.%.P x.x.x.x.  < c.c.c.c.< < <   E | x.x.x.x.x.x.h.p.x.",
"z x.3 N x.=.! #.L x.x.x.    < < < <     x.[ #.I o.x.x.x.x.1.d.h ",
"<.x.w E %.V x.%.~ x.x.x.x.x.        G X.T [ x.^ $.x.x.x.x.x.x.,.",
"x., x.=.n ~ x.x.x.x.x.H 0 x.x.x.W W x.T P #.x.x.x.x.x.4 ] x.x.x.",
"x.! x.:.~ x.x.x.x.x.x.' J x.x.x.o.o.x.| #.x.x.x.x.x.x.F &.x.x.x.",
"x.x.=.> x.$.m 9.j x.x.x.x.x.x.x.x.x.I Q x.L [ k 7.x.x.x.x.x.x.x.",
"x.x.:.[ x.;.} ..c x.x.x.x.x.x.x.x.x.O.#.x.o.%.v ) x.x.x.x.x.x.x.",
"x.x.x.x.x.x.x.-.O.} V x.x.x.x.x.x.x.x.x.x.x.x.O.=.m o.x.x.x.x.x.",
"x.x.x.x.x.u.d x.x.=.O.x.x.! P x.x.x.x.x.x.k 3.x.x.O.-.x.x.: =.x.",
"* x.x.x.x.g.u.8.f H O M x.=.%.T I x.x.x.x.t.p.l q.2 $ X.x.#.:.= ",
"#.x.x.x.x.x.x.d.e.*._ $.Q V x.=.=.x.x.x.x.x.x.e.f.] +.;.; #.x.#.",
"x.x.x.@.@ x.x.x.[ > x.! m -.x.x.x.x.x.5 e x.x.x.> [ x.; | :.x.x.",
"x.x.x.:.@.x.x.x.:.=.x.:.-.x.x.x.x.x.x.&.*.x.x.x.=.:.x.=.:.x.& =."
};
