/* XPM */
static char *close[] = {
/* columns rows colors chars-per-pixel */
"32 32 118 2 ",
"   c black",
".  c #000101",
"X  c #010202",
"o  c #020202",
"O  c #020302",
"+  c #020303",
"@  c gray1",
"#  c #040000",
"$  c #030404",
"%  c #040404",
"&  c #040505",
"*  c gray2",
"=  c #060606",
"-  c #060706",
";  c #060707",
":  c #090000",
">  c #0D0000",
",  c #080909",
"<  c #080A09",
"1  c #090B0A",
"2  c #110000",
"3  c #1A1E1D",
"4  c #1A1F1D",
"5  c #310000",
"6  c #28322E",
"7  c #28322F",
"8  c #450000",
"9  c #980000",
"0  c #990000",
"q  c #9A0000",
"w  c #B50000",
"e  c #B60000",
"r  c #EE0000",
"t  c #EF0000",
"y  c red",
"u  c #FF0101",
"i  c #FF6363",
"p  c #FB6767",
"a  c #FF6969",
"s  c #FD6C6B",
"d  c #FC6D6C",
"f  c #EF726F",
"g  c #87C47D",
"h  c #7D9F94",
"j  c #7DA095",
"k  c #7EA195",
"l  c #7EA196",
"z  c #7EA296",
"x  c #7FA297",
"c  c #7AC2A6",
"v  c #7BC3A7",
"b  c #7CC3A8",
"n  c #7DC3A8",
"m  c #7CC4A8",
"M  c #7DC4A8",
"N  c #7EC4A9",
"B  c #7FC5AA",
"V  c #82A69A",
"C  c #88AEA1",
"Z  c gray73",
"A  c #8AC480",
"S  c #92C99C",
"D  c #A3EB88",
"F  c #A3EA8B",
"G  c #ABEC91",
"H  c #ABEC92",
"J  c #AAEA94",
"K  c #80C5AA",
"L  c #82C5AC",
"P  c #83C6AD",
"I  c #84C6AD",
"U  c #85C6AD",
"Y  c #96CBAB",
"T  c #99CCAC",
"R  c #99CCAD",
"E  c #99CDAF",
"W  c #8ECAB4",
"Q  c #99C6B7",
"!  c #99C7B7",
"~  c #90CAB5",
"^  c #93CBB4",
"/  c #93CBB7",
"(  c #94CBB7",
")  c #99C7B8",
"_  c #9AC7B8",
"`  c #94CBB8",
"'  c #97CDB9",
"]  c #97CCBA",
"[  c #97CDBA",
"{  c #98CCBA",
"}  c #99CDBA",
"|  c #99CDBB",
" . c #9ACDBB",
".. c #9DCEB9",
"X. c #9ECFBB",
"o. c #9BCEBD",
"O. c #9CCEBD",
"+. c #9CCEBE",
"@. c #9DCEBE",
"#. c #9DCFBE",
"$. c #9ECEBE",
"%. c #9ECFBE",
"&. c #9FCFBE",
"*. c #9ECFBF",
"=. c #9FCFBF",
"-. c #A5DFA7",
";. c #A5DEA8",
":. c #A2D7B3",
">. c #A2D6B4",
",. c #A2D7B4",
"<. c #A1D4B7",
"1. c #A1D5B7",
"2. c #A0D2BA",
"3. c #A0D2BB",
"4. c #A0D1BC",
"5. c #A0D0BE",
"6. c #A0D0C0",
"7. c white",
/* pixels */
"1.6.6.6.6.6.6.6.6.6.#.                    6.6.6.6.6. .%.6.| %.<.",
"D 6.6.6.6.6.6.6.6.6.`                     6.6.6.6.6.K } 6.m O.F ",
"c =.[ =.6.V z z l l k 8 8 5 5 5 5 5 5 5 5 l h j l x C 6.6.6.6.v ",
"6.=.b =.6.3           y y e w w w w w w w           6 6.6.>.5.6.",
",.=.E ' 6.4           y y e w w w w w w w           7 6.6.G 2.>.",
"H =.g     r y y y y y a a u y y w w w w w w w w w w 9     6.6.J ",
"=./ =.    r y y y y y a a u y y w w w w w w w w w w 9     6.6.6.",
"#.M *.    r y y y y y a a u y y w w w w w w w w w w 9     6.6.6.",
"6.6.*.    r y y a a s 7.7.d a a y y y y y w w w w w 9     6.6.6.",
"6.6.#.    r y y a a a 7.7.d a a y y y y y w w w w w 9     6.6.6.",
"_ ) Q > > t y y i i f 7.7.p i i y y y y y w w w w w q : : ! ! ) ",
"      y y y y y y y y a a u y y y y y y y w w w w w w w w       ",
"      y y y y y y y y a a u y y y y y y y w w w w w w w w       ",
"      y y y y y y y y y y #         2 w w w w w w w w w w       ",
"      y y y y y y y y y y #           w w w w w w w w w w       ",
"      y y y y y y y y y y #           w w w w w w w w w w       ",
"          r y y y y y     7.7.7.7.7.7.    w w w w w 9           ",
"          r y y y y y     7.7.7.7.7.7.    w w w w w 9           ",
"      X . r y y y y y     7.7.7.7.7.7.    w w w w w 0 O O       ",
"    . 7.7.                7.7.7.7.7.7.                Z Z       ",
"      7.7.                7.7.7.7.7.7.                Z Z       ",
"-.=.S + = 7.7.7.7.7.7.7.7.1 @ @ * , $ Z Z Z Z Z Z Z Z @ @ 6.6.;.",
"%.P *.    7.7.7.7.7.7.7.7.;           Z Z Z Z Z Z Z Z     6.6.6.",
"=.W =.    7.7.7.7.7.7.7.7.-           Z Z Z Z Z Z Z Z     6.6.6.",
"6.6.#.    7.7.7.7.7.7.7.7.7.7.7.7.7.7.Z Z Z Z Z Z Z Z     6.6.6.",
"6.6.*.    Z Z 7.7.7.7.7.7.7.7.7.7.7.7.Z Z Z Z Z Z Z Z     6.6.6.",
"6.6.6.o + Z Z 7.7.7.7.7.7.7.7.7.7.7.7.Z Z Z Z Z Z Z Z X o 6.6.6.",
"6.6.6.6.6.            Z Z Z Z Z Z Z Z Z Z             6.6.K O.6.",
"N 6.6.6.6.          o Z Z Z Z Z Z Z Z Z Z             | 6.( $.B ",
"/ 6.6.6.6.6.6.4.:...Y % % % % % * & - < , 6.6.>.3.T ^ @.B o.6.` ",
"6.6.6.X.A 6.6.6.[ I 6.                    6.6.6.U ] 6.L ~ %.6.6.",
"6.6.6.&.R 6.6.6.#.{ 6.                    6.6.6.[ +.6.] *.6.n O."
};
