/* XPM */
static char *collect[] = {
/* columns rows colors chars-per-pixel */
"32 32 66 1 ",
"  c #3F773F",
". c #515151",
"X c gray32",
"o c #506A50",
"O c #417F58",
"+ c #525268",
"@ c #56546F",
"# c #5E5677",
"$ c #52527F",
"% c #436671",
"& c #398539",
"* c #3B8E3B",
"= c #3D903D",
"- c #3F983F",
"; c #458945",
": c #50984E",
"> c #589256",
", c #41A041",
"< c #49A647",
"1 c #4AB54A",
"2 c #62A05E",
"3 c #54C352",
"4 c #5ED25A",
"5 c #6DD46B",
"6 c #73EF6B",
"7 c #77E273",
"8 c #49588E",
"9 c #565485",
"0 c #5A568C",
"q c #625894",
"w c #6B5A9C",
"e c #546D85",
"r c #5252AD",
"t c #5E58A9",
"y c #5654B3",
"u c #5A56B9",
"i c #5E58BF",
"p c #675AB1",
"a c #6F5CB9",
"s c #6B60B7",
"d c #6258C1",
"f c #675AC8",
"g c #6B5ACA",
"h c #6B5CCE",
"j c #6F5CD0",
"k c #735ED6",
"l c #775ED8",
"z c #7B64C7",
"x c #6F60D0",
"c c #7362D6",
"v c #7366D6",
"b c #7764DC",
"n c #7B60DE",
"m c #7B64DE",
"M c #7F66E4",
"N c #8463E7",
"B c #836CEA",
"V c #8869ED",
"C c #8C6FF3",
"Z c #8772F0",
"A c #9075F9",
"S c #947BFF",
"D c #A089FF",
"F c #AD98FF",
"G c #C6B5FF",
"H c None",
/* pixels */
"HHHHHHHHHHHHHHHHHHHHHHHHHHHHHHHH",
"HHHHHHHHHHHHHHHHHHHHHHHHHHHHHHHH",
"HHHHHHHHHHHHHHHHHHHHHHHHHHHHHHHH",
"HHHHHHHHHHHHHHHHHHHHHHHHHHHHHHHH",
"HHHHHHHHHHHHHHHHHHHHHHHHHHHHHHHH",
"HHHHHHHHHHHHHHHHHHHHHHHHHHHHHHHH",
"HHHHHHHHHHHHHHHHHHHHHHHHHHHHHHHH",
"HHHHHHHHHHHHHHHHHHHHHHHHHHHHHHHH",
"HHHHHHHHHX>2oXHHHHHHHHHHHHHHHHHH",
"HHHHHHHHHX:467XHHHHHHHHHHHHHHHHH",
"HHHHHHHHHHHX 5;X0w@.HHHHHHHHHHHH",
"HHHHHHHHHHH#@*,-eSN$X.HHHHHHHHHH",
"HHHHHHHHHHXA<663=NnunaXHHHHHHHHH",
"HHHHHHHHHX+cO111&iMCbnqHHHHHHHHH",
"HHHHHHHH.sVf8&=%ygFFSkqHHHHHHHHH",
"HHHHHHHHXMVhrrxASMZSSv+HHHHHHHHH",
"HHHHHHHH.qMCMcDGDSMSAd+HHHHHHHHH",
"HHHHHHHHXzFFSCDGDSBjhjp.HHHHHHHH",
"HHHHHHHHXCSSSASSSSBrkNNXHHHHHHHH",
"HHHHHHHH.bSSSmVSSCfffNpXHHHHHHHH",
"HHHHHHHHH@MCndfjgulNk@XHHHHHHHHH",
"HHHHHHHHHHX9+hCNnjSNjXHHHHHHHHHH",
"HHHHHHHHHHHH.pCNntkf@HHHHHHHHHHH",
"HHHHHHHHHHHHHX@0+XXXHHHHHHHHHHHH",
"HHHHHHHHHHHHHHHHHHHHHHHHHHHHHHHH",
"HHHHHHHHHHHHHHHHHHHHHHHHHHHHHHHH",
"HHHHHHHHHHHHHHHHHHHHHHHHHHHHHHHH",
"HHHHHHHHHHHHHHHHHHHHHHHHHHHHHHHH",
"HHHHHHHHHHHHHHHHHHHHHHHHHHHHHHHH",
"HHHHHHHHHHHHHHHHHHHHHHHHHHHHHHHH",
"HHHHHHHHHHHHHHHHHHHHHHHHHHHHHHHH",
"HHHHHHHHHHHHHHHHHHHHHHHHHHHHHHHH"
};
