/* XPM */
static char *floor[] = {
/* columns rows colors chars-per-pixel */
"32 32 238 2 ",
"   c #7FC27E",
".  c #85C37A",
"X  c #89C57C",
"o  c #7CC28D",
"O  c #7AC29A",
"+  c #7AC3A7",
"@  c #7BC5A5",
"#  c #7BC4A7",
"$  c #7DC4A9",
"%  c #7EC5A9",
"&  c #7FC5A9",
"*  c #7EC5AA",
"=  c #7FC5AA",
"-  c #8BC581",
";  c #8BC682",
":  c #8BC687",
">  c #8DC686",
",  c #8EC78B",
"<  c #83C596",
"1  c #88C690",
"2  c #90C890",
"3  c #91C892",
"4  c #91C893",
"5  c #91C994",
"6  c #92C895",
"7  c #93CA99",
"8  c #95C99D",
"9  c #95CA9E",
"0  c #8DD992",
"q  c #9DE295",
"w  c #9EE296",
"e  c #A8EE8B",
"r  c #ABEC93",
"t  c #ACEE90",
"y  c #ABEA96",
"u  c #A9E79B",
"i  c #AAE79B",
"p  c #A9E69D",
"a  c #AAE998",
"s  c #AAE999",
"d  c #ABEA99",
"f  c #ABE89B",
"g  c #84C6A4",
"h  c #86CDA2",
"j  c #80C5AB",
"k  c #81C6AB",
"l  c #81C6AC",
"z  c #82C6AC",
"x  c #83C6AC",
"c  c #82C6AD",
"v  c #83C6AD",
"b  c #84C7AC",
"n  c #84C7AD",
"m  c #84C6AE",
"M  c #85C7AE",
"N  c #86C7AF",
"B  c #87C8AF",
"V  c #8DC9AD",
"C  c #91C9A0",
"Z  c #95CBA0",
"A  c #97CBA1",
"S  c #94CBA2",
"D  c #96CBA2",
"F  c #96CBA3",
"G  c #97CCA5",
"H  c #90CAAA",
"J  c #98CBA8",
"K  c #98CCA9",
"L  c #99CDAC",
"P  c #9ACDAE",
"I  c #9BCDAF",
"U  c #95D5A6",
"Y  c #96D5A7",
"T  c #86C7B0",
"R  c #87C7B1",
"E  c #88C7B2",
"W  c #87C8B0",
"Q  c #87C8B1",
"!  c #88C8B0",
"~  c #89C8B1",
"^  c #8AC9B1",
"/  c #8BCAB1",
"(  c #8AC9B2",
")  c #8BC9B2",
"_  c #8AC9B3",
"`  c #8CC9B3",
"'  c #8DCAB3",
"]  c #8DC9B4",
"[  c #8CC8B5",
"{  c #8DCAB4",
"}  c #8ECAB4",
"|  c #8FCAB4",
" . c #8ECAB5",
".. c #8FCAB5",
"X. c #8FCBB6",
"o. c #90CBB5",
"O. c #90CBB6",
"+. c #91CBB6",
"@. c #90CAB7",
"#. c #90CBB7",
"$. c #92CBB6",
"%. c #92CBB7",
"&. c #93CCB7",
"*. c #97CFB6",
"=. c #9ACDB1",
"-. c #9BCEB2",
";. c #98CDB5",
":. c #9BCEB7",
">. c #9CCEB4",
",. c #9DCEB4",
"<. c #9CCEB5",
"1. c #9DCEB6",
"2. c #9DCEB7",
"3. c #91CBB8",
"4. c #93CBB9",
"5. c #94CBB9",
"6. c #93CCB8",
"7. c #93CCB9",
"8. c #94CCB8",
"9. c #95CCB8",
"0. c #94CCB9",
"q. c #95CCB9",
"w. c #96CDB9",
"e. c #95CCBA",
"r. c #96CCBA",
"t. c #96CDBA",
"y. c #97CDBA",
"u. c #97CDBB",
"i. c #98CDBA",
"p. c #98CDBB",
"a. c #99CEBB",
"s. c #9ACEBB",
"d. c #9BCEBB",
"f. c #9DCFB8",
"g. c #9ECFB9",
"h. c #9ECFBB",
"j. c #99CDBC",
"k. c #99CDBD",
"l. c #98CEBC",
"z. c #99CEBC",
"x. c #9ACEBC",
"c. c #9BCEBC",
"v. c #9BCEBD",
"b. c #9BCEBE",
"n. c #9CCFBD",
"m. c #9ECFBC",
"M. c #9FCFBC",
"N. c #9FCFBD",
"B. c #9CCFBE",
"V. c #9DCFBE",
"C. c #9DCEBF",
"Z. c #9CCFBF",
"A. c #9DCFBF",
"S. c #9ECFBE",
"D. c #9ECFBF",
"F. c #9FCFBF",
"G. c #9FD6B1",
"H. c #9FD0B6",
"J. c #9FD0B8",
"K. c #9CD0BB",
"L. c #9DD0BC",
"P. c #9ED0BD",
"I. c #9FD0BD",
"U. c #9FD1BD",
"Y. c #9FD0BE",
"T. c #9FD1BE",
"R. c #9FD0BF",
"E. c #A6DFA8",
"W. c #A5DDAA",
"Q. c #A5DDAB",
"!. c #A4DBAF",
"~. c #A5DCAC",
"^. c #A5DCAD",
"/. c #A5DDAD",
"(. c #A6DEAC",
"). c #A5DCAE",
"_. c #A6DCAF",
"`. c #A0D6B2",
"'. c #A3D7B4",
"]. c #A3D7B5",
"[. c #A2D6B6",
"{. c #A3D6B6",
"}. c #A3D7B6",
"|. c #A3D9B2",
" X c #A3D8B3",
".X c #A4D9B3",
"XX c #A4D8B4",
"oX c #A4D8B6",
"OX c #A1D3BB",
"+X c #A2D5B8",
"@X c #A2D4B9",
"#X c #A1D4BA",
"$X c #A2D4BA",
"%X c #A2D4BB",
"&X c #A4D7B8",
"*X c #A0D1BC",
"=X c #A1D2BC",
"-X c #A1D3BC",
";X c #A0D2BD",
":X c #A1D2BD",
">X c #A2D3BC",
",X c #A0D0BE",
"<X c #A0D1BE",
"1X c #A1D1BE",
"2X c #A0D0BF",
"3X c #A0D1BF",
"4X c #A1D2BE",
"5X c #A5E1A2",
"6X c #A6E1A3",
"7X c #A7E3A2",
"8X c #A7E2A3",
"9X c #A7E1A5",
"0X c #A8E3A1",
"qX c #A8E4A0",
"wX c #AAE5A1",
"eX c #A8E3A4",
"rX c #A8E1A8",
"tX c #9FCFC0",
"yX c #9FCFC2",
"uX c #9FD0C0",
"iX c #A0CFC1",
"pX c #A0CFC2",
"aX c #A0CFC3",
"sX c #A1CFC3",
"dX c #A0D0C0",
"fX c #A1D0C0",
"gX c #A1D1C0",
"hX c #A0D0C1",
"jX c #A1D0C1",
"kX c #A2D1C1",
"lX c #A0D0C2",
"zX c #A1D0C2",
"xX c #A1D0C3",
"cX c #A2D0C2",
"vX c #A2D1C2",
"bX c #A3D1C2",
"nX c #A3D1C3",
"mX c #A3D1C4",
/* pixels */
"OXdXdXdXdXdXdXdXdXdXR.V.dXD.S.:X:XdXdXdXdXdXdXdXdXdXV.uXdXB.2XOX",
"e ;XdXdXdXdXdXdXdXjX$.n bX{ E 6X5XpXdXdXdXdXdXdXdXdX= a.uX$ K.e ",
"@ S.v.dXdXdXdXdXdXdXuXR.dXuXfX/ / D.S.dXdXdXdXdXdXdXR.dXdXF.D.@ ",
"tXn.* uXdXR.c.dXdXdXdXdXdX-XOXtXjX~ } jXdXv.S.fXdXdXdXdXdX+X3XtX",
"{.,X=.a.fXa.j D.x.dXdXdXpXE.0X=X%X2.;.V.kXn 6.c.D.dXdXdX3Xr #X{.",
"t H.. & F.p.fXw.x jXdXdXhXdXpX9XrX6 o 3.v.B.jXx w.fXdXhXdXdX4Xt ",
"tXy.dXR.O.k dXdXdXdXhXf.-.hXdXfXx.v.jXc.z &.jXdXdXdXdXP N.dXdXdX",
"V.j R.v.l fXfXdXiXdXzXF 2 xXdXjX) } bX! %.kXdXiXdXdXdX; <.dXdXdX",
"dXfXD.9.fXV.q.>X.XdXdXhXhXdXdXdXfXjXu.c.jXt.b..XOXdXdXzXdXdXdXdX",
"dXdXn.x dXa.m `.q lXfXdXdXdXdXdXdXjX( $.kXW e.w G.zXdXdXdXdXdXdX",
"dXdXdXjXdXhXcXu.R v.8.fXdXfXfXdXdXdXfXfXdXlXjXT u.&.V.dXdXjXdXdX",
"jXdXdXdXdXOX~.hXcXt._ kXfXi.q.jXfXdXdXdXhX!.+XsXhXQ v.fXdXO.D.jX",
"{ R.dXdXdX+XqX$X/.,.C 6.vX&.| y.w.fXdXdXiX8X X^.$XA V V.fXN n.{ ",
"M R.dXdXxXdXyX[.eXI 1  .a.6.bX+.+.jXdXzXhXpXpX7X&X3 g B.} R.R.M ",
"kXdXdXg.7 dXdXhXk.X.mXa.M o.jXjXjXdXzXD P hXdXpX} Z.vX' M V.dXkX",
"yXdXdXf.5 dXdXfXp.' kXy.o.bXjXiXiXdXzX9 L hXdXfX) x.kX( S.kXdXyX",
"wX<XdXhXxXdXdXdXfXkXy...bX8.@._.).iXdXzXhXdXdXdXjXfX( V.dX~ P.wX",
"0 T.kXdXdXdXdXdXdXfXi.O.kXq.4.Y U cXfXdXdXdXdXdXdXdX' n.dX` L.0 ",
"[ n.B uXdXfXjXdXdXdXfXjXdXlXcX0.r.o.&.jXdXjXfXdXdXdXjXdXdXsXuX[ ",
"sXD.#.jXdXx.W fXjXdXdXdXiX^.E.aXzXe.l.jXjX^ w.kXfXdXdXdX3Xp =XsX",
"s J.: b dXS.%.p.! fXdXdXhX]. XW.(.8 < 7.vX8.c.! i.fXdXdX3XQ.-Xs ",
"Q.*XS $.v.M kXn.6.fXdXhXzXhXpX'.oXP H b.^ q.kX6.n.dXdXzXdXiX3XQ.",
"C.z hXn.j 6.dXdXjXdXzXG 4 xXdXzX] X.nX( ! n.fXjXdXdXdX> 1.dXdXiX",
"R.8.dXR.9.jXfXdXiXdXhX<.P hXdXfXp.z.kXu.v.jXdXiXdXdXdXK M.dXdXdX",
"dXjXn.k fXa.c XXi iXdXhXhXdXdXdXfXkX~ +.bXN 5.f  XhXdXhXdXdXdXdX",
"dXdXR.y.dXD.p.*.h jXdXdXdXdXdXdXdXfXz.v.fXp.A.h *.jXdXdXdXdXdXdX",
"dXdXdXfXdXdXfXA.x.8.M jXdXdXdXdXdXdXfXdXdXfXfXj.D.k p.fXdXdXdXdX",
"dXdXdXdXhX}.y hXgXV.s.dXjX} ~ jXdXdXdXdXpXu !.hXdXa.S.dXR.% n.dX",
"# D.dXdXdX<X@X|.d J   T jXB.S.) ) jXdXdXdX@X<Xa .X- O z.uXx.S.# ",
"c.dXdXdXI.dXdX1X#Xm.:.V.} B kXV.V.dXdXY.2XdXdX#XU.2.d.V.$ v.dXc.",
"dXdXdX>.X dXdXfX8.z vXO.v R.dXdXdXdXxX, Z zXdXfXj y.fX% w.dXD.dX",
"dXdXdX2Xg.dXdXdXR.V.dXF.S.dXdXdXdXdXdXh.N.dXdXdXV.R.dXB.uXR.+ B."
};
