/* XPM */
static char *open[] = {
/* columns rows colors chars-per-pixel */
"24 32 95 2 ",
"   c #000000",
".  c #0D0D0D",
"X  c #160000",
"o  c #1B0404",
"O  c #1C0B0B",
"+  c #0F1212",
"@  c #141414",
"#  c #171A1A",
"$  c #1B1B1B",
"%  c #220303",
"&  c #2D0101",
"*  c #240C0C",
"=  c #350505",
"-  c #251010",
";  c #2B1414",
":  c #201F1F",
">  c #2F1A1A",
",  c #361919",
"<  c #242424",
"1  c #2C2C2C",
"2  c #3D2323",
"3  c #302F2F",
"4  c #333333",
"5  c #383535",
"6  c #3A3A3A",
"7  c #422F2F",
"8  c #464646",
"9  c #484848",
"0  c #5B5757",
"q  c #5C5B5B",
"w  c #7A5D5D",
"e  c #656565",
"r  c #686464",
"t  c #6C6C6C",
"y  c #757575",
"u  c #7B7B7B",
"i  c #890303",
"p  c #940000",
"a  c #9E0404",
"s  c #A00000",
"d  c #A80000",
"f  c #A11717",
"g  c #A81414",
"h  c #A71C1C",
"j  c #B31D1D",
"k  c #BF1F1F",
"l  c #AF2828",
"z  c #BA2525",
"x  c #B12B2B",
"c  c #BA3030",
"v  c #C30202",
"b  c #D70101",
"n  c #D80000",
"m  c #DF1B1B",
"M  c #E61515",
"N  c #E71A1A",
"B  c #FF1A1A",
"V  c #C02121",
"C  c #C82121",
"Z  c #C52F2F",
"A  c #C53232",
"S  c #F62020",
"D  c #FF3838",
"F  c #826464",
"G  c #CC4949",
"H  c #848484",
"J  c #888484",
"K  c #8B8B8B",
"L  c #948282",
"P  c #949494",
"I  c #9D9D9D",
"U  c #A49393",
"Y  c #A3A3A3",
"T  c #ABABAB",
"R  c #B6B6B6",
"E  c #BCBCBC",
"W  c #F4BFBF",
"Q  c #C3C3C3",
"!  c #CECECE",
"~  c #D7C5C5",
"^  c #D3D3D3",
"/  c #DCDCDC",
"(  c #FBC2C2",
")  c #E7D4D4",
"_  c #E0DCDC",
"`  c #F0D1D1",
"'  c #FEDCDC",
"]  c #E3E3E3",
"[  c #EDECEC",
"{  c #F7E3E3",
"}  c #FBE4E4",
"|  c #FAEBEB",
" . c #F5F5F5",
".. c #FBF0F0",
"X. c #FEFEFE",
/* pixels */
" . .X.X.X.X.X.' B b X     % d Z | X.X.X.X.X. . .",
" .X.X.X.} } } W M v > $ $ ; p l ` { { | X.X. .X.",
"X.X.X.' D S C h & 2 ! ^ Y J * = j V k G | X.X.X.",
"X.X.| ( M n d i @ 4 ^ / T K # * p s a l ` | X.X.",
"X.} D N = o X ; H u 1 : $ < e 0 O X X = j G ..X.",
"X.' N v - + . 1 I K : + . $ y t @ . . * p c | X.",
"X._ , ; H P K P Y I P K t t u y t t t 0 o 5 [ X.",
"} ~ < < P Y Y Y Y Y Y Y K F u y u u u e + 5 ) } ",
"z c L P Y Y Y Y Y Y Y Y I P u u u u u y t w z A ",
"s f U Y Y Y Y Y Y Y Y Y Y I H u u u u u u F s f ",
"X ; P Y Y Y Y Y Y Y Y Y Y I u u u u u u u e o - ",
"  @ P Y Y Y Y Y Y Y Y Y I I u u u y u u u e . @ ",
"  @ P Y Y Y Y Y Y Y Y I H u u u u u u y u e . @ ",
"$ 3 H P Y Y Y Y I I I I u u u u u u u y t q < 1 ",
"] Q < < P Y Y Y H u u u u u u u u u u t @ 4 ^ ] ",
"X.] 4 1 H P P K u u u u u u u y t t t q $ 8  .X.",
"X.X.[ Q < @ @ < y u u u u u u e $ . . 4 ! [ X.X.",
"X. .[ Q 4 @   @ e t t t t t t q .   . 6 ^ [ X.X.",
"X./ 5 5 ! Q @   . . @ . @ . . .   $ P K < 8  .X.",
"[ Q 1 5 ! Q @                     $ P K $ 5 ^ ] ",
"$ 6 ! Q 4 $                       . @ 1 P K < 4 ",
"  < ] ^ $                             < T P . @ ",
"  # T Y @                             < T P . @ ",
"$ 3 P P 1 $                         @ 1 P K < 4 ",
"] Q 1 3 ! Q @                     $ P H $ 6 ^ ] ",
"X./ @ < ] ^ 4 $ $ < @ @ @ @ @ @ @ 5 T P . 4 [ X.",
"X.^ $ $ T Q / ] ] ^ Y I Y I Y I Y Y R P . 1 [ X.",
"X.] 5 4 P T / [  .[ E R R R R R Y Y Y K < 8  .X.",
"X.X.] Q < @ $ 5 T Q R R R R R I $ @ + 5 ! ] X.X.",
"X.X.X./ 4 $ $ 3 P Y I Y Y I Y K 1 $ $ 8  .X.X.X.",
" .X.X.X.] ] ] Q < @ @ @ @ @ @ 5 ! ] / [ X.X. . .",
" . .X.X.X.X.X.^ $             1 [ X.X.X.X.X. . ."
};
