/* XPM */
static char *open_exit[] = {
/* columns rows colors chars-per-pixel */
"32 32 139 2 ",
"   c black",
".  c #6E6767",
"X  c #A40606",
"o  c #E90303",
"O  c #7FC27D",
"+  c #83C26F",
"@  c #85C271",
"#  c #7CC28B",
"$  c #78C299",
"%  c #73C1A2",
"&  c #75C1A3",
"*  c #76C2A4",
"=  c #78C2A5",
"-  c #79C3A6",
";  c #7BC3A7",
":  c #7DC4A9",
">  c #7EC4A9",
",  c #7FC5AA",
"<  c #ADABAB",
"1  c #8AC580",
"2  c #8BC581",
"3  c #8BC686",
"4  c #8EC78A",
"5  c #8FC78D",
"6  c #8FC78F",
"7  c #90C890",
"8  c #91C893",
"9  c #92C996",
"0  c #93C99B",
"q  c #93CA9D",
"w  c #94CA9E",
"e  c #91DB93",
"r  c #90DC90",
"t  c #ACEE8F",
"y  c #AFF584",
"u  c #AEF388",
"i  c #ADF08B",
"p  c #B0F880",
"a  c #A0E396",
"s  c #AAEA95",
"d  c #AAEA96",
"f  c #A0E199",
"g  c #A9E79A",
"h  c #A9E69C",
"j  c #A8E49F",
"k  c #A9E899",
"l  c #AAE998",
"z  c #83C6A4",
"x  c #88CEA2",
"c  c #8ACEA4",
"v  c #80C5AB",
"b  c #81C5AB",
"n  c #82C6AC",
"m  c #83C6AC",
"M  c #83C6AD",
"N  c #84C6AD",
"B  c #85C7AE",
"V  c #86C7AF",
"C  c #87C7AF",
"Z  c #8FCAAF",
"A  c #97CBA5",
"S  c #97CBA7",
"D  c #99CCAB",
"F  c #99CCAD",
"G  c #89C8B0",
"H  c #89C8B1",
"J  c #8AC8B1",
"K  c #8BC9B2",
"L  c #8CC9B2",
"P  c #8CC9B3",
"I  c #8DC9B3",
"U  c #8ECAB4",
"Y  c #8FCAB4",
"T  c #8FCAB5",
"R  c #90CAB5",
"E  c #91CBB6",
"W  c #92CBB7",
"Q  c #93CBB7",
"!  c #9BCDB1",
"~  c #9BCEB4",
"^  c #98CFB6",
"/  c #9BCEB6",
"(  c #9CCEB4",
")  c #9CCEB6",
"_  c #9DCEB7",
"`  c #94CCB8",
"'  c #95CCB9",
"]  c #96CCB9",
"[  c #97CDBA",
"{  c #9ACEB8",
"}  c #9ACFB8",
"|  c #98CDBA",
" . c #98CDBB",
".. c #99CDBB",
"X. c #9ACEBA",
"o. c #9ECFBA",
"O. c #9ACEBC",
"+. c #9BCEBD",
"@. c #9CCEBD",
"#. c #9ECFBC",
"$. c #9FCFBD",
"%. c #9DCFBE",
"&. c #9ECFBE",
"*. c #9ECFBF",
"=. c #9FCFBF",
"-. c #A6DFA7",
";. c #A5DEA9",
":. c #A6DFA8",
">. c #A5DDAB",
",. c #A4DBAE",
"<. c #A4DAAF",
"1. c #A0D6B2",
"2. c #A3D7B3",
"3. c #A0D4B5",
"4. c #A3D7B4",
"5. c #A2D6B5",
"6. c #A2D5B7",
"7. c #A2D6B6",
"8. c #A3D8B2",
"9. c #A1D3B9",
"0. c #A1D3BA",
"q. c #A1D2BB",
"w. c #A1D3BB",
"e. c #A1D4B8",
"r. c #A1D4B9",
"t. c #A2D5B8",
"y. c #A0D1BD",
"u. c #A0D2BC",
"i. c #A1D2BC",
"p. c #A0D0BE",
"a. c #A0D1BE",
"s. c #A0D0BF",
"d. c #A7E3A0",
"f. c #A7E2A2",
"g. c #A6E1A4",
"h. c #A7E1A4",
"j. c #A8E4A0",
"k. c #A0D0C0",
"l. c white",
/* pixels */
"k.k.k.k.k.k.k.k.k.k.k.k.k.k.k.k.k.k.k.k.k.k.k.k.k.k.k.k.k.k.k.k.",
"p k.k.k.k.k.k.k.k.k.E , k.U B h.j.k.k.k.k.k.k.k.k.k.- [ k.* %.y ",
"% k.%.k.k.k.k.k.k.k.k.k.k.k.k.L H *.*.k.k.k.k.k.k.k.k.k.k.k.k.& ",
"k.k.& k.k.=.%.k.k.k.k.k.k.p.y.k.k.H L k.k.&.=.k.k.k.k.k.k.u.s.k.",
"t.k.~ O.k.O.: *.+.k.k.k.k.>.d.u.i.o.{ %.k.B W +.*.k.k.k.k.t u.e.",
"u k.+ = =.O.k.| v k.k.k.k.k.k.-.h.9 # I @.%.k.m ' k.k.k.k.k.k.i ",
"k.[ k.=.Q : k.k.k.k.k.o.( k.k.k.+.+.k.O.N E k.k.k.k.k.! $.k.k.k.",
"k.- k.%.: k.k.k.k.k.k.S 6 k.k.k.P P k.J E k.k.k.k.k.k.1 ) k.k.k.",
"k.k.=.` k.*.] y.4.k.k.k.k.k.o     X ..O.k. .@.5.i.k.k.k.k.k.k.k.",
"k.k.%.> k.+.n 3.a k.k.k.o X   l.<   X X k.H ` f 1.k.k.k.k.k.k.k.",
"k.k.k.k.k.k.k...C @.' o     <     .     X k.k.G [ ` %.k.k.k.k.k.",
"k.k.k.k.k.y.<.k.k.[ G   < < < < . . . .   2.9.k.k.C ..k.k.W =.k.",
"U k.k.k.k.w.j q.,._ X < < < < < < . . . . X 2.<.0.A Z @.k.B &.Y ",
"n k.k.k.k.k.k.e.f.!   < < < < < < . . . .   k.g.7.8 z O.R %.k.M ",
"k.k.k.$.0 k.k.k.O.R   < < < < < . . . . .   k.k.R O.k.U B @.k.k.",
"k.k.k.#.7 k.k.k...K k.  < < . . . . . .   k.k.k.K ..k.J @.k.k.k.",
"j.k.k.k.k.k.k.k.k.k. .T     . . . .     k.k.k.k.k.k.P +.k.K *.f.",
"r k.k.k.k.k.k.k.k.k. .  l.            <   k.k.k.k.k.P +.k.K *.e ",
"K k.V k.k.k.k.k.k.k.  l.                <   k.k.k.k.k.k.k.k.k.L ",
"k.k.L k.k.@.J k.k.k.  <                 <   [ k.k.k.k.k.k.d.y.k.",
"l k.3 M k.%.E O.H k.k.  l.            <   ` O.K  .k.k.k.k.>.p.g ",
":.k.q Y @.B k.@.W k.k.  < l.l.< < < < <   ` k.Q +.k.k.k.k.k.k.;.",
"k., k.%.b W k.k.k.k.k.D     < < < <     J O.k.k.k.k.k.4 _ k.k.k.",
"k.E k.=.W k.k.k.k.k.k.) F k.        k.[ O.k.k.k.k.k.k.S #.k.k.k.",
"k.k.%.> k.+.n 6.h k.k.k.k.k.k.k.k.k.K R k.H ` j 4.k.k.k.k.k.k.k.",
"k.k.=.` k.*.] } x k.k.k.k.k.k.k.k.k...O.k. .@.c ^ k.k.k.k.k.k.k.",
"k.k.k.k.k.k.k.&...] B k.k.k.k.k.k.k.k.k.k.k.k...%.n  .k.k.k.k.k.",
"k.k.k.k.k.r.s k.k.%...k.k.E J k.k.k.k.k.k.j <.k.k...&.k.k.: %.k.",
"* k.k.k.k.s.r.5.d D O m k.%.@.I K k.k.k.k.w.y.k 8.2 $ | k.O.=.= ",
"O.k.k.k.k.k.k.p.0.$./ +.R B k.%.%.k.k.k.k.k.k.0.a._ X.*.; O.k.O.",
"k.k.k.o.@ k.k.k.` > k.E n &.k.k.k.k.k.5 w k.k.k.> ` k.; [ =.k.k.",
"k.k.k.=.o.k.k.k.=.%.k.=.&.k.k.k.k.k.k.#.$.k.k.k.%.=.k.%.=.k.& %."
};
