/* XPM */
static char *player_b[] = {
/* columns rows colors chars-per-pixel */
"32 32 131 2 ",
"   c black",
".  c #F11C05",
"X  c #FF6C02",
"o  c #7FC27D",
"O  c #FFDD0B",
"+  c #83C26F",
"@  c #85C271",
"#  c #7CC28B",
"$  c #78C299",
"%  c #73C1A2",
"&  c #75C1A3",
"*  c #76C2A4",
"=  c #78C2A5",
"-  c #79C3A6",
";  c #7BC3A7",
":  c #7DC4A9",
">  c #7EC4A9",
",  c #7FC5AA",
"<  c #8AC580",
"1  c #8BC581",
"2  c #8BC686",
"3  c #8EC78A",
"4  c #8FC78D",
"5  c #8FC78F",
"6  c #90C890",
"7  c #91C893",
"8  c #92C996",
"9  c #93C99B",
"0  c #93CA9D",
"q  c #94CA9E",
"w  c #91DB93",
"e  c #90DC90",
"r  c #ACEE8F",
"t  c #AFF584",
"y  c #AEF388",
"u  c #ADF08B",
"i  c #B0F880",
"p  c #AAEA95",
"a  c #AAEA96",
"s  c #A0E199",
"d  c #A9E79A",
"f  c #A9E69C",
"g  c #A8E49F",
"h  c #A9E899",
"j  c #AAE998",
"k  c #83C6A4",
"l  c #88CEA2",
"z  c #8ACEA4",
"x  c #80C5AB",
"c  c #81C5AB",
"v  c #82C6AC",
"b  c #83C6AC",
"n  c #83C6AD",
"m  c #84C6AD",
"M  c #85C7AE",
"N  c #86C7AF",
"B  c #87C7AF",
"V  c #8FCAAF",
"C  c #97CBA5",
"Z  c #97CBA7",
"A  c #99CCAB",
"S  c #89C8B0",
"D  c #89C8B1",
"F  c #8AC8B1",
"G  c #8BC9B2",
"H  c #8CC9B2",
"J  c #8CC9B3",
"K  c #8DC9B3",
"L  c #8ECAB4",
"P  c #8FCAB4",
"I  c #90CAB5",
"U  c #91CBB6",
"Y  c #92CBB7",
"T  c #93CBB7",
"R  c #9BCDB1",
"E  c #9BCEB4",
"W  c #98CFB6",
"Q  c #9BCEB6",
"!  c #9CCEB4",
"~  c #9CCEB6",
"^  c #9DCEB7",
"/  c #94CCB8",
"(  c #95CCB9",
")  c #96CCB9",
"_  c #97CDBA",
"`  c #9ACEB8",
"'  c #9ACFB8",
"]  c #98CDBA",
"[  c #98CDBB",
"{  c #99CDBB",
"}  c #9ACEBA",
"|  c #9ECFBA",
" . c #9ACEBC",
".. c #9BCEBD",
"X. c #9CCEBD",
"o. c #9ECFBC",
"O. c #9FCFBD",
"+. c #9DCFBE",
"@. c #9ECFBE",
"#. c #9ECFBF",
"$. c #9FCFBF",
"%. c #A6DFA7",
"&. c #A5DEA9",
"*. c #A6DFA8",
"=. c #A5DDAB",
"-. c #A4DAAF",
";. c #A0D6B2",
":. c #A3D7B3",
">. c #A3D7B4",
",. c #A2D6B5",
"<. c #A2D5B7",
"1. c #A2D6B6",
"2. c #A3D8B2",
"3. c #A1D3B9",
"4. c #A1D3BA",
"5. c #A1D3BB",
"6. c #A1D4B8",
"7. c #A1D4B9",
"8. c #A2D5B8",
"9. c #A0D1BD",
"0. c #A0D2BC",
"q. c #A1D2BC",
"w. c #A0D0BE",
"e. c #A0D1BE",
"r. c #A0D0BF",
"t. c #A7E3A0",
"y. c #A7E2A2",
"u. c #A6E1A4",
"i. c #A7E1A4",
"p. c #A8E4A0",
"a. c #A0D0C0",
/* pixels */
"a.a.a.a.a.a.a.a.a.a.a.a.a.a.a.a.a.a.a.a.a.a.a.a.a.a.a.a.a.a.a.a.",
"i a.a.a.a.a.a.a.a.a.U , a.L M i.p.a.a.a.a.a.a.a.a.a.- _ a.* +.t ",
"% a.+.a.a.a.a.a.a.a.a.a.a.a.a.H D #.#.a.a.a.a.a.a.a.a.a.a.a.a.& ",
"a.a.& a.a.$.+.a.a.a.a.a.a.w.9.a.a.D H a.a.@.$.a.a.a.a.a.a.0.r.a.",
"8.a.E  .a. .: #...a.a.a.a.=.t.0.q.| ` +.a.M Y ..#.a.a.a.a.r 0.6.",
"y a.+ = $. .a.] x a.a.a.a.a.a.%.i.8 # K X.+.a.b ( a.a.a.a.a.a.u ",
"a._ a.$.T : a.a.  a.a.| ! a.a.a.....a. .m U a.a.a.a.a.R O.a.a.a.",
"a.- a.+.: a.a.  .   a.Z 5 a.          F U a.a.a.a.a.a.< ~ a.a.a.",
"a.a.$./ a.#.  . .   a.a.a.  X X X X X   a.[ X.,.q.a.a.a.a.a.a.a.",
"a.a.+.> a...  . .   a.a.  X X X X X X X   D / s ;.a.a.a.a.a.a.a.",
"a.a.a.a.a.    . . .   a.  X X X X X X X   a.a.S _ / +.a.a.a.a.a.",
"a.a.a.a.a.  . O . .     X X X X X X X X X   3.a.a.B { a.a.Y $.a.",
"L a.a.a.a.  . O O .     X X X X X X X X X   :.-.4.C V X.a.M @.P ",
"v a.a.a.a.a.    O   a.  X X X X X X X X X   a.u.1.7 k  .I +.a.n ",
"a.a.a.O.9 a.a.  X   a.  X X X X X X X X X   a.a.I  .a.L M X.a.a.",
"a.a.a.o.6 a.a.  X X     X X X X X X X X X     a.G { a.F X.a.a.a.",
"p.a.a.a.a.a.a.a.    X X   X X X X X X X   X X   a.a.J ..a.G #.y.",
"e a.a.a.a.a.a.a.  X X X X   X X X X X   X X X X   a.J ..a.G #.w ",
"G a.N a.a.a.a.a.  X X   X X           X X   X X   a.a.a.a.a.a.H ",
"a.a.H a.a.X.F a.a.      X X X X X X X X X       a.a.a.a.a.t.9.a.",
"j a.2 n a.+.U  .D a.  X X X X X X X X X X X   G [ a.a.a.a.=.w.d ",
"*.a.0 P X.M a.X.Y a.  X X X X X X X X X X X   T ..a.a.a.a.a.a.&.",
"a., a.+.c Y a.a.a.a.a.  X X X X X X X X X   a.a.a.a.a.3 ^ a.a.a.",
"a.U a.$.Y a.a.a.a.a.  X X X X       X X X X   a.a.a.a.Z o.a.a.a.",
"a.a.+.> a...v <.f a.  X   X   a.a.a.  X   X   g >.a.a.a.a.a.a.a.",
"a.a.$./ a.#.) ' l a.a.      a.a.a.a.{       X.z W a.a.a.a.a.a.a.",
"a.a.a.a.a.a.a.@.{ ) M a.a.a.a.a.a.a.a.a.a.a.a.{ +.v [ a.a.a.a.a.",
"a.a.a.a.a.7.p a.a.+.{ a.a.U F a.a.a.a.a.a.g -.a.a.{ @.a.a.: +.a.",
"* a.a.a.a.r.7.,.a A o b a.+.X.K G a.a.a.a.5.9.h 2.1 $ ] a. .$.= ",
" .a.a.a.a.a.a.w.4.O.Q ..I M a.+.+.a.a.a.a.a.a.4.e.^ } #.;  .a. .",
"a.a.a.| @ a.a.a./ > a.U v @.a.a.a.a.a.4 q a.a.a.> / a.; _ $.a.a.",
"a.a.a.$.| a.a.a.$.+.a.$.@.a.a.a.a.a.a.o.O.a.a.a.+.$.a.+.$.a.& +."
};
