/* XPM */
static char *p_front[] = {
/* columns rows colors chars-per-pixel */
"32 17 178 2 ",
"   c #3C2A1F",
".  c #2D2927",
"X  c #6F1F1F",
"o  c #4F2509",
"O  c #512203",
"+  c #5D2E07",
"@  c #562809",
"#  c #463C17",
"$  c #5A1E20",
"%  c #483D2E",
"&  c #5E3F3F",
"*  c #752525",
"=  c #752929",
"-  c #663E22",
";  c #653134",
":  c #555811",
">  c #73411F",
",  c #63690F",
"<  c #7A6008",
"1  c #6B452C",
"2  c #6B5B3A",
"3  c #7C5337",
"4  c #7D5439",
"5  c #4A4A4B",
"6  c #4D4C4B",
"7  c #666941",
"8  c #7D604D",
"9  c #786457",
"0  c #616161",
"q  c #666767",
"w  c #776E6E",
"e  c #757677",
"r  c #8F0404",
"t  c #9C0000",
"y  c #AE0000",
"u  c #962207",
"i  c #8D3D07",
"p  c #913F06",
"a  c #C60000",
"s  c #DA3604",
"d  c #9E4405",
"f  c #934109",
"g  c #96460F",
"h  c #9F4508",
"j  c #9B460C",
"k  c #964711",
"l  c #9C4A13",
"z  c #A14405",
"x  c #A34607",
"c  c #A24609",
"v  c #A44708",
"b  c #AD4B0A",
"n  c #AE4D0C",
"m  c #BE5209",
"M  c #BC530B",
"N  c #85660B",
"B  c #BA6D05",
"V  c #884D26",
"C  c #935225",
"Z  c #9A5221",
"A  c #BB5F20",
"S  c #D14203",
"D  c #CB5606",
"F  c #C3550C",
"G  c #C85609",
"H  c #CB5708",
"J  c #D15804",
"K  c #D55B07",
"L  c #DB5C05",
"P  c #D05A09",
"I  c #D25A08",
"U  c #D45B08",
"Y  c #DA5D08",
"T  c #C7630A",
"R  c #D1641B",
"E  c #E56209",
"W  c #E76209",
"Q  c #E76309",
"!  c #F66907",
"~  c #FF6B07",
"^  c #F46708",
"/  c #F6690A",
"(  c #F86908",
")  c #F96A08",
"_  c #FA6A09",
"`  c #FC6B09",
"'  c #FD6C08",
"]  c #FF6C08",
"[  c #FF6D08",
"{  c #FE6C09",
"}  c #FF6C09",
"|  c #FF6D09",
" . c #FF6E09",
".. c #FF6F09",
"X. c #815C43",
"o. c #89634A",
"O. c #9D6B4A",
"+. c #856B5A",
"@. c #BC7A4D",
"#. c #887364",
"$. c #917766",
"%. c #907B6C",
"&. c #8A7575",
"*. c #817872",
"=. c #867E7F",
"-. c #7F8244",
";. c #978506",
":. c #DDBB07",
">. c #E7BB07",
",. c #FC802C",
"<. c #CEDC06",
"1. c #CFDE09",
"2. c #D0DD08",
"3. c #D9D908",
"4. c #92807F",
"5. c #868483",
"6. c #888380",
"7. c #888787",
"8. c #8A8A89",
"9. c #8F8F8E",
"0. c #9A8C83",
"q. c #979694",
"w. c #989796",
"e. c #9C9B9E",
"r. c #9D9C9C",
"t. c #9E9E9D",
"y. c #A39E9A",
"u. c #A09D9C",
"i. c #A1A1A0",
"p. c #AAA6A3",
"a. c #AFA6A6",
"s. c #A3A4A9",
"d. c #AFAFAF",
"f. c #B6B3B1",
"g. c #BEB7B7",
"h. c #BABAB8",
"j. c #BBBBBB",
"k. c #C2C0C0",
"l. c #C0C3C3",
"z. c #C4C4C4",
"x. c #C6C6C8",
"c. c #CBCBCA",
"v. c #D1D1D1",
"b. c #D1D3D3",
"n. c #D2D2D2",
"m. c #D1D3D5",
"M. c #D4D5D5",
"N. c #D6D8D9",
"B. c #D7DADA",
"V. c #DBDDDD",
"C. c #E0DFE1",
"Z. c #E0E1E0",
"A. c #E0E1E2",
"S. c #E1E2E2",
"D. c #E3E3E3",
"F. c #E5E5E5",
"G. c #E5E6E7",
"H. c #E6E6E6",
"J. c #EBEBEB",
"K. c #ECECEC",
"L. c #EDEDED",
"P. c #EDEEEE",
"I. c #EDEFEF",
"U. c #F0F1F1",
"Y. c #F4F4F4",
"T. c #F4F4F5",
"R. c #F4F5F5",
"E. c #F5F5F5",
"W. c #F6F6F5",
"Q. c #F4F5F6",
"!. c #F6F6F6",
"~. c #F7F7F7",
"^. c #F8F8F8",
"/. c #F8F8F9",
"(. c #F8F9F9",
"). c #F9F9F9",
"_. c #F9FAFA",
"`. c #FAFAFA",
/* pixels */
"T.!.!.E.!.!.E.!.!.E.~.`._.`.~.E.!.W.E.!.!.^.!.E.E.!.E.W.!.E.W.~.",
"!.!.W.W.!.!.!.!.!.~.K.t.9.w.F.~.W.!.W.~.F.j.T.!.!.!.!.!.W.!.!.W.",
"!.!.W.!.!.W.!.!.!.P.0.k z j %.H.!.!.!.U.&.* a.Y.!.W.!.!.W.!.!.E.",
"E.!.!.E.!.!.E.!.`.r.l )  .' n 6./.!.!.I.& y X l._.!.E.W.!.E.!.!.",
"!.!.E.!.W.W.!.~.A.+.D | ] | L X.M.~.~.k.= a r 4.P.!.!.!.E.!.!.E.",
"!.!.W.!.!.W.~.G.#.F ~ ,.@.H ..h q.^.^.w t s S $ B.~.!.!.W.!.!.E.",
"E.!.!.E.!.!.~.N.- ! [ R . x  .E 3 m.`.=.u :.B ; V.~.E.W.!.E.W.!.",
"!.!.E.!.W.E.~.A.8 U ..I O m | } g y.Q.C.2 ;.% g.T.!.!.!.E.!.!.E.",
"!.!.W.W.!.!.!.~.n.o.f Q / _ { ` ^ Z p.f.C d 5.(.!.!.!.!.W.W.!.W.",
"E.!.!.E.!.!.E.!.^.b.u.1 + T P b  .K   V J 4 v.~.W.!.W.!.!.E.!.!.",
"!.W.E.!.W.E.!.W.E.^.).s., 3.N c W ` i p M *.R.!.!.E.!.!.E.!.W.E.",
"E.W.W.E.!.!.W.W.W.!.L.e.-.<.2.< G ..v @ $.S.!.W.!.!.W.W.W.W.W.!.",
"E.!.!.E.!.!.W.!.!.!.L.i.5 : 1.>.( Y o 0 D.~.!.!.!.!.W.!.!.W.!.!.",
"!.W.E.!.W.E.!.W.W.!.~.J.z.h.7 # A > 6 Z.^.!.E.!.!.E.!.!.E.!.!.E.",
"E.!.!.E.!.!.W.!.!.W.!.~.(.).x.e O.9 q W.!.W.!.!.!.!.W.!.!.E.!.!.",
"E.W.W.E.W.W.E.W.W.E.W.W.E.!.^.c.8.7.d.E.W.W.W.W.W.W.E.W.W.E.W.!.",
"~.!.E.!.W.E.!.W.W.!.E.W.!.E.!.^._.`.).E.!.!.E.!.!.E.!.!.E.!.!.T."
};
