/* XPM */
static char *p_right[] = {
/* columns rows colors chars-per-pixel */
"32 17 129 2 ",
"   c #34271A",
".  c #2D2927",
"X  c #373824",
"o  c #531F19",
"O  c #651C1A",
"+  c #4E2408",
"@  c #512204",
"#  c #5D2F07",
"$  c #56280A",
"%  c #413C13",
"&  c #6C3F1C",
"*  c #562D2B",
"=  c #4C3A35",
"-  c #6B2422",
";  c #34433E",
":  c #4D560C",
">  c #626B0D",
",  c #796008",
"<  c #54532C",
"1  c #604126",
"2  c #6D4E2F",
"3  c #6E4F30",
"4  c #6E5639",
"5  c #50612C",
"6  c #6D7D37",
"7  c #475C56",
"8  c #655840",
"9  c #755D40",
"0  c #4D695F",
"q  c #536159",
"w  c #5E6B5E",
"e  c #6B634A",
"r  c #6C6D48",
"t  c #726B54",
"y  c #706F59",
"u  c #5E7267",
"i  c #5B756C",
"p  c #5A796E",
"a  c #666860",
"s  c #697067",
"d  c #6A7A67",
"f  c #8E0303",
"g  c #9E0000",
"h  c #B00000",
"j  c #952107",
"k  c #8D3D07",
"l  c #913F06",
"z  c #C60000",
"x  c #DB3604",
"c  c #9C470E",
"v  c #934611",
"b  c #94511F",
"n  c #A24607",
"m  c #A1460A",
"M  c #AD4C0A",
"N  c #BD520A",
"B  c #B55D1A",
"V  c #85660B",
"C  c #BC6D04",
"Z  c #8A5020",
"A  c #87633B",
"S  c #D34203",
"D  c #CC5707",
"F  c #C2550B",
"G  c #CA5609",
"H  c #D45A07",
"J  c #DD5D06",
"K  c #D25A09",
"L  c #DB5D08",
"P  c #D2641A",
"I  c #E66209",
"U  c #F76907",
"Y  c #FF6B07",
"T  c #F56809",
"R  c #FE6D09",
"E  c #BD7A4C",
"W  c #5F8275",
"Q  c #678478",
"!  c #6A887E",
"~  c #728A7D",
"^  c #669874",
"/  c #998604",
"(  c #DDBC07",
")  c #E7BA07",
"_  c #FD802A",
"`  c #CEDD08",
"'  c #D9D907",
"]  c #6B8A82",
"[  c #6E908A",
"{  c #739185",
"}  c #789184",
"|  c #799B8D",
" . c #74A293",
".. c #7CA496",
"X. c #7AAB99",
"o. c #7FB8A5",
"O. c #84A79B",
"+. c #86B3A6",
"@. c #8BB4A6",
"#. c #80BBA7",
"$. c #88B9A5",
"%. c #8BB6A8",
"&. c #8BC692",
"*. c #92C896",
"=. c #92C999",
"-. c #A2E399",
";. c #A8E49F",
":. c #85C6A0",
">. c #8FC1A4",
",. c #8ACDA6",
"<. c #87C7AF",
"1. c #88C4AC",
"2. c #94CBAE",
"3. c #98CCA8",
"4. c #90D0A9",
"5. c #8CC9B2",
"6. c #95C3B4",
"7. c #94CCB5",
"8. c #9BCEB4",
"9. c #96CDB9",
"0. c #9CCEBD",
"q. c #9CD3B2",
"w. c #9ED0BD",
"e. c #A2D6B5",
"r. c #A1D8B1",
"t. c #A1D2BC",
"y. c #A6E1A5",
"u. c #9FD1C0",
"i. c #A0D0C0",
/* pixels */
"0.0.0.0.9.0.0.t.w.i.i.w.8.t.i.i.0.0.i.u.u.u.w.w.w.i.w.8.8.i.i.i.",
"i.i.0.5.0.0.5.q.y.u...6.i.i.i.i.i.6.W p ! 1.7.y.r.i.i.i.i.i.i.i.",
"i.i.0.9.u.0.0.7.4.} - a 0.i.i.i.6.y c m v d 7.4.7.w.w.u.i.i.i.i.",
"i.i.i.i.i.t.t.i. .O h = 0.i.0.i.u M R R U v ! 0.w.5.9.u.i.0.i.i.",
"0.w.i.i.i.e.y.8.s f z - O.9.7.%.4 J R R R D e 6.w.6.9.u.0.5.0.0.",
"<.0.i.i.i.t.e.>.o S x g q 9.0.Q m R G E _ Y N r 3.*.:.9.0.9.9.<.",
"9.i.i.0.8.i.i.6.* C ( j 0 7.+.3 I R n . P R U & $.8.7.7.5.9.i.9.",
"i.i.i.8.=.8.i.i.| X / < o.9.~ v R R F @ H R H 8 #.9.u.5.7.i.i.i.",
"t.w.i.8.8.0.i.i.i.i c Z | [ b T R R R T I k 9 %.0.0.0.9.0.0.0.t.",
"-.e.i.i.i.i.i.i.i.@.2 H Z   H R M K G # 1 Q %.i.i.w.5.9.i.5.q.-.",
",.9.0.i.i.i.i.i.i.i.w N l k R I c V ' > { i.i.i.i.i.0.0.t.0.9.,.",
"0.0.5.0.i.0.9.i.i.i.%.t $ m R G , ` ` 6 ] 9.u.i.i.u.i.i.t.t.0.0.",
"e.8.2.9.t.0.5.0.w.i.i.6.7 + L T ) ` : ; ] 1.9.0.w.i.i.i.t.y.e.e.",
";.8.&.1.0.9.0.9.5.w.i.i.%.; & B % 5 ^  .6.0.0.5.9.i.i.w.i.t.t.;.",
"t.8.8.9.5.<.i.0.0.i.i.8.t.7 8 A 0 X.w.9.5.7.i.0.0.i.w.8.8.i.t.t.",
"9.5.0.0.5.0.i.i.i.i.i.3.=.| p p X.7.i.5.7.0.i.i.i.i.w.=.8.i.i.w.",
"i.0.i.9.0.i.0.t.e.i.i.i.t.i.i.i.u.i.0.9.0.0.0.t.t.i.i.8.0.i.i.i."
};
