/* XPM */
static char *p_back[] = {
/* columns rows colors chars-per-pixel */
"32 17 176 2 ",
"   c #3C2A1F",
".  c #2D2927",
"X  c #6F1F1F",
"o  c #4F2508",
"O  c #512204",
"+  c #5D2F06",
"@  c #562809",
"#  c #463C17",
"$  c #5A1F20",
"%  c #483D2D",
"&  c #5E3F3F",
"*  c #752424",
"=  c #742929",
"-  c #673F22",
";  c #653134",
":  c #535811",
">  c #73411F",
",  c #636A0D",
"<  c #796008",
"1  c #6B452C",
"2  c #6B5B3A",
"3  c #7C5337",
"4  c #7D5438",
"5  c #4A4A4B",
"6  c #4D4C4C",
"7  c #666941",
"8  c #7C604E",
"9  c #796456",
"0  c #616162",
"q  c #666768",
"w  c #776E6E",
"e  c #757678",
"r  c #8E0404",
"t  c #9C0000",
"y  c #AE0000",
"u  c #972207",
"i  c #8D3D07",
"p  c #913F06",
"a  c #C60000",
"s  c #DB3604",
"d  c #9E4404",
"f  c #93410A",
"g  c #96460F",
"h  c #9F4508",
"j  c #9B460D",
"k  c #964712",
"l  c #9B4912",
"z  c #A14406",
"x  c #A34607",
"c  c #A44707",
"v  c #A2460A",
"b  c #AD4B09",
"n  c #AE4D0C",
"m  c #BE5208",
"M  c #BC530B",
"N  c #BC5F1F",
"B  c #85660B",
"V  c #BB6D04",
"C  c #874E27",
"Z  c #945225",
"A  c #9A5221",
"S  c #D34202",
"D  c #CB5606",
"F  c #C2550C",
"G  c #C85609",
"H  c #CB5708",
"J  c #D15804",
"K  c #D65B07",
"L  c #DB5C06",
"P  c #DA5C07",
"I  c #D35A08",
"U  c #D05B0A",
"Y  c #D45B08",
"T  c #C8630A",
"R  c #D2641A",
"E  c #E56209",
"W  c #E76309",
"Q  c #F66907",
"!  c #FF6B07",
"~  c #F46708",
"^  c #F6690A",
"/  c #F86908",
"(  c #F96A08",
")  c #FA6A09",
"_  c #FC6B09",
"`  c #FD6C08",
"'  c #FF6C08",
"]  c #FF6D08",
"[  c #FE6C09",
"{  c #FF6C09",
"}  c #FF6D09",
"|  c #FF6E09",
" . c #FF6F09",
".. c #815C44",
"X. c #88634A",
"o. c #9E6B48",
"O. c #856B5A",
"+. c #BD7A4C",
"@. c #887365",
"#. c #917765",
"$. c #907A6C",
"%. c #8A7575",
"&. c #817873",
"*. c #867D7F",
"=. c #7F8341",
"-. c #978503",
";. c #DDBB07",
":. c #E7BA07",
">. c #FD802A",
",. c #CDDC05",
"<. c #CFDD08",
"1. c #CEDE09",
"2. c #D9D907",
"3. c #868483",
"4. c #878787",
"5. c #888380",
"6. c #8A8A89",
"7. c #8F8F8F",
"8. c #918080",
"9. c #9A8C83",
"0. c #979695",
"q. c #979797",
"w. c #9B9B9D",
"e. c #9C9C9C",
"r. c #9E9E9E",
"t. c #A39E9B",
"y. c #A09D9C",
"u. c #A1A1A1",
"i. c #AAA6A3",
"p. c #AFA6A6",
"a. c #A3A4A9",
"s. c #AFAFAF",
"d. c #B6B3B1",
"f. c #BDB7B8",
"g. c #B9BAB8",
"h. c #BBBBBB",
"j. c #C2C0C0",
"k. c #C0C3C3",
"l. c #C4C4C4",
"z. c #C6C6C8",
"x. c #CBCBCB",
"c. c #D1D1D1",
"v. c #D2D2D2",
"b. c #D1D3D4",
"n. c #D1D3D5",
"m. c #D4D5D5",
"M. c #D6D8DA",
"N. c #D7DADA",
"B. c #DBDDDD",
"V. c #E0DFE1",
"C. c #E0E0E1",
"Z. c #E0E1E2",
"A. c #E0E1E3",
"S. c #E2E2E2",
"D. c #E2E3E3",
"F. c #E5E5E5",
"G. c #E5E6E7",
"H. c #E6E6E6",
"J. c #EBEBEB",
"K. c #ECECEC",
"L. c #EDEDED",
"P. c #EDEEEE",
"I. c #EDEFEF",
"U. c #EFF1F1",
"Y. c #F4F4F4",
"T. c #F4F5F5",
"R. c #F5F5F5",
"E. c #F4F5F6",
"W. c #F6F6F6",
"Q. c #F7F7F7",
"!. c #F8F8F8",
"~. c #F8F8F9",
"^. c #F8F9F9",
"/. c #F9F9F9",
"(. c #F9FAFA",
"). c #FAFAFA",
/* pixels */
"Q.W.R.W.R.R.W.R.R.W.!.W.W.R.W.W.R.Q.).(.).Q.R.W.W.R.W.W.R.W.W.T.",
"W.W.W.W.W.W.W.W.W.Y.h.F.Q.W.W.W.Q.F.q.7.r.K.Q.W.W.W.W.W.W.W.W.W.",
"R.W.W.R.W.W.W.W.Y.p.* %.U.W.W.W.H.$.j z k 9.P.W.W.W.R.W.W.R.W.W.",
"W.W.R.W.W.R.W.(.k.X y & I.W.W.~.5.n ` | ( l e.).W.R.W.W.R.W.W.R.",
"R.W.W.R.W.W.W.P.8.r a = j.Q.Q.m...L } ' } D O.Z.Q.W.R.W.W.R.W.W.",
"R.W.W.R.W.W.Q.N.$ S s t w !.!.0.h  .H +.>.! F @.G.Q.W.W.W.R.W.W.",
"W.W.R.W.W.R.Q.B.; V ;.u *.).n.3 E | x . R ] Q - M.Q.W.W.R.W.W.R.",
"R.W.W.R.W.W.W.T.f.% -.2 V.E.t.g { } m O I  .Y 8 A.Q.R.W.W.R.W.W.",
"W.W.W.W.W.W.W.W.^.3.d Z d.i.A ~ _ [ ) ^ W f X.v.Q.W.W.W.W.W.W.W.",
"W.W.R.W.W.R.W.W.Q.c.4 J C   K | b U T + 1 y.b.!.W.R.W.W.R.W.W.R.",
"R.W.W.R.W.W.R.W.W.T.&.M p i _ W v B 2., a./.!.R.R.W.R.R.W.R.W.W.",
"W.W.R.W.W.R.W.W.W.W.S.#.@ c  .G < <.,.=.w.L.W.W.W.R.W.W.R.W.W.R.",
"W.W.R.W.W.W.W.W.W.W.Q.D.0 o P / :.1.: 5 u.L.W.W.W.W.W.W.R.W.W.R.",
"R.W.W.R.W.W.R.W.W.R.W.!.C.6 > N # 7 g.l.J.Q.W.R.R.W.R.W.W.R.W.W.",
"W.W.R.W.W.R.W.W.W.W.R.W.W.q 9 o.e z./.~.Q.W.R.W.W.R.W.W.R.W.W.R.",
"W.W.R.W.W.R.W.R.R.W.R.W.R.s.4.6.x.!.W.R.W.W.R.W.W.R.W.W.R.W.W.R.",
"T.W.W.R.W.W.R.W.W.R.W.W.R./.).(.!.W.R.W.W.R.W.W.W.W.R.W.W.R.W.Q."
};
