/* XPM */
static char *wall[] = {
/* columns rows colors chars-per-pixel */
"29 32 199 2 ",
"   c #3E3A2A",
".  c #384F00",
"X  c #394A0C",
"o  c #385101",
"O  c #395B0A",
"+  c #375705",
"@  c #3B4515",
"#  c #365B13",
"$  c #39610E",
"%  c #37630E",
"&  c #366512",
"*  c #396513",
"=  c #386A16",
"-  c #366E1A",
";  c #3A6D19",
":  c #376916",
">  c #36711D",
",  c #39721D",
"<  c #3D4020",
"1  c #367520",
"2  c #387721",
"3  c #377A25",
"4  c #387C26",
"5  c #397E29",
"6  c #377E28",
"7  c #3F7D30",
"8  c #2B7029",
"9  c #415E0D",
"0  c #414C1D",
"q  c #425717",
"w  c #43610E",
"e  c #426413",
"r  c #436916",
"t  c #4B6C19",
"y  c #466E1A",
"u  c #41721C",
"i  c #4B731D",
"p  c #414921",
"a  c #4D453A",
"s  c #4B4635",
"d  c #4D7B24",
"f  c #437A2B",
"g  c #477629",
"h  c #557B24",
"j  c #447D32",
"k  c #574949",
"l  c #5A4C4C",
"z  c #665757",
"x  c #695959",
"c  c #5D604C",
"v  c #36832C",
"b  c #39842D",
"n  c #368830",
"m  c #3B8B32",
"M  c #318333",
"N  c #3F9138",
"B  c #2A883F",
"V  c #42822B",
"C  c #5A852C",
"Z  c #56862B",
"A  c #448D34",
"S  c #4B8B32",
"D  c #408032",
"F  c #5E8B32",
"G  c #558735",
"H  c #469339",
"J  c #4A953B",
"K  c #4C9A3E",
"L  c #469037",
"P  c #53953C",
"I  c #549B3F",
"U  c #5C953B",
"Y  c #628F31",
"T  c #659435",
"R  c #64943A",
"E  c #6A9A3C",
"W  c #638B2D",
"Q  c #70A23F",
"!  c #1E8F52",
"~  c #1E9457",
"^  c #268943",
"/  c #29944B",
"(  c #2B9247",
")  c #359648",
"_  c #249754",
"`  c #209958",
"'  c #229856",
"]  c #389954",
"[  c #1C9E63",
"{  c #269F63",
"}  c #18A067",
"|  c #16A16A",
" . c #1AA16A",
".. c #21A46D",
"X. c #29A269",
"o. c #34A46A",
"O. c #39AE7D",
"+. c #23A671",
"@. c #458944",
"#. c #548544",
"$. c #4D9B41",
"%. c #4B9A4E",
"&. c #529D41",
"*. c #599B40",
"=. c #4B8F50",
"-. c #449756",
";. c #509D5E",
":. c #558C58",
">. c #6A9E44",
",. c #649841",
"<. c #56A344",
"1. c #5BA345",
"2. c #5BA947",
"3. c #5DA549",
"4. c #5FAA4B",
"5. c #54A258",
"6. c #4DA346",
"7. c #6DA345",
"8. c #62A649",
"9. c #62AA4C",
"0. c #6AA548",
"q. c #73AB4C",
"w. c #70A447",
"e. c #7AB34F",
"r. c #67AF51",
"t. c #6EAF51",
"y. c #6BB453",
"u. c #6FBC55",
"i. c #71B556",
"p. c #79B455",
"a. c #73B758",
"s. c #75BB59",
"d. c #7BBC5C",
"f. c #7FBA56",
"g. c #65B24E",
"h. c #5D9967",
"j. c #5F9F71",
"k. c #5AA668",
"l. c #40AC78",
"z. c #5CAC78",
"x. c #4BA467",
"c. c #60A073",
"v. c #61A97B",
"b. c #71B474",
"n. c #76C159",
"m. c #7BC35D",
"M. c #7FC85F",
"N. c #83B951",
"B. c #8DC65A",
"V. c #8AC75D",
"C. c #91C85D",
"Z. c #82C362",
"A. c #83CC62",
"S. c #8CCF66",
"D. c #92CF61",
"F. c #89D366",
"G. c #92D76A",
"H. c #99DD70",
"J. c #8BD67D",
"K. c #9CE374",
"L. c #A1E576",
"P. c #A3EA76",
"I. c #A6ED79",
"U. c #A9EF79",
"Y. c #ADF47D",
"T. c #3FAF81",
"R. c #40AF80",
"E. c #5FAD80",
"W. c #44B184",
"Q. c #4BB388",
"!. c #49B284",
"~. c #54B78D",
"^. c #59B78F",
"/. c #5DB993",
"(. c #66AC85",
"). c #64B58B",
"_. c #65B68A",
"`. c #60BB96",
"'. c #69BA94",
"]. c #65BC99",
"[. c #6CBE9D",
"{. c #6BB693",
"}. c #70BD9B",
"|. c #70AA85",
" X c #70BFA0",
".X c #6FC09F",
"XX c #70C09F",
"oX c #6FC0A0",
"OX c #71C1A1",
"+X c #79C3A6",
"@X c #7DC5AA",
"#X c #80BE9E",
"$X c #AFF880",
"%X c #B2FA82",
"&X c #82C6AC",
"*X c #80C8AE",
"=X c #8DCAB3",
"-X c #99CBB7",
";X c #A1D0C1",
/* pixels */
".X+X=XoXOX+XOXOXXXOXOX'._._.oX+XXX_.}.+XOXXXXXOXXXXXXXOXXX",
"OX[.].}.=X;X+XOXOXOX'.k.2.&.z.z.&.2.b.-X@XXXXXXXXXOXOXXXXX",
"OX]./.XX&X=XOX`.].z.%.4.U.H.<.K K.P.<.k.v./.OX+XOX].].OXOX",
"OXOXOXOXXX[..X/.-.A 4.L n.Y.N.G Y.t.J 8.A ]  X@XXX].].OXXX",
"XXXXXX&X@XXX[.5.F.n.K 4.s.g.C e.s.F.<.&.M.F.J.k.XX`.].OXXX",
"~.XXXXOXOXOX'.$.Y.Y.y.m y.J C.m.K i.m n.Y.Y.6.X.!.^.&X`.[.",
"[.XXXXXXXX'.%.A <.I.s.8.W A G.q.V T 3.A.K.K N ) X.l.l.].XX",
"XX+XXXXX'.;.M.Z.<.H 2.L.Y.e.* = N.%XH.&.K <.A.d.) _ o.O.`.",
"+X&X+X@X=.t.K.%XP.r.F.%XP.V Q 2.U K.%XM.r.Y.$XK.0.^ ~  .O.",
"/.[.@X|.,.Y F G.r.<.L.A.9.n.Y.Y.m.K M.q.A u.S.F C 7 ^ [ O.",
"/. Xv.G N.q.9 d 8.3.&.N I y.Y.P.g.I v G 8.8.i 9 q.q.f ^ X.",
"=X Xh.u $.J 9 w.I.Z.J i.<.m <.&.n 2.a.&.G.L.E e $.$.r ^ } ",
"OX^.z.*.a.y >.I.%XN.Q %XC b s.t., E Y.T C.%XP.Y d d.P ` } ",
"oXE.*.Z.p.y e D.N.W %XP.Y p.Y.Y.q.E Y.Y.h B.B.$ g d.Z.S X.",
"OX(.G >.C S m g * Z C.C Q Y.Y.Y.U.T T C.i * ; m Z C >.j ).",
"OX'.#.r R Z.8.*.n 6 # 3 , Q Y.Y.E , , % b n M $.Z.C t @.'.",
"{.#.0.F R Z.Z.9.I , $.J M 2 T Y > n K H - 1.8.3.y.C E >.c ",
"(.t i.g 9 q.Z.p.h 0.a.a.J : - - > K d.u.>.C N.d.R # f a.% ",
"[.h.e h P = e e t N.Z.3.= , m m - , g.Z.d.9 e r , U d # -.",
"~.OX:.C 8.b b 1 . d p.P $ A a.i.V & *.p.t o 2 v m r.h ^ O.",
"oXOXz.h w.J 2 + # O O O , E m.d.U - + O O O + 4 J 7.V ~ W.",
"OX@X+Xc.# = * = m b = 3 * # R F O = 2 - b m : ; % % ! +..X",
"+X@X+X@Xc.q P m b = 3 2 + 3 - - 2 + 4 1 ; b N G # ! | !..X",
"~.[.+X@XOXg i b : 4 m * : b m m b * - m 1 = b t 8 | | O..X",
"]. XoXoXoX@.o O o = m * 1 m m b m , > n : o + O ( }  . .l.",
"=X XoXoXx.& . . o o + o , v O # b 6 6 b O . + M [ _ ` / X.",
"[.^.[.x.& . . o o . o   0 q q c f < @ o . . o $ ( ~ }  .l.",
" XoX/.] $ . o . . o X   l x x x x l @ o . o . $ ( ' ~ +..X",
"OX&XOX_.7 o o o o . o X a k z z k s X o o . o 1 ~ |  .Q..X",
"OX&X+X*X^.D ; o . o . o X @ a s @ X o . o ; 3 ~  .T./..X.X",
" XXXOX+XOX_.z.b 4 4 * o o o X X o o & 3 4 _ [ O..XW.~.W./.",
"XXOXoXoXOXOXOX{._.'.;.3 b 4 4 b 4 4 / o.l./.`..X.X.X.XW..X"
};
