/* XPM */
static char *enemy[] = {
/* columns rows colors chars-per-pixel */
"32 32 134 2 ",
"   c black",
".  c #272626",
"X  c #3C3B3B",
"o  c #9C073B",
"O  c #D40912",
"+  c #7FC27D",
"@  c #83C26F",
"#  c #85C271",
"$  c #4A00A3",
"%  c #7CC28B",
"&  c #78C299",
"*  c #73C1A2",
"=  c #75C1A3",
"-  c #76C2A4",
";  c #78C2A5",
":  c #79C3A6",
">  c #7BC3A7",
",  c #7DC4A9",
"<  c #7EC4A9",
"1  c #7FC5AA",
"2  c #F9B588",
"3  c #D4A8B8",
"4  c #8AC580",
"5  c #8BC581",
"6  c #8BC686",
"7  c #8EC78A",
"8  c #8FC78D",
"9  c #8FC78F",
"0  c #92C996",
"q  c #93CA9D",
"w  c #94CA9E",
"e  c #91DB93",
"r  c #90DC90",
"t  c #ACEE8F",
"y  c #AFF584",
"u  c #AEF388",
"i  c #ADF08B",
"p  c #B0F880",
"a  c #AAEA95",
"s  c #AAEA96",
"d  c #A9E79A",
"f  c #A9E69C",
"g  c #A8E49F",
"h  c #A9E899",
"j  c #AAE998",
"k  c #88CEA2",
"l  c #8ACEA4",
"z  c #80C5AB",
"x  c #81C5AB",
"c  c #82C6AC",
"v  c #83C6AC",
"b  c #83C6AD",
"n  c #84C6AD",
"m  c #85C7AE",
"M  c #86C7AF",
"N  c #96CBA2",
"B  c #97CBA7",
"V  c #90CAA9",
"C  c #99CCAB",
"Z  c #99CCAD",
"A  c #9ACDAE",
"S  c #98D6A8",
"D  c #99D5AB",
"F  c #89C8B1",
"G  c #8AC8B1",
"H  c #8BC9B2",
"J  c #8CC9B2",
"K  c #8CC9B3",
"L  c #8DC9B3",
"P  c #8ECAB4",
"I  c #8FCAB4",
"U  c #8FCAB5",
"Y  c #90CAB5",
"T  c #91CBB6",
"R  c #92CBB7",
"E  c #93CBB7",
"W  c #9BCDB1",
"Q  c #9BCEB4",
"!  c #98CFB6",
"~  c #9BCEB6",
"^  c #9CCEB4",
"/  c #9CCEB6",
"(  c #9DCEB7",
")  c #94CCB8",
"_  c #95CCB9",
"`  c #96CCB9",
"'  c #97CDBA",
"]  c #9ACEB8",
"[  c #9ACFB8",
"{  c #98CDBA",
"}  c #98CDBB",
"|  c #99CDBB",
" . c #9ACEBA",
".. c #9ECFBA",
"X. c #9ACEBC",
"o. c #9BCEBD",
"O. c #9CCEBD",
"+. c #9ECFBC",
"@. c #9FCFBD",
"#. c #9DCFBE",
"$. c #9ECFBE",
"%. c #9ECFBF",
"&. c #9FCFBF",
"*. c #A6DFA7",
"=. c #A5DEA9",
"-. c #A6DFA8",
";. c #A5DCAB",
":. c #A5DDAB",
">. c #A4DAAE",
",. c #A4DAAF",
"<. c #A5DCAC",
"1. c #A3D7B4",
"2. c #A2D6B5",
"3. c #A2D5B7",
"4. c #A3D8B2",
"5. c #A4DAB0",
"6. c #A1D3BA",
"7. c #A1D3BB",
"8. c #A1D4B8",
"9. c #A1D4B9",
"0. c #A2D5B8",
"q. c #A0D1BD",
"w. c #A0D2BC",
"e. c #A1D2BC",
"r. c #A0D0BE",
"t. c #A0D1BE",
"y. c #A0D0BF",
"u. c #A7E3A0",
"i. c #A7E2A2",
"p. c #A7E1A4",
"a. c #A8E4A0",
"s. c #968AF7",
"d. c #A0D0C0",
"f. c white",
/* pixels */
"d.d.d.d.d.d.d.d.d.d.d.d.d.d.d.d.d.d.d.d.d.d.d.d.d.d.d.d.d.d.d.d.",
"p d.d.d.d.d.d.d.d.d.T 1 d.P m p.a.d.d.d.d.d.d.d.d.d.: ' d.- #.y ",
"* d.#.d.d.d.d.d.d.d.d.d.d.d.d.J F %.%.d.d.d.d.d.d.d.d.d.d.d.d.= ",
"d.d.= d.d.&.#.d.d.d.d.d.d.r.q.d.d.F J d.d.$.&.d.d.d.d.d.d.w.y.d.",
"0.d.Q X.d.X., %.o.d.d.d.d.:.u.w.e...] #.d.m R o.%.d.d.d.d.t w.8.",
"u d.@ ; &.X.d.{ z d.d.d.d.d.d.*.p.0 % L O.#.d.v _ d.d.d.d.d.d.i ",
"d.' d.&.E , d.d.d.d.d...^ d.d.d.o.o.d.X.n T d.d.d.d.d.W @.d.d.d.",
"d.: d.#., d.d.d.d.d.d.B 9 d.d.d.K K d.G T d.d.d.d.d.d.4 / d.d.d.",
"d.d.&.) d.%.`         d.d.d.d.d.d.d.| X.d.}         d.d.d.d.d.d.",
"d.d.#.< d.    s.s.s.s.    d.d.d.d.d.H Y     o o o o     d.d.d.d.",
"d.d.d.d.  s.s.s.s.s.s.s.s.  d.d.d.d.d.  o o o o o o o o   d.d.d.",
"d.d.d.  s.s.s.s.s.$ s.s.s.  ' d.d.d.  o o o 3 o o 3 o o o   &.d.",
"P d.  s.s.s.$ 2 $ 2 2 $ s.s.  { ' d.  o o 2 2 3 o 2 2 o o   $.I ",
"c d.  s.s.s.  2 s.2 2   s.s.s.  T   o o o   2 2 2 2   o o   d.b ",
"d.d.  s.s.$ 2   2 2   2 s.s.s.  d.  o o o 2   2 2   2 o o   d.d.",
"d.d.  s.s.$ 2   2 2   2 $ s.s.  d.  o o 3 2   2 2   2 o   d.d.d.",
"a.d.  s.$   2 2 2 2 2 2   $ s.  5.  o 3   2 2 2 2 2 2   d.H %.i.",
"r d.d.    d.  2 2 2 2   d.    D S   o o d.  2 2 2 2   o.d.H %.e ",
"H d.M d.d.d.d.        d.d.d.d.` _   o 3 d.d.        d.d.d.d.d.J ",
"d.d.J d.d.O.  f.O O f.  d.4.;.d.d.  o   o   f.O O f.  d.d.u.q.d.",
"j d.6 b d.#.    O O     d.3.4.>.<.N   o       O O     d.d.:.r.d ",
"-.d.q I O.m   f.f.f.f.  d.d.d.2.1.A V { L )   f.f.  d.d.d.d.d.=.",
"d.1 d.#.x R . f.    f.. 0 d.d.d.U U d.L G X.  X X   d.7 ( d.d.d.",
"d.T d.&.R d.. . d.d.. . Z d.d.d.} } d.' X.  X f.f.X X B +.d.d.d.",
"d.d.#.< d.o.c 3.f d.d.d.d.d.d.d.d.d.H Y d.F ) g 1.d.d.d.d.d.d.d.",
"d.d.&.) d.%.` [ k d.d.d.d.d.d.d.d.d.| X.d.} O.l ! d.d.d.d.d.d.d.",
"d.d.d.d.d.d.d.$.| ` m d.d.d.d.d.d.d.d.d.d.d.d.| #.c } d.d.d.d.d.",
"d.d.d.d.d.9.a d.d.#.| d.d.T G d.d.d.d.d.d.g ,.d.d.| $.d.d., #.d.",
"- d.d.d.d.y.9.2.s C + v d.#.O.L H d.d.d.d.7.q.h 4.5 & { d.X.&.; ",
"X.d.d.d.d.d.d.r.6.@.~ o.Y m d.#.#.d.d.d.d.d.d.6.t.(  .%.> X.d.X.",
"d.d.d...# d.d.d.) < d.T c $.d.d.d.d.d.8 w d.d.d.< ) d.> ' &.d.d.",
"d.d.d.&...d.d.d.&.#.d.&.$.d.d.d.d.d.d.+.@.d.d.d.#.&.d.#.&.d.= #."
};
